<svg width="32" height="32" viewBox="0 0 32 32" fill="none" xmlns="http://www.w3.org/2000/svg">
<g id="exchange-alt">
<path id="Vector" d="M28.9465 12.3867L23.6132 7.05338C23.4889 6.92906 23.3413 6.83044 23.1789 6.76316C23.0164 6.69588 22.8423 6.66125 22.6665 6.66125C22.3115 6.66125 21.9709 6.80231 21.7199 7.05338C21.4688 7.30445 21.3277 7.64498 21.3277 8.00004C21.3277 8.35511 21.4688 8.69564 21.7199 8.94671L24.7865 12H9.33319C8.97957 12 8.64043 12.1405 8.39039 12.3906C8.14034 12.6406 7.99986 12.9798 7.99986 13.3334C7.99986 13.687 8.14034 14.0261 8.39039 14.2762C8.64043 14.5262 8.97957 14.6667 9.33319 14.6667H27.9999C28.2631 14.6654 28.52 14.5862 28.7383 14.4391C28.9566 14.292 29.1265 14.0835 29.2265 13.84C29.3286 13.5972 29.3565 13.3296 29.3067 13.071C29.2569 12.8123 29.1315 12.5742 28.9465 12.3867ZM22.6665 17.3334H3.99986C3.73663 17.3347 3.47967 17.4139 3.26138 17.561C3.04308 17.7081 2.87322 17.9166 2.77319 18.16C2.67109 18.4029 2.64319 18.6705 2.69302 18.9291C2.74286 19.1878 2.86818 19.4259 3.05319 19.6134L8.38653 24.9467C8.51048 25.0717 8.65795 25.1709 8.82042 25.2386C8.9829 25.3063 9.15718 25.3411 9.33319 25.3411C9.50921 25.3411 9.68348 25.3063 9.84596 25.2386C10.0084 25.1709 10.1559 25.0717 10.2799 24.9467C10.4048 24.8228 10.504 24.6753 10.5717 24.5128C10.6394 24.3503 10.6743 24.1761 10.6743 24C10.6743 23.824 10.6394 23.6498 10.5717 23.4873C10.504 23.3248 10.4048 23.1773 10.2799 23.0534L7.21319 20H22.6665C23.0201 20 23.3593 19.8596 23.6093 19.6095C23.8594 19.3595 23.9999 19.0203 23.9999 18.6667C23.9999 18.3131 23.8594 17.974 23.6093 17.7239C23.3593 17.4739 23.0201 17.3334 22.6665 17.3334Z" fill="#0A74D7"/>
</g>
</svg>
