<svg width="25" height="24" viewBox="0 0 25 24" fill="none" xmlns="http://www.w3.org/2000/svg">
<g id="airplane-1.svg" clip-path="url(#clip0_166_5926)">
<g id="Clip path group">
<mask id="mask0_166_5926" style="mask-type:luminance" maskUnits="userSpaceOnUse" x="-1" y="0" width="26" height="24">
<g id="clip0_279_16949">
<path id="Vector" d="M-0.000150681 24L24.6152 24L24.6152 0L-0.000150681 0L-0.000150681 24Z" fill="white"/>
</g>
</mask>
<g mask="url(#mask0_166_5926)">
<g id="Group">
<path id="Vector_2" d="M1.12189 9.01532L0.417645 9.70179C-0.0255566 10.1341 -0.0255566 10.8374 0.417645 11.2697C0.632475 11.479 0.91795 11.5944 1.22176 11.5944C1.44976 11.5944 1.66761 11.5294 1.85278 11.4083L2.00115 11.8939L1.23887 12.6374C0.795488 13.0697 0.795488 13.773 1.23887 14.2051C1.647 14.6031 2.29038 14.6337 2.73604 14.2988L3.63936 17.2556C3.27856 17.5944 2.93303 17.924 2.60736 18.2415C1.66897 19.1566 0.90589 20.1251 0.458752 20.9688C-0.296757 22.3949 0.0194874 23.1571 0.417828 23.5455C0.81592 23.9339 1.59776 24.242 3.06053 23.5054C3.92576 23.0696 4.91918 22.3256 5.85764 21.4105C6.1833 21.093 6.52152 20.7563 6.86878 20.4045L9.90158 21.2852C9.55807 21.7196 9.58946 22.3469 9.99752 22.745C10.4409 23.1771 11.1623 23.1773 11.6055 22.745L12.3679 22.0016L12.8662 22.1462C12.7421 22.3269 12.6754 22.5393 12.6754 22.7616C12.6754 23.0577 12.7937 23.3362 13.0083 23.5455C13.4515 23.9778 14.1731 23.9778 14.6163 23.5455L15.3203 22.859L18.909 23.9013C19.0369 23.9383 19.1752 23.9042 19.2692 23.8123L20.193 22.9116C20.3482 22.7605 20.3277 22.5022 20.1508 22.376L11.0962 15.914C13.1378 13.6697 15.1044 11.4226 16.4928 9.81717L19.1562 10.816C19.2901 10.8662 19.4416 10.8348 19.5431 10.736L20.6379 9.66849C20.7795 9.53022 20.7795 9.30628 20.6379 9.16825L15.1637 3.83089C15.024 3.69446 14.7904 3.69446 14.6505 3.83089L13.5558 4.89822C13.4544 4.99705 13.4221 5.14505 13.4737 5.27557L14.498 7.87218C12.8514 9.22591 10.5469 11.1434 8.24478 13.1341L7.52552 12.1758C7.39783 12.0056 7.13881 11.9836 6.98219 12.1287C6.85167 12.2495 6.83364 12.4522 6.93973 12.5936L7.70016 13.6065C6.49635 14.6541 5.30755 15.711 4.22902 16.7069L0.810135 5.51637L1.2817 5.05674L5.98066 11.3161C6.09899 11.4737 6.32601 11.5079 6.48773 11.3926C6.64958 11.277 6.68472 11.0557 6.56619 10.898L1.61709 4.30566C1.48774 4.13317 1.22275 4.11323 1.0678 4.26449L0.14398 5.16517C0.0497036 5.25692 0.0148106 5.39188 0.0527191 5.51637L1.12189 9.01532ZM11.0922 22.2445C10.9337 22.3991 10.6691 22.3991 10.5106 22.2445C10.3502 22.0882 10.3502 21.8338 10.5106 21.6775L10.6807 21.5116L11.5771 21.7719L11.0922 22.2445ZM14.1031 23.0451C13.9429 23.2014 13.6818 23.2014 13.5214 23.0451C13.361 22.8887 13.361 22.6344 13.5214 22.478L13.6333 22.369L14.5295 22.6292L14.1031 23.0451ZM19.3806 22.7032L18.909 23.1628L7.43161 19.8296C8.45303 18.7778 9.53703 17.6187 10.6116 16.445L19.3806 22.7032ZM19.1966 10.0729L16.9871 9.24437C17.5413 8.60099 17.9663 8.10308 18.217 7.80849L19.8681 9.41834L19.1966 10.0729ZM17.7015 7.30585C16.4365 8.79397 9.74983 16.615 5.34441 20.9102C4.47038 21.7626 3.51635 22.4793 2.72737 22.8766C2.13506 23.1751 1.34257 23.4464 0.930874 23.0451C0.519243 22.6437 0.797703 21.871 1.10367 21.2935C1.51118 20.5243 2.24644 19.5943 3.12066 18.7419C7.5257 14.447 15.5474 7.92732 17.0736 6.69372L17.7015 7.30585ZM14.2356 5.236L14.907 4.58142L16.5581 6.19126C16.2562 6.43557 15.7453 6.84991 15.0854 7.39028L14.2356 5.236ZM1.51247 10.7693C1.3521 10.9257 1.09124 10.9257 0.930874 10.7693C0.770504 10.6129 0.770504 10.3586 0.930874 10.2022L1.3574 9.7864L1.62441 10.6602L1.51247 10.7693ZM2.33358 13.7049C2.1734 13.8612 1.91235 13.861 1.75192 13.7049C1.59346 13.5503 1.59346 13.2923 1.75192 13.1378L2.23684 12.665L2.50392 13.539L2.33358 13.7049Z" fill="url(#paint0_linear_166_5926)"/>
<path id="Vector_3" d="M2.83345 3.57612L5.93012 0.556918C6.06212 0.427995 6.07099 0.215258 5.94945 0.0767965C5.81369 -0.0777266 5.56446 -0.0874503 5.41683 0.0564883L2.32022 3.07569C2.17843 3.21397 2.17843 3.4379 2.32022 3.57612C2.46182 3.71421 2.69166 3.71421 2.83345 3.57612Z" fill="url(#paint1_linear_166_5926)"/>
<path id="Vector_4" d="M3.86805 4.58599C3.72626 4.72408 3.72626 4.9482 3.86805 5.08623C4.00964 5.22451 4.23949 5.22451 4.38109 5.08623L6.3166 3.19934C6.4486 3.07042 6.45746 2.85768 6.33592 2.71922C6.20017 2.5647 5.95094 2.55497 5.80331 2.69891L3.86805 4.58599Z" fill="url(#paint2_linear_166_5926)"/>
<path id="Vector_5" d="M5.02889 6.47277C4.8871 6.61104 4.8871 6.83517 5.02889 6.9732C5.17067 7.11147 5.40033 7.11147 5.54212 6.9732L6.89695 5.65227C7.02895 5.52354 7.03781 5.31061 6.91609 5.17215C6.78052 5.01763 6.53129 5.0079 6.38366 5.15184L5.02889 6.47277Z" fill="url(#paint3_linear_166_5926)"/>
<path id="Vector_6" d="M20.899 21.5034C21.0408 21.6414 21.2706 21.6414 21.4122 21.5034L24.5089 18.484C24.6507 18.3459 24.6507 18.1218 24.5089 17.9837C24.3692 17.8475 24.1355 17.8475 23.9956 17.9837L20.899 21.003C20.7574 21.1412 20.7574 21.3651 20.899 21.5034Z" fill="url(#paint4_linear_166_5926)"/>
<path id="Vector_7" d="M19.3506 19.9937C19.4924 20.132 19.7221 20.132 19.8637 19.9937L21.7992 18.1066C21.9314 17.9779 21.94 17.7652 21.8185 17.6267C21.6828 17.4722 21.4337 17.4625 21.2861 17.6064L19.3506 19.4933C19.2089 19.6315 19.2089 19.8557 19.3506 19.9937Z" fill="url(#paint5_linear_166_5926)"/>
<path id="Vector_8" d="M19.2825 17.0402C19.1426 16.9039 18.9091 16.9039 18.7692 17.0402L17.4144 18.3611C17.2728 18.4994 17.2728 18.7233 17.4144 18.8615C17.5562 18.9996 17.7859 18.9996 17.9277 18.8615L19.2825 17.5406C19.4241 17.4023 19.4241 17.1784 19.2825 17.0402Z" fill="url(#paint6_linear_166_5926)"/>
</g>
</g>
</g>
</g>
<defs>
<linearGradient id="paint0_linear_166_5926" x1="10.3719" y1="23.9531" x2="10.3719" y2="3.72856" gradientUnits="userSpaceOnUse">
<stop stop-color="#006DD2"/>
<stop offset="1" stop-color="#59C2FD"/>
</linearGradient>
<linearGradient id="paint1_linear_166_5926" x1="4.12452" y1="3.67969" x2="4.12452" y2="-0.0455419" gradientUnits="userSpaceOnUse">
<stop stop-color="#006DD2"/>
<stop offset="1" stop-color="#59C2FD"/>
</linearGradient>
<linearGradient id="paint2_linear_166_5926" x1="5.09168" y1="5.18993" x2="5.09168" y2="2.59688" gradientUnits="userSpaceOnUse">
<stop stop-color="#006DD2"/>
<stop offset="1" stop-color="#59C2FD"/>
</linearGradient>
<linearGradient id="paint3_linear_166_5926" x1="5.96224" y1="7.07689" x2="5.96224" y2="5.04981" gradientUnits="userSpaceOnUse">
<stop stop-color="#006DD2"/>
<stop offset="1" stop-color="#59C2FD"/>
</linearGradient>
<linearGradient id="paint4_linear_166_5926" x1="22.704" y1="21.6069" x2="22.704" y2="17.8816" gradientUnits="userSpaceOnUse">
<stop stop-color="#006DD2"/>
<stop offset="1" stop-color="#59C2FD"/>
</linearGradient>
<linearGradient id="paint5_linear_166_5926" x1="20.5743" y1="20.0974" x2="20.5743" y2="17.5044" gradientUnits="userSpaceOnUse">
<stop stop-color="#006DD2"/>
<stop offset="1" stop-color="#59C2FD"/>
</linearGradient>
<linearGradient id="paint6_linear_166_5926" x1="18.3484" y1="18.9651" x2="18.3484" y2="16.938" gradientUnits="userSpaceOnUse">
<stop stop-color="#006DD2"/>
<stop offset="1" stop-color="#59C2FD"/>
</linearGradient>
<clipPath id="clip0_166_5926">
<rect width="24.6154" height="24" fill="white" transform="matrix(-1 0 0 -1 24.6152 24)"/>
</clipPath>
</defs>
</svg>
