<svg width="28" height="30" viewBox="0 0 28 30" fill="none" xmlns="http://www.w3.org/2000/svg">
<path d="M17.7887 20.1375L19.7487 18.0375C20.0127 17.7582 20.3467 17.567 20.7101 17.4871C21.0736 17.4072 21.4509 17.4421 21.7962 17.5875L24.1849 18.6094C24.5339 18.7612 24.8331 19.0202 25.0449 19.3539C25.2566 19.6875 25.3715 20.0809 25.3749 20.4844V25.1719C25.3729 25.4464 25.319 25.7176 25.2166 25.9692C25.1142 26.2208 24.9653 26.4476 24.7789 26.6359C24.5925 26.8242 24.3725 26.9701 24.1321 27.0649C23.8916 27.1598 23.6358 27.2015 23.3799 27.1875C6.64118 26.0719 3.26368 10.8844 2.62493 5.07191C2.59528 4.78648 2.62237 4.49755 2.70443 4.22414C2.78648 3.95073 2.92163 3.69903 3.10099 3.4856C3.28035 3.27218 3.49986 3.10186 3.74507 2.98585C3.99028 2.86984 4.25564 2.81078 4.52368 2.81254H8.74993C9.12707 2.81373 9.49524 2.93579 9.80711 3.163C10.119 3.39022 10.3603 3.7122 10.4999 4.08754L11.4537 6.64691C11.5939 7.01541 11.6297 7.42001 11.5565 7.81017C11.4834 8.20033 11.3046 8.55875 11.0424 8.84066L9.08243 10.9407C9.08243 10.9407 10.2112 19.125 17.7887 20.1375Z" fill="#0A74D7"/>
</svg>
