<svg width="121" height="30" viewBox="0 0 121 30" fill="none" xmlns="http://www.w3.org/2000/svg">
<g clip-path="url(#clip0_2003_5854)">
<mask id="mask0_2003_5854" style="mask-type:luminance" maskUnits="userSpaceOnUse" x="0" y="0" width="113" height="28">
<path d="M112.971 0.300781H0.970703V27.4211H112.971V0.300781Z" fill="white"/>
</mask>
<g mask="url(#mask0_2003_5854)">
<g opacity="0.8">
<path d="M15.6662 2.35049C15.207 2.88586 14.9519 3.54359 14.9519 4.21664C14.9519 4.44608 14.9519 9.87626 14.9519 10.0751C14.9178 10.5187 14.7308 10.9317 14.4247 11.2836C14.2545 11.4365 13.2511 12.2471 13.166 12.339L13.7273 12.3543C13.9144 12.2013 15.8533 10.6564 16.0404 10.4422C16.6016 9.89157 16.9247 9.17265 16.9247 8.42311C16.9247 8.17841 16.9247 3.02353 16.9247 2.79408C16.9078 2.22812 17.1458 1.66216 17.5881 1.24915C17.8262 1.01971 18.5745 0.453745 18.7106 0.316078L18.1153 0.300781C17.9962 0.438448 15.8703 2.16693 15.6662 2.35049Z" fill="#0A74D7"/>
<path d="M10.9453 23.5864L13.4768 25.4113H15.1705C16.7914 25.4113 18.3576 24.8834 19.5049 23.9333C20.5431 23.0736 20.9255 21.9122 20.9255 20.8264V17.8251C20.9072 17.1464 20.5613 16.4978 19.9421 16.0454C19.8328 15.9549 19.086 15.3667 19.086 15.3667V17.6742C19.086 17.6742 19.9056 18.368 20.0514 18.5038C20.798 19.1674 20.798 20.374 18.4122 22.2893C17.9934 22.6212 16.8096 23.5562 15.1705 23.5562L10.9453 23.5864Z" fill="#0A74D7"/>
<path d="M17.7872 11.9861C17.5243 12.2422 17.2613 12.8825 17.2613 13.4588V14.6593H18.5936C19.1195 14.6593 19.8032 14.2271 19.9435 14.0031C19.9435 13.987 19.9435 12.8025 19.9435 12.8025C20.1363 13.0585 20.3817 13.2987 20.6622 13.4908C20.8025 13.3307 22.0296 11.9861 23.0463 11.97C24.7468 11.9541 24.3611 13.923 23.6774 14.5473C23.4496 14.7554 22.4503 15.5877 22.1348 15.8598C21.3284 16.5641 19.9435 16.228 19.9435 14.4192C19.9435 14.4192 18.4709 15.6998 18.243 15.8758C18.0151 16.0519 17.2613 16.7883 17.2613 16.7883V19.9738C17.2613 21.4945 16.7179 22.0067 16.2621 22.4709C16.0868 22.647 14.2111 24.2157 13.9481 24.3918L13.3345 24.4077C13.3345 24.4077 14.4389 23.4953 14.6493 23.2873C14.8948 23.0472 15.1927 22.5669 15.1927 21.7666C15.1927 21.5585 15.1577 16.7723 15.1577 16.7723H6.60289C3.62275 16.7723 2.99165 13.7628 2.97413 12.9466C2.97413 12.7064 2.97413 10.3053 2.97413 9.92116C2.97413 9.42491 2.62352 8.59254 2.08008 8.33643H2.92154C3.02672 8.36841 3.55262 8.56051 3.55262 10.4174C3.55262 10.4174 3.51756 12.5623 3.51756 12.6904C3.51756 13.6348 4.34149 14.7073 5.51602 14.7073L15.1927 14.6914C15.1927 14.4512 15.4557 13.5548 15.929 13.0745C16.192 12.8025 18.278 11.0737 18.506 10.8976H19.1195C19.0319 10.9776 18.0151 11.794 17.8047 12.018L17.7872 11.9861ZM20.9602 13.7949C21.2056 14.0991 21.4862 14.4031 21.7841 14.6753C22.836 15.4437 23.3268 14.6113 22.6256 13.7469C22.3451 13.3947 21.2758 13.4908 20.9602 13.7949Z" fill="#0A74D7"/>
<path d="M10.9556 18.9743C10.9556 19.3493 9.39335 20.3353 9.30148 20.3908C9.19118 19.9881 8.78685 19.5576 7.62891 18.6689L9.33823 17.3774C10.4962 18.2522 10.9556 18.4467 10.9556 18.9743Z" fill="#0A74D7"/>
<path d="M12.4753 1.97932C12.7871 2.26664 13.4437 3.02274 13.0497 3.40078C12.7051 3.71835 12.1634 4.2325 12.1634 4.2325C12.1306 4.05103 11.6217 3.59738 11.6217 3.59738C11.6217 3.59738 11.6217 4.95834 11.6217 5.12469C11.6053 5.74469 11.359 5.91103 11.359 5.91103C11.359 5.91103 12.5902 7.03008 12.5902 8.48176C12.5902 9.17739 12.5902 9.82761 12.5902 9.96372C12.6066 10.2359 12.4916 10.5233 12.2783 10.7198C12.1634 10.8408 11.0308 11.8993 10.8502 12.0354C10.5876 12.2471 10.2593 12.3681 9.91456 12.353H5.66319C4.99019 12.353 4.30078 11.8691 4.30078 11.3852C4.30078 11.2643 4.3172 9.93349 4.3172 9.93349C4.53059 10.1603 4.76039 10.4324 5.28566 10.4324C5.71244 10.4324 6.13922 10.1301 6.25412 10.0091C6.36902 9.88812 9.4714 6.9242 9.4714 6.9242C9.4714 6.9242 8.02692 5.68423 7.07486 5.09445C6.61525 4.80714 5.99148 5.17005 5.893 5.54811C5.59754 6.72763 5.893 8.51198 5.893 8.51198L4.72756 7.43836C4.25154 6.9998 4.26795 6.01691 4.84246 5.50274C4.92454 5.41201 5.79452 4.53494 6.87785 4.53494H8.56861C9.70119 4.53494 10.9487 5.57835 10.9487 5.57835C11.0472 5.4725 11.1128 5.35152 11.1293 5.21543C11.1293 4.67103 11.1128 3.23444 11.1128 3.23444C10.2593 2.44811 10.1444 1.63152 10.5548 1.25346C11.3263 0.542733 11.6053 0.300781 11.6053 0.300781C11.6053 0.300781 11.5725 1.16273 12.4753 1.97932ZM7.14048 9.84275C6.71375 10.251 6.64807 10.3417 6.25412 10.5686H11.0472C12.344 10.5686 12.0813 9.82761 11.8515 9.44956C11.3755 8.67838 9.86536 7.25688 9.86536 7.25688C9.86536 7.25688 7.2226 9.76715 7.14048 9.84275Z" fill="#0A74D7"/>
<path d="M1.80003 14.3637H0.970703C0.970703 14.3637 1.85186 14.8136 1.85186 15.9869V19.7316C1.85186 22.1584 4.01156 24.4083 6.63776 24.4083H8.83204C10.1451 24.4083 10.6116 24.119 11.4064 23.4602C11.7001 23.2191 12.0802 22.8173 12.2185 22.6726C12.6676 22.1904 13.1687 21.8047 13.1687 20.5512V19.3297C13.1687 18.269 12.5121 17.8351 12.1839 17.5297C11.9765 17.3369 11.4236 16.8387 11.4236 16.8387V19.3459C11.4236 19.3459 11.9765 19.8922 12.2185 20.069C13.3587 20.9047 12.4603 22.3512 11.3891 22.3512C11.1818 22.3512 6.87965 22.3512 6.56865 22.3512C4.80633 22.3834 2.40475 20.9208 2.40475 18.4458V16.4208C2.42203 14.3637 1.80003 14.3637 1.80003 14.3637Z" fill="#0A74D7"/>
<path d="M7.6275 18.9744C7.6275 19.3493 6.06524 20.3353 5.97334 20.3908C5.86306 19.9881 5.45871 19.5576 4.30078 18.6689L6.01011 17.3774C7.14968 18.2383 7.6275 18.4328 7.6275 18.9744Z" fill="#0A74D7"/>
<path d="M7.64663 27.422C8.26471 27.4055 8.73738 26.9444 8.73738 26.4011C8.71919 25.8412 8.21016 25.4131 7.61026 25.4131C7.01037 25.4295 6.51953 25.8742 6.51953 26.4175C6.51953 26.9774 7.02855 27.422 7.64663 27.422Z" fill="#0A74D7"/>
<path d="M39.2004 18.8654H35.6127C34.4886 18.8654 34.5843 18.0031 34.4647 17.2735V12.5418C34.4647 12.5418 35.2539 12.5197 36.1389 12.5197C37.1195 12.5197 38.3632 12.387 39.5591 13.0061C38.9372 11.79 37.5979 11.0382 36.1389 11.0824H34.4886V9.55678C34.4886 9.55678 34.4886 8.23014 34.1298 7.8543H36.4977C38.5307 7.8543 40.1092 7.83215 41.7595 8.82713C41.7595 8.82713 41.4486 6.32861 37.5022 6.32861H29.8008C29.8008 6.32861 31.1402 7.38998 31.0923 9.53469L31.1402 18.1579C31.1402 20.3247 32.0729 20.391 32.0729 20.391H39.6548C41.3769 20.391 41.9749 19.2634 41.9749 18.6443L41.9988 17.8262C41.9988 17.8262 41.4486 18.8654 39.2004 18.8654Z" fill="#0A74D7"/>
<path d="M60.6441 18.9803V12.5155C60.6441 10.0054 58.5137 9.34229 56.9034 9.34229C54.7978 9.34229 54.1538 11.0236 53.8813 11.6157C53.4106 10.0527 51.7509 9.34229 50.4132 9.34229C47.8618 9.34229 47.2176 11.663 47.2176 11.663C47.2176 11.663 47.1681 9.41336 45.112 9.41336H43.1055C43.1055 9.41336 44.2698 9.86328 44.2698 11.805V18.9803C44.2698 21.3484 45.2607 21.3958 45.2607 21.3958H48.5801C47.7874 20.8274 47.3167 19.9275 47.3167 18.9566V12.5866C47.3663 12.3024 47.8618 11.3552 49.2738 11.3552C50.0912 11.3552 50.983 12.1603 50.9583 13.0602V18.9803C50.9583 21.372 51.9491 21.3958 51.9491 21.3958H55.2685C54.4758 20.8037 54.0051 19.9275 54.0051 18.9566V12.5866C54.3272 11.663 55.3676 11.1421 56.3585 11.4499C57.1017 11.6867 57.6219 12.3261 57.6466 13.0838C57.6466 13.0838 57.6466 18.483 57.6466 18.9803C57.6714 21.3957 58.6375 21.372 58.6375 21.372C60.3717 21.372 61.957 21.372 61.957 21.372C61.1394 20.8037 60.6689 19.9275 60.6441 18.9803Z" fill="#0A74D7"/>
<path d="M67.3334 18.1683C67.3334 19.04 67.8097 19.8681 68.6126 20.3911C68.6126 20.3911 67.0069 20.3911 65.2514 20.3911C65.2514 20.3911 64.2226 20.4129 64.2226 18.1901V11.5431C64.2226 9.79976 63.0684 9.3421 63.0684 9.3421H65.1003C65.8283 9.3421 67.3083 9.3421 67.3083 11.8047V18.1247L67.3334 18.1683Z" fill="#0A74D7"/>
<path d="M77.4369 10.1721C77.4369 10.1721 77.0996 9.38596 75.6726 9.38596C73.4936 9.38596 72.9751 11.5695 72.9751 11.5695C72.7933 9.84452 72.249 9.34229 70.7181 9.34229H68.6172C68.6172 9.34229 69.8366 9.75717 69.8366 11.5477V18.1641C69.8366 20.3477 70.8742 20.3914 70.8742 20.3914H74.35C73.52 19.8673 73.0267 19.0375 73.0267 18.1641V12.7269C73.1047 12.2683 73.4162 11.8535 73.8831 11.6132C75.0503 10.9581 76.5805 11.1547 77.4885 12.0499L77.4369 10.1721Z" fill="#0A74D7"/>
<path d="M92.2073 11.2192C92.8869 11.2192 93.5419 11.3775 94.1239 11.6713V9.95316H91.407V7.33057C90.825 8.18972 90.0731 8.95841 89.2236 9.61404C88.3018 10.3149 86.3613 11.1966 86.3613 11.1966L88.4233 11.2192V19.1773C88.4233 21.3929 89.418 21.393 89.418 21.393C91.1887 21.393 92.644 21.393 92.644 21.393C91.8682 20.8729 91.407 20.0364 91.3831 19.1547V11.2192C92.2564 11.2192 91.6738 11.2192 92.2073 11.2192Z" fill="#0A74D7"/>
<path d="M102.998 14.3392C101.188 16.1862 99.7638 15.902 98.6294 17.2754C98.6294 17.2754 98.8225 19.1224 100.246 19.7618C100.73 19.9748 102.732 20.6853 104.012 18.5068V20.4484C104.012 20.4484 103.191 21.3956 100.56 21.3956C97.3986 21.3956 95.2266 18.9567 95.2266 15.6416C95.2266 12.3738 96.9884 9.36641 100.343 9.34274C103.601 9.29539 105.388 11.9002 102.998 14.3392ZM101.019 13.5814C101.55 12.6105 101.984 10.1479 100.15 10.2899C98.0259 10.4556 98.4368 15.973 98.4368 15.973C99.1365 15.2153 100.199 15.0495 101.019 13.5814Z" fill="#0A74D7"/>
<path d="M80.2496 19.1082C79.5266 19.1082 78.9962 18.4123 78.9962 17.7163C78.9962 14.9761 81.4797 14.5847 82.1549 13.867V18.4992C81.8415 18.7168 81.5521 19.1082 80.2496 19.1082ZM82.1549 12.8014C81.4074 13.9757 75.5714 14.2367 76.4636 18.3036C76.8254 19.9129 78.0071 20.3913 79.5021 20.3913C80.9493 20.3913 81.8415 19.7171 82.2033 19.0647C82.4204 20.2826 83.1201 20.3696 83.1201 20.3696C84.8076 20.3696 86.3511 20.3696 86.3511 20.3696C85.5797 19.8476 85.0971 19.043 85.0971 18.173V11.975C85.0971 10.4961 83.2887 9.34345 81.3595 9.34345C80.2741 9.3217 79.2372 9.60443 78.345 10.1481V12.0619C78.345 12.0619 79.0201 10.5396 80.6838 10.5396C82.3241 10.5396 82.4443 11.279 82.4443 11.6487C82.4688 12.0402 82.3965 12.4534 82.1549 12.8014Z" fill="#0A74D7"/>
<path d="M110.156 18.1278C110.181 18.9803 109.377 20.0934 107.67 20.0934C105.911 20.0934 105.208 18.412 105.208 18.412V20.5433C106.163 21.1116 107.267 21.3958 108.398 21.3958C110.683 21.3958 113.019 19.7618 112.969 17.4648C112.944 16.707 112.667 15.9729 112.19 15.3809C111.411 14.41 110.005 13.7232 108.9 13.0838C108.272 12.7287 107.946 12.0656 107.946 11.8525C107.921 11.4499 108.146 10.6447 109.829 10.6447C111.487 10.6447 112.214 12.3024 112.214 12.3024V10.2895C111.286 9.67383 110.156 9.34229 109 9.34229C106.991 9.34229 105.158 10.5974 105.208 12.2076C105.233 13.6284 105.861 14.5283 107.092 15.4045C107.644 15.7834 108.222 16.115 108.825 16.4229C109.779 16.9202 110.13 17.5358 110.156 18.1278Z" fill="#0A74D7"/>
</g>
</g>
</g>
<defs>
<clipPath id="clip0_2003_5854">
<rect width="120" height="29.4972" fill="white" transform="translate(0.333984)"/>
</clipPath>
</defs>
</svg>
