<svg width="32" height="32" viewBox="0 0 32 32" fill="none" xmlns="http://www.w3.org/2000/svg">
<rect x="0.5" y="31.5" width="31" height="31" rx="15.5" transform="rotate(-90 0.5 31.5)" stroke="white"/>
<path d="M14.4647 20.366C14.5575 20.4524 14.6318 20.5565 14.6834 20.6723C14.735 20.788 14.7627 20.913 14.7649 21.0397C14.7672 21.1664 14.7439 21.2923 14.6964 21.4098C14.6489 21.5273 14.5783 21.634 14.4887 21.7236C14.3991 21.8132 14.2924 21.8839 14.1749 21.9313C14.0574 21.9788 13.9315 22.0021 13.8048 21.9999C13.6781 21.9976 13.5531 21.9699 13.4374 21.9183C13.3216 21.8667 13.2174 21.7924 13.1311 21.6997L8.09824 16.6668C7.92152 16.4899 7.82227 16.2501 7.82227 16C7.82227 15.7499 7.92152 15.5101 8.09824 15.3332L13.1311 10.3003C13.2174 10.2076 13.3216 10.1333 13.4374 10.0817C13.5531 10.0301 13.6781 10.0024 13.8048 10.0001C13.9315 9.99791 14.0574 10.0212 14.1749 10.0687C14.2924 10.1161 14.3991 10.1868 14.4887 10.2764C14.5783 10.366 14.6489 10.4727 14.6964 10.5902C14.7439 10.7077 14.7672 10.8336 14.7649 10.9603C14.7627 11.087 14.735 11.212 14.6834 11.3277C14.6318 11.4435 14.5575 11.5476 14.4647 11.634L11.0424 15.0563L23.2344 15.0563C23.4847 15.0563 23.7247 15.1558 23.9017 15.3327C24.0786 15.5097 24.1781 15.7497 24.1781 16C24.1781 16.2503 24.0786 16.4903 23.9017 16.6673C23.7247 16.8442 23.4847 16.9437 23.2344 16.9437L11.0424 16.9437L14.4647 20.366Z" fill="white"/>
</svg>
