<svg xmlns="http://www.w3.org/2000/svg" width="16" height="16" viewBox="0 0 16 16" fill="none">
  <path d="M7.10593 5.78873C7.03883 5.79109 6.97194 5.77992 6.90924 5.75588C6.84655 5.73183 6.78934 5.69541 6.74103 5.64877C6.69273 5.60214 6.6543 5.54625 6.62806 5.48445C6.60182 5.42264 6.5883 5.35618 6.5883 5.28904C6.5883 5.22189 6.60182 5.15543 6.62806 5.09363C6.6543 5.03182 6.69273 4.97594 6.74103 4.9293C6.78934 4.88267 6.84655 4.84624 6.90924 4.8222C6.97194 4.79815 7.03883 4.78698 7.10593 4.78935L10.8772 4.78935C11.0097 4.78943 11.1367 4.8421 11.2304 4.9358C11.3241 5.02949 11.3768 5.15654 11.3769 5.28904L11.3769 9.06027C11.3792 9.12738 11.3681 9.19427 11.344 9.25696C11.32 9.31966 11.2835 9.37686 11.2369 9.42517C11.1903 9.47348 11.1344 9.5119 11.0726 9.53815C11.0108 9.56439 10.9443 9.57791 10.8772 9.57791C10.81 9.57791 10.7436 9.56439 10.6818 9.53815C10.62 9.5119 10.5641 9.47348 10.5174 9.42517C10.4708 9.37686 10.4344 9.31966 10.4103 9.25696C10.3863 9.19427 10.3751 9.12738 10.3775 9.06027L10.3775 6.49583L5.80957 11.0637C5.7158 11.1575 5.58863 11.2102 5.45602 11.2102C5.32341 11.2102 5.19623 11.1575 5.10247 11.0637C5.0087 10.97 4.95602 10.8428 4.95602 10.7102C4.95602 10.5776 5.0087 10.4504 5.10247 10.3566L9.67037 5.78873L7.10593 5.78873Z" fill="#0A74D7"/>
</svg>