<svg xmlns="http://www.w3.org/2000/svg" width="8" height="11" viewBox="0 0 8 11" fill="none">
  <path d="M6.0907 5.50006L2.31648 9.13631C2.2854 9.16561 2.26084 9.2004 2.2442 9.23867C2.22756 9.27693 2.21918 9.31791 2.21955 9.35922C2.21992 9.40054 2.22902 9.44138 2.24633 9.47938C2.26364 9.51738 2.28882 9.55178 2.32041 9.5806C2.352 9.60942 2.38937 9.63207 2.43036 9.64726C2.47135 9.66244 2.51515 9.66986 2.55922 9.66907C2.60328 9.66829 2.64675 9.65931 2.68709 9.64268C2.72743 9.62604 2.76386 9.60206 2.79425 9.57214L6.79425 5.71798C6.8548 5.65964 6.88867 5.58145 6.88867 5.50006C6.88867 5.41866 6.8548 5.34048 6.79425 5.28214L2.79425 1.42798C2.76386 1.39805 2.72743 1.37408 2.68709 1.35744C2.64675 1.3408 2.60328 1.33183 2.55922 1.33105C2.51515 1.33026 2.47135 1.33767 2.43036 1.35286C2.38937 1.36805 2.352 1.3907 2.32041 1.41952C2.28882 1.44833 2.26364 1.48274 2.24633 1.52074C2.22902 1.55873 2.21991 1.59957 2.21955 1.64089C2.21918 1.68221 2.22756 1.72319 2.2442 1.76145C2.26084 1.79971 2.2854 1.83451 2.31648 1.86381L6.0907 5.50006Z" fill="black"/>
</svg>