<svg width="20" height="21" viewBox="0 0 20 21" fill="none" xmlns="http://www.w3.org/2000/svg">
<path d="M9.16699 15.5H10.8337V13.8333H9.16699V15.5ZM10.0003 2.16663C8.90598 2.16663 7.82234 2.38217 6.8113 2.80096C5.80025 3.21975 4.88159 3.83358 4.10777 4.6074C2.54497 6.17021 1.66699 8.28982 1.66699 10.5C1.66699 12.7101 2.54497 14.8297 4.10777 16.3925C4.88159 17.1663 5.80025 17.7802 6.8113 18.199C7.82234 18.6177 8.90598 18.8333 10.0003 18.8333C12.2105 18.8333 14.3301 17.9553 15.8929 16.3925C17.4557 14.8297 18.3337 12.7101 18.3337 10.5C18.3337 9.40561 18.1181 8.32198 17.6993 7.31093C17.2805 6.29988 16.6667 5.38122 15.8929 4.6074C15.1191 3.83358 14.2004 3.21975 13.1894 2.80096C12.1783 2.38217 11.0947 2.16663 10.0003 2.16663ZM10.0003 17.1666C6.32533 17.1666 3.33366 14.175 3.33366 10.5C3.33366 6.82496 6.32533 3.83329 10.0003 3.83329C13.6753 3.83329 16.667 6.82496 16.667 10.5C16.667 14.175 13.6753 17.1666 10.0003 17.1666ZM10.0003 5.49996C9.11627 5.49996 8.26842 5.85115 7.6433 6.47627C7.01818 7.10139 6.66699 7.94924 6.66699 8.83329H8.33366C8.33366 8.39126 8.50925 7.96734 8.82181 7.65478C9.13438 7.34222 9.5583 7.16663 10.0003 7.16663C10.4424 7.16663 10.8663 7.34222 11.1788 7.65478C11.4914 7.96734 11.667 8.39126 11.667 8.83329C11.667 10.5 9.16699 10.2916 9.16699 13H10.8337C10.8337 11.125 13.3337 10.9166 13.3337 8.83329C13.3337 7.94924 12.9825 7.10139 12.3573 6.47627C11.7322 5.85115 10.8844 5.49996 10.0003 5.49996Z" fill="#E31D1C"/>
</svg>
