<svg width="20" height="21" viewBox="0 0 20 21" fill="none" xmlns="http://www.w3.org/2000/svg">
<path d="M10.0003 18.8333C11.0949 18.8347 12.1789 18.6198 13.1902 18.2009C14.2014 17.7821 15.1199 17.1675 15.8928 16.3925C16.6678 15.6195 17.2824 14.701 17.7013 13.6898C18.1202 12.6786 18.3351 11.5945 18.3337 10.5C18.3351 9.40541 18.1201 8.32138 17.7013 7.31014C17.2824 6.29891 16.6678 5.38043 15.8928 4.60747C15.1199 3.83248 14.2014 3.21788 13.1902 2.799C12.1789 2.38012 11.0949 2.16521 10.0003 2.16663C8.90578 2.16524 7.82174 2.38015 6.81051 2.79903C5.79928 3.21791 4.88079 3.8325 4.10783 4.60747C3.33286 5.38043 2.71828 6.29891 2.2994 7.31014C1.88052 8.32138 1.6656 9.40541 1.667 10.5C1.66558 11.5945 1.88049 12.6786 2.29937 13.6898C2.71825 14.701 3.33284 15.6195 4.10783 16.3925C4.88079 17.1674 5.79928 17.782 6.81051 18.2009C7.82174 18.6198 8.90578 18.8347 10.0003 18.8333Z" stroke="#00B67A" stroke-width="2" stroke-linejoin="round"/>
<path d="M6.66699 10.5L9.16699 13L14.167 8" stroke="#00B67A" stroke-width="2" stroke-linecap="round" stroke-linejoin="round"/>
</svg>
