<svg width="28" height="28" viewBox="0 0 28 28" fill="none" xmlns="http://www.w3.org/2000/svg">
<path d="M17.1617 25.3283L21.8283 20.6617C21.9371 20.5529 22.0234 20.4238 22.0823 20.2816C22.1411 20.1395 22.1714 19.9872 22.1714 19.8333C22.1714 19.5227 22.048 19.2247 21.8283 19.005C21.6087 18.7853 21.3107 18.6619 21 18.6619C20.6893 18.6619 20.3914 18.7853 20.1717 19.005L17.5 21.6883L17.5 8.16668C17.5 7.85726 17.3771 7.56052 17.1583 7.34172C16.9395 7.12293 16.6428 7.00001 16.3333 7.00001C16.0239 7.00001 15.7272 7.12293 15.5084 7.34172C15.2896 7.56052 15.1667 7.85726 15.1667 8.16668L15.1667 24.5C15.1678 24.7303 15.2371 24.9552 15.3658 25.1462C15.4946 25.3372 15.677 25.4858 15.89 25.5733C16.1025 25.6627 16.3366 25.6871 16.563 25.6435C16.7893 25.5999 16.9976 25.4902 17.1617 25.3283ZM12.8333 19.8333L12.8333 3.50001C12.8322 3.26969 12.7629 3.04485 12.6342 2.85384C12.5054 2.66284 12.3231 2.5142 12.11 2.42668C11.8975 2.33734 11.6634 2.31293 11.4371 2.35653C11.2107 2.40014 11.0024 2.5098 10.8383 2.67168L6.17168 7.33835C6.06233 7.4468 5.97553 7.57584 5.9163 7.71801C5.85707 7.86018 5.82658 8.01267 5.82658 8.16668C5.82658 8.32069 5.85707 8.47318 5.9163 8.61535C5.97553 8.75752 6.06233 8.88656 6.17168 8.99501C6.28014 9.10436 6.40917 9.19116 6.55134 9.25039C6.69351 9.30962 6.846 9.34011 7.00001 9.34011C7.15402 9.34011 7.30652 9.30962 7.44868 9.25039C7.59085 9.19116 7.71989 9.10436 7.82834 8.99501L10.5 6.31168L10.5 19.8333C10.5 20.1428 10.6229 20.4395 10.8417 20.6583C11.0605 20.8771 11.3573 21 11.6667 21C11.9761 21 12.2728 20.8771 12.4916 20.6583C12.7104 20.4395 12.8333 20.1428 12.8333 19.8333Z" fill="#0A74D7"/>
</svg>
