<svg width="156" height="48" viewBox="0 0 156 48" fill="none" xmlns="http://www.w3.org/2000/svg">
<g clip-path="url(#clip0_641_7309)">
<mask id="mask0_641_7309" style="mask-type:luminance" maskUnits="userSpaceOnUse" x="0" y="0" width="156" height="48">
<path d="M155.144 0H0V48H155.144V0Z" fill="white"/>
</mask>
<g mask="url(#mask0_641_7309)">
<path d="M76.3943 23.1091C76.3943 24.3839 75.3358 25.4173 74.0302 25.4173C72.7245 25.4173 71.666 24.3839 71.666 23.1091C71.666 21.8342 72.7245 20.8008 74.0302 20.8008C75.3358 20.8008 76.3943 21.8342 76.3943 23.1091Z" fill="white"/>
<path d="M1.5 31.4374V15.623H4.962V31.4374H1.5ZM4.14611 25.2326V22.2086H11.9301V25.2326H4.14611ZM4.14611 18.647V15.623H12.2829V18.647H4.14611ZM14.5066 31.4374V15.623H17.9686V31.4374H14.5066ZM17.1748 31.4374V28.3462H24.8705V31.4374H17.1748ZM29.6496 25.5462L23.6518 15.623H27.6651L32.2737 23.6422H29.6937L34.3023 15.623H38.2274L32.1855 25.5462H29.6496ZM29.2306 31.4374V23.9334H32.6927V31.4374H29.2306ZM39.4647 31.4374V15.623H42.9266V31.4374H39.4647ZM42.1107 31.4374V28.391H50.6445V31.4374H42.1107ZM42.1107 24.8294V21.895H49.8727V24.8294H42.1107ZM42.1107 18.647V15.623H50.5342V18.647H42.1107ZM55.6773 24.919V22.3206H58.9629C59.6538 22.3206 60.183 22.1414 60.5506 21.783C60.9328 21.4246 61.1239 20.9393 61.1239 20.327C61.1239 19.7596 60.9401 19.2892 60.5726 18.9158C60.2051 18.5425 59.6758 18.3558 58.985 18.3558H55.6773V15.623H59.3819C60.411 15.623 61.3151 15.8246 62.0942 16.2278C62.8732 16.6161 63.4834 17.1612 63.9243 17.863C64.3654 18.5649 64.5859 19.3713 64.5859 20.2822C64.5859 21.2081 64.3654 22.022 63.9243 22.7238C63.4834 23.4108 62.8659 23.9484 62.0721 24.3366C61.2783 24.7249 60.3448 24.919 59.2716 24.919H55.6773ZM53.0312 31.4374V15.623H56.4931V31.4374H53.0312ZM61.4988 31.4374L56.6476 24.6278L59.8229 23.7542L65.6003 31.4374H61.4988Z" fill="white"/>
<path d="M90.7903 31.6842C89.6283 31.6842 88.5482 31.4826 87.5488 31.0794C86.5635 30.6612 85.6965 30.0788 84.9468 29.3322C84.212 28.5855 83.6387 27.7194 83.2268 26.7338C82.8149 25.7332 82.6094 24.658 82.6094 23.5082C82.6094 22.3583 82.8149 21.2906 83.2268 20.305C83.6387 19.3044 84.212 18.4383 84.9468 17.7066C85.6815 16.9748 86.5415 16.4074 87.5267 16.0042C88.5261 15.586 89.607 15.377 90.7682 15.377C92.0029 15.377 93.0984 15.5786 94.0539 15.9818C95.0245 16.385 95.8692 16.9375 96.5898 17.6394L94.2746 20.0138C93.8625 19.5658 93.3634 19.2148 92.7749 18.961C92.2014 18.7071 91.5331 18.5802 90.7682 18.5802C90.0919 18.5802 89.467 18.6996 88.8935 18.9386C88.3355 19.1626 87.8504 19.4911 87.4385 19.9242C87.0416 20.3572 86.7258 20.8799 86.4903 21.4922C86.2698 22.1044 86.1595 22.7764 86.1595 23.5082C86.1595 24.2548 86.2698 24.9343 86.4903 25.5466C86.7258 26.1588 87.0416 26.6815 87.4385 27.1146C87.8504 27.5476 88.3355 27.8836 88.8935 28.1226C89.467 28.3615 90.0919 28.481 90.7682 28.481C91.5624 28.481 92.2528 28.354 92.8414 28.1002C93.429 27.8463 93.936 27.4954 94.3624 27.0474L96.6997 29.4218C95.9499 30.1236 95.0901 30.6762 94.1204 31.0794C93.1649 31.4826 92.0543 31.6842 90.7903 31.6842ZM98.6063 31.4378V15.6234H102.068V31.4378H98.6063ZM101.275 31.4378V28.3466H108.971V31.4378H101.275ZM116.691 31.6842C115.412 31.6842 114.28 31.4079 113.295 30.8554C112.325 30.3028 111.56 29.5412 111.001 28.5706C110.458 27.585 110.186 26.465 110.186 25.2106V15.6234H113.67V25.4122C113.67 26.0394 113.802 26.5844 114.066 27.0474C114.331 27.5103 114.692 27.8687 115.147 28.1226C115.618 28.3615 116.132 28.481 116.691 28.481C117.279 28.481 117.793 28.3615 118.234 28.1226C118.675 27.8687 119.021 27.5178 119.271 27.0698C119.535 26.6068 119.667 26.0618 119.667 25.4346V15.6234H123.151V25.233C123.151 26.4874 122.88 27.5999 122.336 28.5706C121.793 29.5412 121.035 30.3028 120.064 30.8554C119.095 31.4079 117.97 31.6842 116.691 31.6842ZM128.558 31.4378V28.705H132.218C132.894 28.705 133.424 28.5034 133.806 28.1002C134.188 27.697 134.38 27.2042 134.38 26.6218C134.38 26.2186 134.291 25.8602 134.115 25.5466C133.939 25.233 133.688 24.9866 133.365 24.8074C133.057 24.6282 132.674 24.5386 132.218 24.5386H128.558V21.873H131.932C132.505 21.873 132.968 21.7311 133.321 21.4474C133.673 21.1487 133.85 20.7007 133.85 20.1034C133.85 19.521 133.673 19.0879 133.321 18.8042C132.968 18.5055 132.505 18.3562 131.932 18.3562H128.558V15.6234H132.593C133.593 15.6234 134.438 15.81 135.129 16.1834C135.834 16.5567 136.372 17.057 136.739 17.6842C137.106 18.3114 137.29 19.0058 137.29 19.7674C137.29 20.738 136.981 21.5594 136.364 22.2314C135.747 22.9034 134.835 23.3663 133.63 23.6202L133.718 22.433C135.026 22.6868 136.033 23.202 136.739 23.9786C137.459 24.7551 137.819 25.7108 137.819 26.8458C137.819 27.7119 137.606 28.4959 137.18 29.1978C136.768 29.8847 136.166 30.4298 135.372 30.833C134.592 31.2362 133.652 31.4378 132.55 31.4378H128.558ZM125.912 31.4378V15.6234H129.329V31.4378H125.912Z" fill="white"/>
<path d="M123.224 1.85316C125.498 0.558757 128.083 1.24636 129.85 2.05101L135.119 4.44972L144.18 0L149.576 0.226362L142.094 7.63267L146.862 9.84436L151.823 8.0008L155.145 9.51316L152.143 13.1527C152.461 13.5221 152.748 14.0423 152.487 14.5886C152.146 15.302 151.139 15.6617 149.487 15.6616C149.148 15.6616 148.781 15.6465 148.389 15.6163C146.576 15.4764 144.609 15.0244 143.38 14.4645L124.547 5.89018C122.921 5.14954 122.111 4.37187 122.07 3.51255C122.049 3.06688 122.232 2.41705 123.224 1.85316ZM125.123 4.68511L143.955 13.2596C145.003 13.7364 146.722 14.1361 148.336 14.2776C149.986 14.4221 150.868 14.2406 151.162 14.0865C151.102 14.0055 150.988 13.8784 150.78 13.6992L150.291 13.2788L152.994 10.0009L151.769 9.44329L146.804 11.289L139.779 8.03088L146.451 1.42604L144.475 1.34315L135.142 5.92681L129.275 3.25595C127.133 2.2805 125.327 2.19514 123.91 3.0018C123.552 3.20502 123.427 3.38239 123.431 3.45193C123.431 3.45671 123.472 3.9335 125.123 4.68511Z" fill="white"/>
<path d="M3.6991 42.8745L1.11914 38.9961H1.93187L4.07711 42.2505H3.7369L5.90105 38.9961H6.68543L4.08657 42.8745H3.6991ZM3.55734 45.6009V42.3657H4.25667V45.6009H3.55734Z" fill="white"/>
<path d="M8.28047 45.6962C7.85209 45.6962 7.46147 45.5906 7.10866 45.3794C6.76214 45.1682 6.48493 44.8834 6.27702 44.525C6.07542 44.1666 5.97461 43.7666 5.97461 43.325C5.97461 42.8898 6.07542 42.4962 6.27702 42.1442C6.48493 41.7922 6.76214 41.5138 7.10866 41.309C7.46147 41.0978 7.85209 40.9922 8.28047 40.9922C8.71518 40.9922 9.10581 41.0946 9.45229 41.2994C9.79895 41.5042 10.0729 41.7858 10.2746 42.1442C10.4825 42.4962 10.5865 42.8898 10.5865 43.325C10.5865 43.773 10.4825 44.1762 10.2746 44.5346C10.0729 44.8866 9.79895 45.1682 9.45229 45.3794C9.10581 45.5906 8.71518 45.6962 8.28047 45.6962ZM8.28047 45.0434C8.59556 45.0434 8.8727 44.9698 9.11211 44.8226C9.35781 44.6754 9.55006 44.4706 9.68868 44.2082C9.83361 43.9458 9.90602 43.6514 9.90602 43.325C9.90602 42.9986 9.83361 42.7106 9.68868 42.461C9.55006 42.205 9.35781 42.0034 9.11211 41.8562C8.8727 41.709 8.59556 41.6354 8.28047 41.6354C7.97175 41.6354 7.69458 41.709 7.44887 41.8562C7.20316 42.0034 7.011 42.205 6.8724 42.461C6.73379 42.7106 6.66448 42.9986 6.66448 43.325C6.66448 43.6578 6.73379 43.9554 6.8724 44.2178C7.011 44.4738 7.20316 44.6754 7.44887 44.8226C7.69458 44.9698 7.97175 45.0434 8.28047 45.0434Z" fill="white"/>
<path d="M13.377 45.6959C13.0179 45.6959 12.6966 45.6127 12.4131 45.4463C12.1296 45.2735 11.9059 45.0399 11.7421 44.7455C11.5846 44.4511 11.5059 44.1055 11.5059 43.7087V41.0879H12.1768V43.6799C12.1768 43.9551 12.2241 44.1951 12.3186 44.3999C12.4193 44.6047 12.5612 44.7647 12.7438 44.8799C12.9265 44.9951 13.1376 45.0527 13.377 45.0527C13.7487 45.0527 14.0417 44.9279 14.2559 44.6783C14.4764 44.4287 14.5867 44.0959 14.5867 43.6799V41.0879H15.2482V43.7087C15.2482 44.0991 15.1695 44.4447 15.012 44.7455C14.8545 45.0463 14.6339 45.2799 14.3504 45.4463C14.0669 45.6127 13.7424 45.6959 13.377 45.6959Z" fill="white"/>
<path d="M16.4648 45.6002V41.0882H17.1263V45.6002H16.4648ZM17.1263 42.9698L16.8523 42.845C16.8523 42.2754 16.9877 41.8242 17.2587 41.4914C17.5358 41.1586 17.9139 40.9922 18.3927 40.9922C18.6132 40.9922 18.8149 41.0338 18.9975 41.117C19.1802 41.1938 19.3503 41.3186 19.5078 41.4914L19.0731 41.9618C18.966 41.8402 18.8463 41.7538 18.714 41.7026C18.588 41.6514 18.4431 41.6258 18.2793 41.6258C17.939 41.6258 17.6619 41.741 17.4476 41.9714C17.2334 42.1954 17.1263 42.5282 17.1263 42.9698Z" fill="white"/>
<path d="M23.0582 45.6004V39.1875H23.7198V45.6004H23.0582ZM21.9336 41.6931V41.0884H24.8349V41.6931H21.9336Z" fill="white"/>
<path d="M25.7285 45.5999V41.0879H26.39V45.5999H25.7285ZM26.39 42.9695L26.1159 42.8447C26.1159 42.2751 26.2514 41.8239 26.5223 41.4911C26.7995 41.1583 27.1775 40.9919 27.6564 40.9919C27.8769 40.9919 28.0784 41.0335 28.2612 41.1167C28.4439 41.1935 28.614 41.3183 28.7715 41.4911L28.3368 41.9615C28.2297 41.8399 28.11 41.7535 27.9777 41.7023C27.8517 41.6511 27.7068 41.6255 27.543 41.6255C27.2027 41.6255 26.9256 41.7407 26.7113 41.9711C26.4971 42.1951 26.39 42.5279 26.39 42.9695Z" fill="white"/>
<path d="M31.215 45.6959C30.8558 45.6959 30.5345 45.6127 30.2509 45.4463C29.9675 45.2735 29.7438 45.0399 29.58 44.7455C29.4225 44.4511 29.3438 44.1055 29.3438 43.7087V41.0879H30.0147V43.6799C30.0147 43.9551 30.062 44.1951 30.1565 44.3999C30.2572 44.6047 30.3991 44.7647 30.5817 44.8799C30.7644 44.9951 30.9755 45.0527 31.215 45.0527C31.5866 45.0527 31.8796 44.9279 32.0938 44.6783C32.3143 44.4287 32.4246 44.0959 32.4246 43.6799V41.0879H33.0861V43.7087C33.0861 44.0991 33.0074 44.4447 32.8499 44.7455C32.6923 45.0463 32.4718 45.2799 32.1884 45.4463C31.9048 45.6127 31.5803 45.6959 31.215 45.6959Z" fill="white"/>
<path d="M35.662 45.6962C35.4226 45.6962 35.1927 45.6642 34.9722 45.6002C34.7517 45.5298 34.5501 45.4338 34.3673 45.3122C34.1909 45.1906 34.0366 45.0466 33.9043 44.8802L34.3296 44.4386C34.506 44.6562 34.7044 44.8194 34.9249 44.9282C35.1518 45.0306 35.4038 45.0818 35.6809 45.0818C35.9771 45.0818 36.2071 45.0242 36.3709 44.909C36.541 44.7938 36.626 44.6338 36.626 44.429C36.626 44.237 36.5661 44.0866 36.4465 43.9778C36.3267 43.869 36.1724 43.7826 35.9834 43.7186C35.8007 43.6546 35.6054 43.5938 35.3975 43.5362C35.1895 43.4722 34.9911 43.3954 34.8021 43.3058C34.613 43.2098 34.4587 43.0786 34.339 42.9122C34.2256 42.7458 34.1689 42.5282 34.1689 42.2594C34.1689 42.0034 34.2288 41.7826 34.3485 41.597C34.4745 41.405 34.6509 41.2578 34.8777 41.1554C35.1108 41.0466 35.3849 40.9922 35.6999 40.9922C36.0338 40.9922 36.3362 41.053 36.6071 41.1746C36.878 41.2962 37.0954 41.4754 37.2592 41.7122L36.8339 42.1442C36.7016 41.9714 36.5347 41.8402 36.333 41.7506C36.1378 41.6546 35.9172 41.6066 35.6715 41.6066C35.388 41.6066 35.1706 41.6642 35.0194 41.7794C34.8745 41.8882 34.8021 42.0322 34.8021 42.2114C34.8021 42.3842 34.8619 42.5218 34.9817 42.6242C35.1013 42.7202 35.2525 42.8002 35.4352 42.8642C35.6243 42.9218 35.8227 42.9826 36.0306 43.0466C36.2385 43.1042 36.437 43.1842 36.626 43.2866C36.815 43.3826 36.9662 43.517 37.0796 43.6898C37.1994 43.8562 37.2592 44.0834 37.2592 44.3714C37.2592 44.7746 37.1143 45.0978 36.8244 45.341C36.541 45.5778 36.1534 45.6962 35.662 45.6962Z" fill="white"/>
<path d="M38.9781 45.6004V39.1875H39.6396V45.6004H38.9781ZM37.8535 41.6931V41.0884H40.7548V41.6931H37.8535Z" fill="white"/>
<path d="M43.541 45.6962C43.0936 45.6962 42.6935 45.5938 42.3408 45.389C41.9879 45.1842 41.7075 44.9026 41.4997 44.5442C41.298 44.1858 41.1973 43.7826 41.1973 43.3346C41.1973 42.893 41.298 42.4962 41.4997 42.1442C41.7013 41.7858 41.9753 41.5042 42.3219 41.2994C42.6684 41.0946 43.0558 40.9922 43.4843 40.9922C43.8875 40.9922 44.2434 41.085 44.5522 41.2706C44.8672 41.4562 45.1129 41.7154 45.2893 42.0482C45.472 42.3746 45.5633 42.7522 45.5633 43.181C45.5633 43.2322 45.5602 43.293 45.5539 43.3634C45.5476 43.4274 45.535 43.5042 45.5161 43.5938H41.6698V43.0178H45.157L44.9207 43.229C44.927 42.8962 44.8703 42.6114 44.7506 42.3746C44.6372 42.1314 44.4703 41.9458 44.2497 41.8178C44.0355 41.6834 43.7741 41.6162 43.4654 41.6162C43.1441 41.6162 42.8636 41.6866 42.6242 41.8274C42.3848 41.9682 42.1958 42.1666 42.0572 42.4226C41.925 42.6722 41.8588 42.9698 41.8588 43.3154C41.8588 43.661 41.9281 43.965 42.0667 44.2274C42.2116 44.4898 42.4101 44.6946 42.6621 44.8418C42.9204 44.989 43.2165 45.0626 43.5504 45.0626C43.8213 45.0626 44.0701 45.0146 44.297 44.9186C44.5238 44.8162 44.716 44.6658 44.8735 44.4674L45.2987 44.909C45.0908 45.1586 44.8325 45.3538 44.5238 45.4946C44.2214 45.629 43.8938 45.6962 43.541 45.6962Z" fill="white"/>
<path d="M48.4471 45.6955C48.0375 45.6955 47.6689 45.5931 47.3413 45.3883C47.0137 45.1835 46.7522 44.9051 46.557 44.5531C46.3679 44.1947 46.2734 43.7947 46.2734 43.3531C46.2734 42.9051 46.3679 42.5051 46.557 42.1531C46.7522 41.7947 47.0137 41.5131 47.3413 41.3083C47.6689 41.0971 48.0375 40.9915 48.4471 40.9915C48.781 40.9915 49.0834 41.0587 49.3543 41.1931C49.6252 41.3275 49.8489 41.5195 50.0252 41.7691C50.2079 42.0123 50.3151 42.3003 50.3465 42.6331V44.0443C50.3088 44.3707 50.2016 44.6587 50.0252 44.9083C49.8551 45.1515 49.6346 45.3435 49.3637 45.4843C49.0928 45.6251 48.7873 45.6955 48.4471 45.6955ZM48.5604 45.0523C48.8692 45.0523 49.14 44.9819 49.3731 44.8411C49.6063 44.6939 49.789 44.4923 49.9213 44.2363C50.0536 43.9739 50.1197 43.6763 50.1197 43.3435C50.1197 43.0043 50.0504 42.7067 49.9119 42.4507C49.7795 42.1947 49.5969 41.9931 49.3637 41.8459C49.1306 41.6987 48.8597 41.6251 48.5509 41.6251C48.2422 41.6251 47.9683 41.6987 47.7288 41.8459C47.4894 41.9931 47.3004 42.1979 47.1617 42.4603C47.0295 42.7163 46.9633 43.0107 46.9633 43.3435C46.9633 43.6763 47.0295 43.9739 47.1617 44.2363C47.3004 44.4923 47.4894 44.6939 47.7288 44.8411C47.9745 44.9819 48.2517 45.0523 48.5604 45.0523ZM50.7435 45.5995H50.082V44.3899L50.2143 43.2763L50.082 42.1915V38.8027H50.7435V45.5995Z" fill="white"/>
<path d="M54.0781 45.5995V38.8027H54.7397V45.5995H54.0781Z" fill="white"/>
<path d="M57.8185 45.6959C57.4594 45.6959 57.1381 45.6127 56.8545 45.4463C56.571 45.2735 56.3474 45.0399 56.1836 44.7455C56.0261 44.4511 55.9473 44.1055 55.9473 43.7087V41.0879H56.6182V43.6799C56.6182 43.9551 56.6656 44.1951 56.7601 44.3999C56.8608 44.6047 57.0026 44.7647 57.1853 44.8799C57.368 44.9951 57.5791 45.0527 57.8185 45.0527C58.1902 45.0527 58.4832 44.9279 58.6974 44.6783C58.9179 44.4287 59.0282 44.0959 59.0282 43.6799V41.0879H59.6897V43.7087C59.6897 44.0991 59.6109 44.4447 59.4534 44.7455C59.2959 45.0463 59.0754 45.2799 58.7919 45.4463C58.5083 45.6127 58.1839 45.6959 57.8185 45.6959Z" fill="white"/>
<path d="M63.9286 45.5999L62.4449 43.5455L62.3031 43.4303L60.517 41.0879H61.3392L62.719 42.9311L62.8513 43.0463L64.7413 45.5999H63.9286ZM60.4414 45.5999L62.3126 43.1231L62.6812 43.6223L61.2258 45.5999H60.4414ZM62.8985 43.4207L62.5206 42.9311L63.8814 41.0879H64.6657L62.8985 43.4207Z" fill="white"/>
<path d="M67.3595 45.6959C67.0003 45.6959 66.679 45.6127 66.3955 45.4463C66.112 45.2735 65.8883 45.0399 65.7245 44.7455C65.567 44.4511 65.4883 44.1055 65.4883 43.7087V41.0879H66.1593V43.6799C66.1593 43.9551 66.2065 44.1951 66.301 44.3999C66.4018 44.6047 66.5436 44.7647 66.7263 44.8799C66.9089 44.9951 67.12 45.0527 67.3595 45.0527C67.7311 45.0527 68.0242 44.9279 68.2383 44.6783C68.4588 44.4287 68.5691 44.0959 68.5691 43.6799V41.0879H69.2306V43.7087C69.2306 44.0991 69.1519 44.4447 68.9944 44.7455C68.8369 45.0463 68.6163 45.2799 68.3328 45.4463C68.0493 45.6127 67.7248 45.6959 67.3595 45.6959Z" fill="white"/>
<path d="M70.4473 45.5999V41.0879H71.1089V45.5999H70.4473ZM71.1089 42.9695L70.8348 42.8447C70.8348 42.2751 70.9702 41.8239 71.2411 41.4911C71.5183 41.1583 71.8964 40.9919 72.3752 40.9919C72.5957 40.9919 72.7973 41.0335 72.98 41.1167C73.1627 41.1935 73.3328 41.3183 73.4903 41.4911L73.0556 41.9615C72.9485 41.8399 72.8288 41.7535 72.6965 41.7023C72.5705 41.6511 72.4255 41.6255 72.2617 41.6255C71.9216 41.6255 71.6443 41.7407 71.4302 41.9711C71.2159 42.1951 71.1089 42.5279 71.1089 42.9695Z" fill="white"/>
<path d="M75.5562 45.6191L73.6094 41.0879H74.3371L75.9059 44.8703H75.6318L77.2856 41.0879H78.0228L75.9342 45.6191H75.5562ZM74.3466 47.5007L75.5656 44.9375L75.9342 45.6191L75.0742 47.5007H74.3466Z" fill="white"/>
<path d="M81.5737 45.6004V39.1875H82.2353V45.6004H81.5737ZM80.4492 41.6931V41.0884H83.3505V41.6931H80.4492Z" fill="white"/>
<path d="M84.2422 45.6002V41.0882H84.9037V45.6002H84.2422ZM84.9037 42.9698L84.6296 42.845C84.6296 42.2754 84.7651 41.8242 85.036 41.4914C85.3132 41.1586 85.6912 40.9922 86.17 40.9922C86.3906 40.9922 86.5922 41.0338 86.7749 41.117C86.9576 41.1938 87.1277 41.3186 87.2852 41.4914L86.8505 41.9618C86.7434 41.8402 86.6237 41.7538 86.4913 41.7026C86.3654 41.6514 86.2205 41.6258 86.0567 41.6258C85.7165 41.6258 85.4392 41.741 85.225 41.9714C85.0108 42.1954 84.9037 42.5282 84.9037 42.9698Z" fill="white"/>
<path d="M89.7423 45.6962C89.3204 45.6962 88.9428 45.5938 88.6085 45.389C88.2746 45.1778 88.0101 44.8962 87.8147 44.5442C87.6257 44.1922 87.5312 43.7954 87.5312 43.3538C87.5312 42.9058 87.6257 42.5058 87.8147 42.1538C88.0101 41.7954 88.2746 41.5138 88.6085 41.309C88.9428 41.0978 89.3177 40.9922 89.7334 40.9922C90.0738 40.9922 90.376 41.0626 90.6402 41.2034C90.9114 41.3378 91.1286 41.5298 91.2925 41.7794C91.4627 42.0226 91.5664 42.3074 91.6045 42.6338V44.045C91.5664 44.3714 91.4627 44.6594 91.2925 44.909C91.1286 45.1586 90.9114 45.3538 90.6402 45.4946C90.376 45.629 90.0764 45.6962 89.7423 45.6962ZM89.8469 45.053C90.3069 45.053 90.6747 44.8962 90.9522 44.5826C91.2358 44.269 91.3776 43.8562 91.3776 43.3442C91.3776 43.005 91.3111 42.7074 91.1791 42.4514C91.0532 42.189 90.8733 41.9874 90.6402 41.8466C90.4133 41.6994 90.1456 41.6258 89.8371 41.6258C89.5225 41.6258 89.2415 41.6994 88.996 41.8466C88.7566 41.9938 88.5645 42.1986 88.4196 42.461C88.2809 42.717 88.2116 43.0114 88.2116 43.3442C88.2116 43.677 88.2809 43.9714 88.4196 44.2274C88.5645 44.4834 88.7602 44.685 89.0057 44.8322C89.2512 44.9794 89.5313 45.053 89.8469 45.053ZM91.3395 45.6002V44.3906L91.4725 43.277L91.3395 42.1922V41.0882H92.0016V45.6002H91.3395Z" fill="white"/>
<path d="M94.8714 45.5999L92.8203 41.0879H93.5578L95.2871 45.0335H94.8714L96.6104 41.0879H97.3284L95.2587 45.5999H94.8714Z" fill="white"/>
<path d="M99.9959 45.6962C99.5492 45.6962 99.1485 45.5938 98.7958 45.389C98.443 45.1842 98.1629 44.9026 97.9546 44.5442C97.7534 44.1858 97.6523 43.7826 97.6523 43.3346C97.6523 42.893 97.7534 42.4962 97.9546 42.1442C98.1567 41.7858 98.4306 41.5042 98.7771 41.2994C99.1237 41.0946 99.511 40.9922 99.9392 40.9922C100.342 40.9922 100.699 41.085 101.007 41.2706C101.323 41.4562 101.568 41.7154 101.745 42.0482C101.927 42.3746 102.019 42.7522 102.019 43.181C102.019 43.2322 102.015 43.293 102.009 43.3634C102.003 43.4274 101.99 43.5042 101.972 43.5938H98.1248V43.0178H101.612L101.376 43.229C101.382 42.8962 101.325 42.6114 101.206 42.3746C101.092 42.1314 100.926 41.9458 100.705 41.8178C100.49 41.6834 100.229 41.6162 99.9206 41.6162C99.5988 41.6162 99.3187 41.6866 99.0794 41.8274C98.8401 41.9682 98.6513 42.1666 98.5121 42.4226C98.38 42.6722 98.3136 42.9698 98.3136 43.3154C98.3136 43.661 98.3836 43.965 98.5219 44.2274C98.6672 44.4898 98.8649 44.6946 99.1175 44.8418C99.3754 44.989 99.6715 45.0626 100.006 45.0626C100.277 45.0626 100.525 45.0146 100.752 44.9186C100.979 44.8162 101.171 44.6658 101.329 44.4674L101.754 44.909C101.546 45.1586 101.287 45.3538 100.979 45.4946C100.677 45.629 100.349 45.6962 99.9959 45.6962Z" fill="white"/>
<path d="M103.012 45.5995V38.8027H103.673V45.5995H103.012Z" fill="white"/>
<path d="M108.936 45.6962C108.514 45.6962 108.136 45.5938 107.802 45.389C107.468 45.1778 107.203 44.8962 107.008 44.5442C106.819 44.1922 106.725 43.7954 106.725 43.3538C106.725 42.9058 106.819 42.5058 107.008 42.1538C107.203 41.7954 107.468 41.5138 107.802 41.309C108.136 41.0978 108.511 40.9922 108.926 40.9922C109.267 40.9922 109.569 41.0626 109.834 41.2034C110.104 41.3378 110.322 41.5298 110.485 41.7794C110.656 42.0226 110.76 42.3074 110.797 42.6338V44.045C110.76 44.3714 110.656 44.6594 110.485 44.909C110.322 45.1586 110.104 45.3538 109.834 45.4946C109.569 45.629 109.27 45.6962 108.936 45.6962ZM109.04 45.053C109.5 45.053 109.869 44.8962 110.146 44.5826C110.43 44.269 110.571 43.8562 110.571 43.3442C110.571 43.005 110.505 42.7074 110.373 42.4514C110.246 42.189 110.067 41.9874 109.834 41.8466C109.607 41.6994 109.339 41.6258 109.031 41.6258C108.715 41.6258 108.435 41.6994 108.19 41.8466C107.95 41.9938 107.758 42.1986 107.613 42.461C107.474 42.717 107.405 43.0114 107.405 43.3442C107.405 43.677 107.474 43.9714 107.613 44.2274C107.758 44.4834 107.953 44.685 108.199 44.8322C108.444 44.9794 108.725 45.053 109.04 45.053ZM110.533 45.6002V44.3906L110.665 43.277L110.533 42.1922V41.0882H111.195V45.6002H110.533Z" fill="white"/>
<path d="M112.516 45.5995V38.8027H113.177V45.5995H112.516Z" fill="white"/>
<path d="M114.5 45.5995V38.8027H115.161V45.5995H114.5Z" fill="white"/>
<path d="M116.484 45.6V41.088H117.155V45.6H116.484ZM116.814 40.1088C116.688 40.1088 116.581 40.064 116.493 39.9744C116.405 39.8784 116.361 39.7664 116.361 39.6384C116.361 39.504 116.405 39.392 116.493 39.3024C116.581 39.2128 116.688 39.168 116.814 39.168C116.953 39.168 117.063 39.2128 117.145 39.3024C117.233 39.392 117.278 39.504 117.278 39.6384C117.278 39.7664 117.233 39.8784 117.145 39.9744C117.063 40.064 116.953 40.1088 116.814 40.1088Z" fill="white"/>
<path d="M120.405 45.6962C119.983 45.6962 119.604 45.5938 119.271 45.389C118.937 45.1778 118.672 44.8962 118.477 44.5442C118.288 44.1922 118.193 43.7954 118.193 43.3538C118.193 42.9058 118.288 42.5058 118.477 42.1538C118.672 41.7954 118.937 41.5138 119.271 41.309C119.604 41.0978 119.979 40.9922 120.395 40.9922C120.735 40.9922 121.038 41.0626 121.303 41.2034C121.574 41.3378 121.791 41.5298 121.955 41.7794C122.125 42.0226 122.229 42.3074 122.267 42.6338V44.045C122.229 44.3714 122.125 44.6594 121.955 44.909C121.791 45.1586 121.574 45.3538 121.303 45.4946C121.038 45.629 120.739 45.6962 120.405 45.6962ZM120.509 45.053C120.969 45.053 121.337 44.8962 121.615 44.5826C121.898 44.269 122.04 43.8562 122.04 43.3442C122.04 43.005 121.974 42.7074 121.842 42.4514C121.716 42.189 121.536 41.9874 121.303 41.8466C121.076 41.6994 120.808 41.6258 120.5 41.6258C120.184 41.6258 119.904 41.6994 119.659 41.8466C119.419 41.9938 119.227 42.1986 119.082 42.461C118.943 42.717 118.874 43.0114 118.874 43.3442C118.874 43.677 118.943 43.9714 119.082 44.2274C119.227 44.4834 119.422 44.685 119.667 44.8322C119.914 44.9794 120.194 45.053 120.509 45.053ZM122.002 45.6002V44.3906L122.134 43.277L122.002 42.1922V41.0882H122.663V45.6002H122.002Z" fill="white"/>
<path d="M127.218 45.6002V42.9506C127.218 42.5538 127.102 42.2338 126.869 41.9906C126.642 41.741 126.34 41.6162 125.961 41.6162C125.703 41.6162 125.476 41.6738 125.281 41.789C125.085 41.9042 124.931 42.061 124.818 42.2594C124.704 42.4578 124.648 42.685 124.648 42.941L124.345 42.7682C124.345 42.429 124.424 42.125 124.582 41.8562C124.739 41.5874 124.95 41.3762 125.215 41.2226C125.486 41.069 125.795 40.9922 126.141 40.9922C126.481 40.9922 126.784 41.0754 127.048 41.2418C127.313 41.4082 127.518 41.6322 127.662 41.9138C127.814 42.1954 127.889 42.5026 127.889 42.8354V45.6002H127.218ZM123.986 45.6002V41.0882H124.648V45.6002H123.986Z" fill="white"/>
<path d="M131.132 45.6962C130.697 45.6962 130.304 45.5938 129.951 45.389C129.604 45.1778 129.327 44.893 129.12 44.5346C128.917 44.1762 128.816 43.7762 128.816 43.3346C128.816 42.893 128.917 42.4962 129.12 42.1442C129.327 41.7858 129.604 41.5042 129.951 41.2994C130.304 41.0946 130.697 40.9922 131.132 40.9922C131.466 40.9922 131.778 41.0562 132.068 41.1842C132.357 41.3122 132.603 41.4914 132.805 41.7218L132.37 42.173C132.219 42.0002 132.037 41.869 131.822 41.7794C131.608 41.6834 131.378 41.6354 131.132 41.6354C130.817 41.6354 130.537 41.709 130.291 41.8562C130.045 42.0034 129.853 42.205 129.714 42.461C129.576 42.7106 129.507 43.0018 129.507 43.3346C129.507 43.661 129.576 43.9554 129.714 44.2178C129.853 44.4738 130.045 44.6754 130.291 44.8226C130.537 44.9698 130.817 45.0434 131.132 45.0434C131.384 45.0434 131.617 44.9986 131.832 44.909C132.045 44.813 132.228 44.6786 132.38 44.5058L132.824 44.957C132.615 45.1938 132.364 45.3762 132.068 45.5042C131.778 45.6322 131.466 45.6962 131.132 45.6962Z" fill="white"/>
<path d="M135.7 45.6962C135.252 45.6962 134.853 45.5938 134.5 45.389C134.146 45.1842 133.866 44.9026 133.659 44.5442C133.457 44.1858 133.355 43.7826 133.355 43.3346C133.355 42.893 133.457 42.4962 133.659 42.1442C133.86 41.7858 134.134 41.5042 134.48 41.2994C134.827 41.0946 135.214 40.9922 135.643 40.9922C136.046 40.9922 136.402 41.085 136.71 41.2706C137.026 41.4562 137.271 41.7154 137.448 42.0482C137.63 42.3746 137.722 42.7522 137.722 43.181C137.722 43.2322 137.719 43.293 137.713 43.3634C137.706 43.4274 137.693 43.5042 137.675 43.5938H133.829V43.0178H137.316L137.079 43.229C137.085 42.8962 137.029 42.6114 136.909 42.3746C136.795 42.1314 136.629 41.9458 136.408 41.8178C136.194 41.6834 135.933 41.6162 135.624 41.6162C135.303 41.6162 135.022 41.6866 134.783 41.8274C134.543 41.9682 134.354 42.1666 134.216 42.4226C134.083 42.6722 134.018 42.9698 134.018 43.3154C134.018 43.661 134.087 43.965 134.225 44.2274C134.37 44.4898 134.569 44.6946 134.821 44.8418C135.079 44.989 135.375 45.0626 135.709 45.0626C135.98 45.0626 136.229 45.0146 136.456 44.9186C136.682 44.8162 136.874 44.6658 137.032 44.4674L137.458 44.909C137.249 45.1586 136.991 45.3538 136.682 45.4946C136.38 45.629 136.053 45.6962 135.7 45.6962Z" fill="white"/>
</g>
</g>
<defs>
<clipPath id="clip0_641_7309">
<rect width="156" height="48" fill="white"/>
</clipPath>
</defs>
</svg>
