<svg width="32" height="32" viewBox="0 0 32 32" fill="none" xmlns="http://www.w3.org/2000/svg">
<g id="linkedin">
<path id="Vector" d="M29.279 18.2918V28.1305H23.575V18.9505C23.575 16.6438 22.7497 15.0705 20.6857 15.0705C19.1097 15.0705 18.171 16.1318 17.759 17.1572C17.6083 17.5238 17.5697 18.0345 17.5697 18.5478V28.1305H11.863C11.863 28.1305 11.9403 12.5838 11.863 10.9718H17.5697V13.4038L17.5323 13.4598H17.5697V13.4038C18.327 12.2372 19.6803 10.5692 22.711 10.5692C26.4643 10.5692 29.279 13.0225 29.279 18.2918ZM5.89499 2.70117C3.94433 2.70117 2.66699 3.98117 2.66699 5.66517C2.66699 7.31184 3.90699 8.63051 5.82033 8.63051H5.85766C7.84833 8.63051 9.08433 7.31184 9.08433 5.66517C9.04966 3.98117 7.84833 2.70117 5.89499 2.70117ZM3.00566 28.1305H8.70966V10.9718H3.00566V28.1305Z" fill="url(#paint0_linear_166_3986)"/>
</g>
<defs>
<linearGradient id="paint0_linear_166_3986" x1="21.5001" y1="2.70117" x2="13.221" y2="29.0662" gradientUnits="userSpaceOnUse">
<stop offset="0.03125" stop-color="#279AFF"/>
<stop offset="0.796875" stop-color="#006DD2"/>
<stop offset="1" stop-color="#0A549A"/>
</linearGradient>
</defs>
</svg>
