<svg width="176" height="54" viewBox="0 0 176 54" fill="none" xmlns="http://www.w3.org/2000/svg">
<g clip-path="url(#clip0_1513_15608)">
<path d="M86.188 25.9968C86.188 27.4309 84.9938 28.5935 83.5208 28.5935C82.0477 28.5935 80.8535 27.4309 80.8535 25.9968C80.8535 24.5625 82.0477 23.3999 83.5208 23.3999C84.9938 23.3999 86.188 24.5625 86.188 25.9968Z" fill="#00091C"/>
<path d="M1.69165 35.3671V17.5759H5.5975V35.3671H1.69165ZM4.67701 28.3867V24.9847H13.4589V28.3867H4.67701ZM4.67701 20.9779V17.5759H13.857V20.9779H4.67701ZM16.3658 35.3671V17.5759H20.2716V35.3671H16.3658ZM19.376 35.3671V31.8895H28.0584V35.3671H19.376ZM33.4502 28.7395L26.6834 17.5759H31.2112L36.4107 26.5975H33.4999L38.6994 17.5759H43.1277L36.3112 28.7395H33.4502ZM32.9775 35.3671V26.9251H36.8834V35.3671H32.9775ZM44.5236 35.3671V17.5759H48.4294V35.3671H44.5236ZM47.5089 35.3671V31.9399H57.1367V35.3671H47.5089ZM47.5089 27.9331V24.6319H56.266V27.9331H47.5089ZM47.5089 20.9779V17.5759H57.0123V20.9779H47.5089ZM62.8148 28.0339V25.1107H66.5216C67.3011 25.1107 67.8981 24.9091 68.3128 24.5059C68.744 24.1027 68.9596 23.5567 68.9596 22.8679C68.9596 22.2295 68.7523 21.7003 68.3377 21.2803C67.923 20.8603 67.3259 20.6503 66.5465 20.6503H62.8148V17.5759H66.9943C68.1553 17.5759 69.1753 17.8027 70.0543 18.2563C70.9332 18.6931 71.6216 19.3063 72.1191 20.0959C72.6167 20.8855 72.8655 21.7927 72.8655 22.8175C72.8655 23.8591 72.6167 24.7747 72.1191 25.5643C71.6216 26.3371 70.925 26.9419 70.0294 27.3787C69.1338 27.8155 68.0806 28.0339 66.8699 28.0339H62.8148ZM59.8294 35.3671V17.5759H63.7352V35.3671H59.8294ZM69.3826 35.3671L63.9094 27.7063L67.4918 26.7235L74.0099 35.3671H69.3826Z" fill="url(#paint0_linear_1513_15608)"/>
<path d="M102.43 35.6444C101.119 35.6444 99.9004 35.4176 98.7729 34.964C97.6613 34.4936 96.6831 33.8384 95.8373 32.9984C95.0083 32.1584 94.3615 31.184 93.8968 30.0752C93.4321 28.9496 93.2002 27.74 93.2002 26.4464C93.2002 25.1528 93.4321 23.9516 93.8968 22.8428C94.3615 21.7172 95.0083 20.7428 95.8373 19.9196C96.6662 19.0964 97.6365 18.458 98.748 18.0044C99.8755 17.534 101.095 17.2988 102.405 17.2988C103.798 17.2988 105.034 17.5256 106.112 17.9792C107.207 18.4328 108.16 19.0544 108.973 19.844L106.361 22.5152C105.896 22.0112 105.333 21.6164 104.669 21.3308C104.022 21.0452 103.268 20.9024 102.405 20.9024C101.642 20.9024 100.937 21.0368 100.29 21.3056C99.6605 21.5576 99.1132 21.9272 98.6485 22.4144C98.2007 22.9016 97.8444 23.4896 97.5787 24.1784C97.3299 24.8672 97.2055 25.6232 97.2055 26.4464C97.2055 27.2864 97.3299 28.0508 97.5787 28.7396C97.8444 29.4284 98.2007 30.0164 98.6485 30.5036C99.1132 30.9908 99.6605 31.3688 100.29 31.6376C100.937 31.9064 101.642 32.0408 102.405 32.0408C103.301 32.0408 104.08 31.898 104.744 31.6124C105.407 31.3268 105.979 30.932 106.46 30.428L109.097 33.0992C108.251 33.8888 107.281 34.5104 106.187 34.964C105.109 35.4176 103.856 35.6444 102.43 35.6444ZM111.248 35.3672V17.576H115.154V35.3672H111.248ZM114.259 35.3672V31.8896H122.941V35.3672H114.259ZM131.651 35.6444C130.208 35.6444 128.931 35.3336 127.82 34.712C126.725 34.0904 125.863 33.2336 125.232 32.1416C124.619 31.0328 124.312 29.7728 124.312 28.3616V17.576H128.243V28.5884C128.243 29.294 128.392 29.9072 128.69 30.428C128.989 30.9488 129.396 31.352 129.909 31.6376C130.441 31.9064 131.021 32.0408 131.651 32.0408C132.315 32.0408 132.895 31.9064 133.392 31.6376C133.89 31.352 134.28 30.9572 134.562 30.4532C134.86 29.9324 135.009 29.3192 135.009 28.6136V17.576H138.94V28.3868C138.94 29.798 138.634 31.0496 138.02 32.1416C137.407 33.2336 136.552 34.0904 135.457 34.712C134.363 35.3336 133.094 35.6444 131.651 35.6444ZM145.04 35.3672V32.2928H149.169C149.932 32.2928 150.529 32.066 150.961 31.6124C151.392 31.1588 151.608 30.6044 151.608 29.9492C151.608 29.4956 151.508 29.0924 151.309 28.7396C151.11 28.3868 150.827 28.1096 150.463 27.908C150.115 27.7064 149.683 27.6056 149.169 27.6056H145.04V24.6068H148.846C149.493 24.6068 150.015 24.4472 150.413 24.128C150.811 23.792 151.01 23.288 151.01 22.616C151.01 21.9608 150.811 21.4736 150.413 21.1544C150.015 20.8184 149.493 20.6504 148.846 20.6504H145.04V17.576H149.592C150.72 17.576 151.673 17.786 152.453 18.206C153.249 18.626 153.855 19.1888 154.269 19.8944C154.684 20.6 154.891 21.3812 154.891 22.238C154.891 23.33 154.543 24.254 153.847 25.01C153.15 25.766 152.121 26.2868 150.762 26.5724L150.861 25.2368C152.337 25.5224 153.473 26.102 154.269 26.9756C155.082 27.8492 155.488 28.9244 155.488 30.2012C155.488 31.1756 155.248 32.0576 154.767 32.8472C154.302 33.62 153.623 34.2332 152.727 34.6868C151.847 35.1404 150.787 35.3672 149.543 35.3672H145.04ZM142.054 35.3672V17.576H145.91V35.3672H142.054Z" fill="#00091C"/>
<path d="M139.021 2.08481C141.587 0.628601 144.503 1.40215 146.497 2.30739L152.441 5.00593L162.664 0L168.751 0.254657L160.31 8.58675L165.689 11.0749L171.287 9.0009L175.035 10.7023L171.648 14.7968C172.006 15.2124 172.33 15.7976 172.036 16.4122C171.651 17.2148 170.515 17.6194 168.651 17.6193C168.269 17.6193 167.855 17.6023 167.412 17.5683C165.367 17.4109 163.148 16.9024 161.761 16.2726L140.514 6.62645C138.679 5.79323 137.765 4.91835 137.719 3.95162C137.695 3.45024 137.902 2.71918 139.021 2.08481ZM141.163 5.27075L162.41 14.917C163.592 15.4535 165.532 15.9031 167.353 16.0623C169.214 16.2249 170.209 16.0207 170.541 15.8473C170.473 15.7562 170.345 15.6132 170.11 15.4116L169.558 14.9387L172.608 11.251L171.226 10.6237L165.624 12.7001L157.698 9.03474L165.226 1.60429L162.997 1.51104L152.467 6.66766L145.848 3.66294C143.431 2.56556 141.394 2.46953 139.795 3.37702C139.391 3.60565 139.25 3.80519 139.254 3.88342C139.255 3.8888 139.301 4.42519 141.163 5.27075Z" fill="url(#paint1_linear_1513_15608)"/>
<path d="M4.17244 48.2328L1.26172 43.8696H2.17865L4.59892 47.5308H4.21509L6.65669 43.8696H7.54164L4.60959 48.2328H4.17244ZM4.01251 51.3V47.6604H4.8015V51.3H4.01251Z" fill="#00091C"/>
<path d="M9.34074 51.408C8.85744 51.408 8.41675 51.2892 8.0187 51.0516C7.62776 50.814 7.31501 50.4936 7.08044 50.0904C6.85299 49.6872 6.73926 49.2372 6.73926 48.7404C6.73926 48.2508 6.85299 47.808 7.08044 47.412C7.31501 47.016 7.62776 46.7028 8.0187 46.4724C8.41675 46.2348 8.85744 46.116 9.34074 46.116C9.83119 46.116 10.2719 46.2312 10.6628 46.4616C11.0539 46.692 11.363 47.0088 11.5905 47.412C11.8251 47.808 11.9424 48.2508 11.9424 48.7404C11.9424 49.2444 11.8251 49.698 11.5905 50.1012C11.363 50.4972 11.0539 50.814 10.6628 51.0516C10.2719 51.2892 9.83119 51.408 9.34074 51.408ZM9.34074 50.6736C9.69623 50.6736 10.0089 50.5908 10.279 50.4252C10.5562 50.2596 10.7731 50.0292 10.9295 49.734C11.093 49.4388 11.1747 49.1076 11.1747 48.7404C11.1747 48.3732 11.093 48.0492 10.9295 47.7684C10.7731 47.4804 10.5562 47.2536 10.279 47.088C10.0089 46.9224 9.69623 46.8396 9.34074 46.8396C8.99245 46.8396 8.67974 46.9224 8.40253 47.088C8.12532 47.2536 7.90852 47.4804 7.75215 47.7684C7.59577 48.0492 7.51758 48.3732 7.51758 48.7404C7.51758 49.1148 7.59577 49.4496 7.75215 49.7448C7.90852 50.0328 8.12532 50.2596 8.40253 50.4252C8.67974 50.5908 8.99245 50.6736 9.34074 50.6736Z" fill="#00091C"/>
<path d="M15.0915 51.4079C14.6864 51.4079 14.3239 51.3143 14.004 51.1271C13.6842 50.9327 13.4318 50.6699 13.247 50.3387C13.0693 50.0075 12.9805 49.6187 12.9805 49.1723V46.2239H13.7375V49.1399C13.7375 49.4495 13.7908 49.7195 13.8974 49.9499C14.0111 50.1803 14.1711 50.3603 14.3772 50.4899C14.5833 50.6195 14.8214 50.6843 15.0915 50.6843C15.5109 50.6843 15.8414 50.5439 16.0831 50.2631C16.3319 49.9823 16.4563 49.6079 16.4563 49.1399V46.2239H17.2026V49.1723C17.2026 49.6115 17.1138 50.0003 16.9361 50.3387C16.7584 50.6771 16.5096 50.9399 16.1897 51.1271C15.8699 51.3143 15.5038 51.4079 15.0915 51.4079Z" fill="#00091C"/>
<path d="M18.574 51.3V46.224H19.3203V51.3H18.574ZM19.3203 48.3408L19.0111 48.2004C19.0111 47.5596 19.1639 47.052 19.4696 46.6776C19.7823 46.3032 20.2088 46.116 20.749 46.116C20.9978 46.116 21.2253 46.1628 21.4314 46.2564C21.6375 46.3428 21.8294 46.4832 22.0071 46.6776L21.5167 47.2068C21.3958 47.07 21.2608 46.9728 21.1115 46.9152C20.9694 46.8576 20.8059 46.8288 20.6211 46.8288C20.2372 46.8288 19.9245 46.9584 19.6828 47.2176C19.4411 47.4696 19.3203 47.844 19.3203 48.3408Z" fill="#00091C"/>
<path d="M26.0151 51.2999V44.0854H26.7615V51.2999H26.0151ZM24.7463 46.9042V46.2239H28.0196V46.9042H24.7463Z" fill="#00091C"/>
<path d="M29.0264 51.3V46.224H29.7727V51.3H29.0264ZM29.7727 48.3408L29.4635 48.2004C29.4635 47.5596 29.6163 47.052 29.922 46.6776C30.2347 46.3032 30.6612 46.116 31.2014 46.116C31.4502 46.116 31.6776 46.1628 31.8838 46.2564C32.0899 46.3428 32.2818 46.4832 32.4595 46.6776L31.9691 47.2068C31.8482 47.07 31.7132 46.9728 31.5639 46.9152C31.4218 46.8576 31.2583 46.8288 31.0735 46.8288C30.6896 46.8288 30.3769 46.9584 30.1352 47.2176C29.8935 47.4696 29.7727 47.844 29.7727 48.3408Z" fill="#00091C"/>
<path d="M35.2156 51.4079C34.8104 51.4079 34.4479 51.3143 34.128 51.1271C33.8082 50.9327 33.5558 50.6699 33.371 50.3387C33.1933 50.0075 33.1045 49.6187 33.1045 49.1723V46.2239H33.8615V49.1399C33.8615 49.4495 33.9148 49.7195 34.0214 49.9499C34.1351 50.1803 34.2951 50.3603 34.5012 50.4899C34.7073 50.6195 34.9455 50.6843 35.2156 50.6843C35.6349 50.6843 35.9655 50.5439 36.2071 50.2631C36.4559 49.9823 36.5803 49.6079 36.5803 49.1399V46.2239H37.3266V49.1723C37.3266 49.6115 37.2378 50.0003 37.0601 50.3387C36.8824 50.6771 36.6336 50.9399 36.3138 51.1271C35.9939 51.3143 35.6278 51.4079 35.2156 51.4079Z" fill="#00091C"/>
<path d="M40.2336 51.408C39.9635 51.408 39.7041 51.372 39.4553 51.3C39.2065 51.2208 38.9791 51.1128 38.7729 50.976C38.5739 50.8392 38.3998 50.6772 38.2505 50.49L38.7303 49.9932C38.9293 50.238 39.1532 50.4216 39.402 50.544C39.6579 50.6592 39.9422 50.7168 40.2549 50.7168C40.589 50.7168 40.8485 50.652 41.0333 50.5224C41.2252 50.3928 41.3211 50.2128 41.3211 49.9824C41.3211 49.7664 41.2536 49.5972 41.1186 49.4748C40.9835 49.3524 40.8094 49.2552 40.5961 49.1832C40.39 49.1112 40.1697 49.0428 39.9351 48.978C39.7005 48.906 39.4766 48.8196 39.2634 48.7188C39.0501 48.6108 38.876 48.4632 38.7409 48.276C38.613 48.0888 38.549 47.844 38.549 47.5416C38.549 47.2536 38.6166 47.0052 38.7516 46.7964C38.8938 46.5804 39.0928 46.4148 39.3487 46.2996C39.6117 46.1772 39.9209 46.116 40.2763 46.116C40.653 46.116 40.9942 46.1844 41.2998 46.3212C41.6055 46.458 41.8507 46.6596 42.0355 46.926L41.5557 47.412C41.4064 47.2176 41.2181 47.07 40.9906 46.9692C40.7703 46.8612 40.5215 46.8072 40.2443 46.8072C39.9244 46.8072 39.6792 46.872 39.5086 47.0016C39.3451 47.124 39.2634 47.286 39.2634 47.4876C39.2634 47.682 39.3309 47.8368 39.466 47.952C39.601 48.06 39.7716 48.15 39.9777 48.222C40.191 48.2868 40.4149 48.3552 40.6494 48.4272C40.884 48.492 41.1079 48.582 41.3211 48.6972C41.5344 48.8052 41.705 48.9564 41.8329 49.1508C41.968 49.338 42.0355 49.5936 42.0355 49.9176C42.0355 50.3712 41.872 50.7348 41.545 51.0084C41.2252 51.2748 40.788 51.408 40.2336 51.408Z" fill="#00091C"/>
<path d="M43.9741 51.2999V44.0854H44.7204V51.2999H43.9741ZM42.7053 46.9042V46.2239H45.9786V46.9042H42.7053Z" fill="#00091C"/>
<path d="M49.122 51.408C48.6173 51.408 48.1659 51.2928 47.7679 51.0624C47.3698 50.832 47.0535 50.5152 46.819 50.112C46.5915 49.7088 46.4778 49.2552 46.4778 48.7512C46.4778 48.2544 46.5915 47.808 46.819 47.412C47.0464 47.0088 47.3556 46.692 47.7466 46.4616C48.1375 46.2312 48.5746 46.116 49.058 46.116C49.5129 46.116 49.9145 46.2204 50.2628 46.4292C50.6182 46.638 50.8954 46.9296 51.0944 47.304C51.3006 47.6712 51.4036 48.096 51.4036 48.5784C51.4036 48.636 51.4001 48.7044 51.393 48.7836C51.3859 48.8556 51.3716 48.942 51.3503 49.0428H47.0109V48.3948H50.9452L50.6786 48.6324C50.6857 48.258 50.6217 47.9376 50.4867 47.6712C50.3588 47.3976 50.1704 47.1888 49.9216 47.0448C49.6799 46.8936 49.385 46.818 49.0367 46.818C48.6742 46.818 48.3578 46.8972 48.0877 47.0556C47.8176 47.214 47.6044 47.4372 47.448 47.7252C47.2988 48.006 47.2241 48.3408 47.2241 48.7296C47.2241 49.1184 47.3023 49.4604 47.4587 49.7556C47.6222 50.0508 47.8461 50.2812 48.1304 50.4468C48.4218 50.6124 48.7559 50.6952 49.1326 50.6952C49.4383 50.6952 49.719 50.6412 49.9749 50.5332C50.2308 50.418 50.4476 50.2488 50.6253 50.0256L51.1051 50.5224C50.8705 50.8032 50.5791 51.0228 50.2308 51.1812C49.8896 51.3324 49.52 51.408 49.122 51.408Z" fill="#00091C"/>
<path d="M54.6564 51.408C54.1943 51.408 53.7785 51.2928 53.4089 51.0624C53.0393 50.832 52.7443 50.5188 52.524 50.1228C52.3107 49.7196 52.2041 49.2696 52.2041 48.7728C52.2041 48.2688 52.3107 47.8188 52.524 47.4228C52.7443 47.0196 53.0393 46.7028 53.4089 46.4724C53.7785 46.2348 54.1943 46.116 54.6564 46.116C55.0331 46.116 55.3743 46.1916 55.6799 46.3428C55.9856 46.494 56.2379 46.71 56.4369 46.9908C56.643 47.2644 56.7639 47.5884 56.7994 47.9628V49.5504C56.7568 49.9176 56.6359 50.2416 56.4369 50.5224C56.245 50.796 55.9962 51.012 55.6906 51.1704C55.3849 51.3288 55.0402 51.408 54.6564 51.408ZM54.7843 50.6844C55.1326 50.6844 55.4382 50.6052 55.7012 50.4468C55.9642 50.2812 56.1704 50.0544 56.3196 49.7664C56.4689 49.4712 56.5435 49.1364 56.5435 48.762C56.5435 48.3804 56.4653 48.0456 56.309 47.7576C56.1597 47.4696 55.9536 47.2428 55.6906 47.0772C55.4276 46.9116 55.1219 46.8288 54.7736 46.8288C54.4253 46.8288 54.1162 46.9116 53.846 47.0772C53.5759 47.2428 53.3627 47.4732 53.2063 47.7684C53.0571 48.0564 52.9824 48.3876 52.9824 48.762C52.9824 49.1364 53.0571 49.4712 53.2063 49.7664C53.3627 50.0544 53.5759 50.2812 53.846 50.4468C54.1233 50.6052 54.436 50.6844 54.7843 50.6844ZM57.2472 51.3H56.5009V49.9392L56.6502 48.6864L56.5009 47.466V43.6536H57.2472V51.3Z" fill="#00091C"/>
<path d="M61.0088 51.3V43.6536H61.7552V51.3H61.0088Z" fill="#00091C"/>
<path d="M65.2302 51.4079C64.8251 51.4079 64.4626 51.3143 64.1427 51.1271C63.8228 50.9327 63.5705 50.6699 63.3857 50.3387C63.208 50.0075 63.1191 49.6187 63.1191 49.1723V46.2239H63.8761V49.1399C63.8761 49.4495 63.9295 49.7195 64.0361 49.9499C64.1498 50.1803 64.3097 50.3603 64.5159 50.4899C64.722 50.6195 64.9601 50.6843 65.2302 50.6843C65.6496 50.6843 65.9801 50.5439 66.2218 50.2631C66.4706 49.9823 66.595 49.6079 66.595 49.1399V46.2239H67.3413V49.1723C67.3413 49.6115 67.2524 50.0003 67.0747 50.3387C66.897 50.6771 66.6483 50.9399 66.3284 51.1271C66.0085 51.3143 65.6425 51.4079 65.2302 51.4079Z" fill="#00091C"/>
<path d="M72.1247 51.2999L70.4508 48.9887L70.2908 48.8591L68.2757 46.2239H69.2033L70.76 48.2975L70.9092 48.4271L73.0416 51.2999H72.1247ZM68.1904 51.2999L70.3015 48.5135L70.7173 49.0751L69.0754 51.2999H68.1904ZM70.9625 48.8483L70.5361 48.2975L72.0714 46.2239H72.9563L70.9625 48.8483Z" fill="#00091C"/>
<path d="M75.9954 51.4079C75.5902 51.4079 75.2277 51.3143 74.9078 51.1271C74.588 50.9327 74.3356 50.6699 74.1508 50.3387C73.9731 50.0075 73.8843 49.6187 73.8843 49.1723V46.2239H74.6413V49.1399C74.6413 49.4495 74.6946 49.7195 74.8012 49.9499C74.9149 50.1803 75.0749 50.3603 75.281 50.4899C75.4871 50.6195 75.7252 50.6843 75.9954 50.6843C76.4147 50.6843 76.7453 50.5439 76.9869 50.2631C77.2357 49.9823 77.3601 49.6079 77.3601 49.1399V46.2239H78.1064V49.1723C78.1064 49.6115 78.0176 50.0003 77.8399 50.3387C77.6622 50.6771 77.4134 50.9399 77.0935 51.1271C76.7737 51.3143 76.4076 51.4079 75.9954 51.4079Z" fill="#00091C"/>
<path d="M79.478 51.3V46.224H80.2244V51.3H79.478ZM80.2244 48.3408L79.9152 48.2004C79.9152 47.5596 80.068 47.052 80.3736 46.6776C80.6864 46.3032 81.1129 46.116 81.6531 46.116C81.9019 46.116 82.1293 46.1628 82.3354 46.2564C82.5416 46.3428 82.7335 46.4832 82.9112 46.6776L82.4207 47.2068C82.2999 47.07 82.1649 46.9728 82.0156 46.9152C81.8734 46.8576 81.7099 46.8288 81.5251 46.8288C81.1413 46.8288 80.8285 46.9584 80.5869 47.2176C80.3452 47.4696 80.2244 47.844 80.2244 48.3408Z" fill="#00091C"/>
<path d="M85.2435 51.3215L83.0471 46.2239H83.8681L85.638 50.4791H85.3288L87.1946 46.2239H88.0263L85.67 51.3215H85.2435ZM83.8788 53.4383L85.2541 50.5547L85.67 51.3215L84.6997 53.4383H83.8788Z" fill="#00091C"/>
<path d="M92.0307 51.2999V44.0854H92.7771V51.2999H92.0307ZM90.762 46.9042V46.2239H94.0352V46.9042H90.762Z" fill="#00091C"/>
<path d="M95.042 51.3V46.224H95.7883V51.3H95.042ZM95.7883 48.3408L95.4791 48.2004C95.4791 47.5596 95.632 47.052 95.9376 46.6776C96.2503 46.3032 96.6768 46.116 97.217 46.116C97.4658 46.116 97.6933 46.1628 97.8994 46.2564C98.1055 46.3428 98.2975 46.4832 98.4752 46.6776L97.9847 47.2068C97.8639 47.07 97.7288 46.9728 97.5795 46.9152C97.4374 46.8576 97.2739 46.8288 97.0891 46.8288C96.7053 46.8288 96.3925 46.9584 96.1508 47.2176C95.9092 47.4696 95.7883 47.844 95.7883 48.3408Z" fill="#00091C"/>
<path d="M101.246 51.408C100.77 51.408 100.344 51.2928 99.9669 51.0624C99.5902 50.8248 99.2917 50.508 99.0713 50.112C98.8581 49.716 98.7515 49.2696 98.7515 48.7728C98.7515 48.2688 98.8581 47.8188 99.0713 47.4228C99.2917 47.0196 99.5902 46.7028 99.9669 46.4724C100.344 46.2348 100.767 46.116 101.236 46.116C101.62 46.116 101.961 46.1952 102.259 46.3536C102.565 46.5048 102.81 46.7208 102.995 47.0016C103.187 47.2752 103.304 47.5956 103.347 47.9628V49.5504C103.304 49.9176 103.187 50.2416 102.995 50.5224C102.81 50.8032 102.565 51.0228 102.259 51.1812C101.961 51.3324 101.623 51.408 101.246 51.408ZM101.364 50.6844C101.883 50.6844 102.298 50.508 102.611 50.1552C102.931 49.8024 103.091 49.338 103.091 48.762C103.091 48.3804 103.016 48.0456 102.867 47.7576C102.725 47.4624 102.522 47.2356 102.259 47.0772C102.003 46.9116 101.701 46.8288 101.353 46.8288C100.998 46.8288 100.681 46.9116 100.404 47.0772C100.134 47.2428 99.9172 47.4732 99.7537 47.7684C99.5973 48.0564 99.5191 48.3876 99.5191 48.762C99.5191 49.1364 99.5973 49.4676 99.7537 49.7556C99.9172 50.0436 100.138 50.2704 100.415 50.436C100.692 50.6016 101.008 50.6844 101.364 50.6844ZM103.048 51.3V49.9392L103.198 48.6864L103.048 47.466V46.224H103.795V51.3H103.048Z" fill="#00091C"/>
<path d="M107.035 51.2999L104.721 46.2239H105.553L107.504 50.6627H107.035L108.997 46.2239H109.807L107.472 51.2999H107.035Z" fill="#00091C"/>
<path d="M112.816 51.408C112.312 51.408 111.86 51.2928 111.462 51.0624C111.064 50.832 110.748 50.5152 110.513 50.112C110.286 49.7088 110.172 49.2552 110.172 48.7512C110.172 48.2544 110.286 47.808 110.513 47.412C110.741 47.0088 111.05 46.692 111.441 46.4616C111.832 46.2312 112.269 46.116 112.752 46.116C113.207 46.116 113.609 46.2204 113.957 46.4292C114.313 46.638 114.59 46.9296 114.789 47.304C114.995 47.6712 115.098 48.096 115.098 48.5784C115.098 48.636 115.094 48.7044 115.087 48.7836C115.08 48.8556 115.066 48.942 115.045 49.0428H110.705V48.3948H114.639L114.373 48.6324C114.38 48.258 114.316 47.9376 114.181 47.6712C114.053 47.3976 113.865 47.1888 113.616 47.0448C113.374 46.8936 113.079 46.818 112.731 46.818C112.368 46.818 112.052 46.8972 111.782 47.0556C111.512 47.214 111.299 47.4372 111.142 47.7252C110.993 48.006 110.918 48.3408 110.918 48.7296C110.918 49.1184 110.997 49.4604 111.153 49.7556C111.317 50.0508 111.54 50.2812 111.825 50.4468C112.116 50.6124 112.45 50.6952 112.827 50.6952C113.133 50.6952 113.413 50.6412 113.669 50.5332C113.925 50.418 114.142 50.2488 114.32 50.0256L114.799 50.5224C114.565 50.8032 114.273 51.0228 113.925 51.1812C113.584 51.3324 113.214 51.408 112.816 51.408Z" fill="#00091C"/>
<path d="M116.219 51.3V43.6536H116.965V51.3H116.219Z" fill="#00091C"/>
<path d="M122.901 51.408C122.425 51.408 121.998 51.2928 121.621 51.0624C121.245 50.8248 120.946 50.508 120.726 50.112C120.513 49.716 120.406 49.2696 120.406 48.7728C120.406 48.2688 120.513 47.8188 120.726 47.4228C120.946 47.0196 121.245 46.7028 121.621 46.4724C121.998 46.2348 122.421 46.116 122.89 46.116C123.274 46.116 123.615 46.1952 123.914 46.3536C124.219 46.5048 124.465 46.7208 124.649 47.0016C124.841 47.2752 124.959 47.5956 125.001 47.9628V49.5504C124.959 49.9176 124.841 50.2416 124.649 50.5224C124.465 50.8032 124.219 51.0228 123.914 51.1812C123.615 51.3324 123.278 51.408 122.901 51.408ZM123.018 50.6844C123.537 50.6844 123.953 50.508 124.266 50.1552C124.586 49.8024 124.745 49.338 124.745 48.762C124.745 48.3804 124.671 48.0456 124.522 47.7576C124.379 47.4624 124.177 47.2356 123.914 47.0772C123.658 46.9116 123.356 46.8288 123.008 46.8288C122.652 46.8288 122.336 46.9116 122.059 47.0772C121.789 47.2428 121.572 47.4732 121.408 47.7684C121.252 48.0564 121.174 48.3876 121.174 48.762C121.174 49.1364 121.252 49.4676 121.408 49.7556C121.572 50.0436 121.792 50.2704 122.069 50.436C122.346 50.6016 122.663 50.6844 123.018 50.6844ZM124.703 51.3V49.9392L124.852 48.6864L124.703 47.466V46.224H125.449V51.3H124.703Z" fill="#00091C"/>
<path d="M126.941 51.3V43.6536H127.687V51.3H126.941Z" fill="#00091C"/>
<path d="M129.179 51.3V43.6536H129.925V51.3H129.179Z" fill="#00091C"/>
<path d="M131.417 51.3V46.224H132.174V51.3H131.417ZM131.79 45.1224C131.648 45.1224 131.527 45.072 131.428 44.9712C131.328 44.8632 131.279 44.7372 131.279 44.5932C131.279 44.442 131.328 44.316 131.428 44.2152C131.527 44.1144 131.648 44.064 131.79 44.064C131.947 44.064 132.071 44.1144 132.163 44.2152C132.263 44.316 132.313 44.442 132.313 44.5932C132.313 44.7372 132.263 44.8632 132.163 44.9712C132.071 45.072 131.947 45.1224 131.79 45.1224Z" fill="#00091C"/>
<path d="M135.841 51.408C135.365 51.408 134.938 51.2928 134.562 51.0624C134.185 50.8248 133.886 50.508 133.666 50.112C133.453 49.716 133.346 49.2696 133.346 48.7728C133.346 48.2688 133.453 47.8188 133.666 47.4228C133.886 47.0196 134.185 46.7028 134.562 46.4724C134.938 46.2348 135.361 46.116 135.83 46.116C136.214 46.116 136.555 46.1952 136.854 46.3536C137.16 46.5048 137.405 46.7208 137.59 47.0016C137.782 47.2752 137.899 47.5956 137.942 47.9628V49.5504C137.899 49.9176 137.782 50.2416 137.59 50.5224C137.405 50.8032 137.16 51.0228 136.854 51.1812C136.555 51.3324 136.218 51.408 135.841 51.408ZM135.958 50.6844C136.477 50.6844 136.893 50.508 137.206 50.1552C137.526 49.8024 137.686 49.338 137.686 48.762C137.686 48.3804 137.611 48.0456 137.462 47.7576C137.32 47.4624 137.117 47.2356 136.854 47.0772C136.598 46.9116 136.296 46.8288 135.948 46.8288C135.592 46.8288 135.276 46.9116 134.999 47.0772C134.729 47.2428 134.512 47.4732 134.348 47.7684C134.192 48.0564 134.114 48.3876 134.114 48.762C134.114 49.1364 134.192 49.4676 134.348 49.7556C134.512 50.0436 134.732 50.2704 135.009 50.436C135.287 50.6016 135.603 50.6844 135.958 50.6844ZM137.643 51.3V49.9392L137.792 48.6864L137.643 47.466V46.224H138.389V51.3H137.643Z" fill="#00091C"/>
<path d="M143.528 51.3V48.3192C143.528 47.8728 143.397 47.5128 143.134 47.2392C142.878 46.9584 142.537 46.818 142.11 46.818C141.819 46.818 141.563 46.8828 141.343 47.0124C141.122 47.142 140.948 47.3184 140.82 47.5416C140.692 47.7648 140.628 48.0204 140.628 48.3084L140.287 48.114C140.287 47.7324 140.376 47.3904 140.554 47.088C140.731 46.7856 140.969 46.548 141.268 46.3752C141.574 46.2024 141.922 46.116 142.313 46.116C142.697 46.116 143.038 46.2096 143.336 46.3968C143.635 46.584 143.866 46.836 144.029 47.1528C144.2 47.4696 144.285 47.8152 144.285 48.1896V51.3H143.528ZM139.882 51.3V46.224H140.628V51.3H139.882Z" fill="#00091C"/>
<path d="M147.942 51.408C147.451 51.408 147.007 51.2928 146.609 51.0624C146.218 50.8248 145.905 50.5044 145.671 50.1012C145.443 49.698 145.329 49.248 145.329 48.7512C145.329 48.2544 145.443 47.808 145.671 47.412C145.905 47.0088 146.218 46.692 146.609 46.4616C147.007 46.2312 147.451 46.116 147.942 46.116C148.318 46.116 148.67 46.188 148.997 46.332C149.324 46.476 149.601 46.6776 149.829 46.9368L149.338 47.4444C149.168 47.25 148.962 47.1024 148.72 47.0016C148.478 46.8936 148.219 46.8396 147.942 46.8396C147.586 46.8396 147.27 46.9224 146.993 47.088C146.715 47.2536 146.499 47.4804 146.342 47.7684C146.186 48.0492 146.108 48.3768 146.108 48.7512C146.108 49.1184 146.186 49.4496 146.342 49.7448C146.499 50.0328 146.715 50.2596 146.993 50.4252C147.27 50.5908 147.586 50.6736 147.942 50.6736C148.226 50.6736 148.489 50.6232 148.731 50.5224C148.972 50.4144 149.178 50.2632 149.349 50.0688L149.85 50.5764C149.615 50.8428 149.331 51.048 148.997 51.192C148.67 51.336 148.318 51.408 147.942 51.408Z" fill="#00091C"/>
<path d="M153.096 51.408C152.591 51.408 152.14 51.2928 151.742 51.0624C151.343 50.832 151.027 50.5152 150.793 50.112C150.565 49.7088 150.451 49.2552 150.451 48.7512C150.451 48.2544 150.565 47.808 150.793 47.412C151.02 47.0088 151.329 46.692 151.72 46.4616C152.111 46.2312 152.548 46.116 153.032 46.116C153.487 46.116 153.888 46.2204 154.236 46.4292C154.592 46.638 154.869 46.9296 155.068 47.304C155.274 47.6712 155.377 48.096 155.377 48.5784C155.377 48.636 155.374 48.7044 155.367 48.7836C155.359 48.8556 155.345 48.942 155.324 49.0428H150.985V48.3948H154.919L154.652 48.6324C154.659 48.258 154.595 47.9376 154.46 47.6712C154.332 47.3976 154.144 47.1888 153.895 47.0448C153.654 46.8936 153.359 46.818 153.01 46.818C152.648 46.818 152.331 46.8972 152.061 47.0556C151.791 47.214 151.578 47.4372 151.422 47.7252C151.272 48.006 151.198 48.3408 151.198 48.7296C151.198 49.1184 151.276 49.4604 151.432 49.7556C151.596 50.0508 151.82 50.2812 152.104 50.4468C152.395 50.6124 152.73 50.6952 153.106 50.6952C153.412 50.6952 153.693 50.6412 153.949 50.5332C154.204 50.418 154.421 50.2488 154.599 50.0256L155.079 50.5224C154.844 50.8032 154.553 51.0228 154.204 51.1812C153.863 51.3324 153.494 51.408 153.096 51.408Z" fill="#00091C"/>
</g>
<defs>
<linearGradient id="paint0_linear_1513_15608" x1="52.8707" y1="17.5759" x2="51.243" y2="37.7091" gradientUnits="userSpaceOnUse">
<stop offset="0.03125" stop-color="#279AFF"/>
<stop offset="0.796875" stop-color="#006DD2"/>
<stop offset="1" stop-color="#0A549A"/>
</linearGradient>
<linearGradient id="paint1_linear_1513_15608" x1="164.126" y1="2.71237e-07" x2="161.086" y2="19.5972" gradientUnits="userSpaceOnUse">
<stop offset="0.03125" stop-color="#279AFF"/>
<stop offset="0.796875" stop-color="#006DD2"/>
<stop offset="1" stop-color="#0A549A"/>
</linearGradient>
<clipPath id="clip0_1513_15608">
<rect width="175.034" height="54" fill="white"/>
</clipPath>
</defs>
</svg>
