<svg width="176" height="27" viewBox="0 0 176 27" fill="none" xmlns="http://www.w3.org/2000/svg">
<g opacity="0.8">
<path d="M91.2693 9.08579H91.2258L89.0304 15.0117H93.4697L91.2693 9.08579ZM95.199 19.6804L94.1235 16.7695H88.3752L87.2983 19.6804H84.8445L89.9932 6.72352H92.7282L97.7976 19.6804H95.199ZM116.026 6.20435H118.427V8.3704H116.026V6.20435ZM116.053 9.81104H118.398V19.6804H116.053V9.81104ZM98.7319 6.20337H101.133V8.3704H98.7319V6.20337ZM98.7597 9.81104H101.105V19.6804H98.7597V9.81104ZM113.493 6.21613H111.146V19.6804H113.493V6.21613ZM106.015 14.8675V19.6804H103.661V12.3471C103.661 11.6425 103.578 10.3008 103.549 9.81305H105.444C105.648 9.81305 105.707 9.89551 105.713 10.0879C105.717 10.3793 105.733 11.3108 105.733 11.3108H105.787C105.972 10.8838 106.64 9.60595 108.587 9.60595C109.241 9.60595 109.724 9.80715 109.804 9.83767C109.804 10.2626 109.757 11.1949 109.733 11.4413C109.718 11.6032 109.644 11.6562 109.56 11.6562C109.48 11.6562 109.443 11.6385 109.399 11.6219C109.253 11.5629 108.912 11.4638 108.438 11.4638C107.186 11.4638 106.015 12.3265 106.015 14.8675ZM127.379 19.6804V13.307C127.379 12.09 126.798 11.3481 125.707 11.3481C124.263 11.3481 123.306 12.8143 123.306 14.7929V19.6804H120.958V12.4305C120.958 11.6327 120.882 10.4697 120.843 9.81305H122.728C122.941 9.81305 123.002 9.89648 123.004 10.0791C123.01 10.29 123.028 11.3108 123.028 11.3108H123.082C123.364 10.8465 124.088 9.60498 126.25 9.60498C128.479 9.60498 129.726 11.0605 129.726 12.6945V19.6804H127.379ZM133.873 13.7319H138.214C138.304 12.1411 137.428 11.2499 136.109 11.2499C134.728 11.2499 133.935 12.2038 133.873 13.7319ZM139.661 17.5134C139.791 17.5134 139.829 17.6223 139.839 17.7342C139.88 18.1552 139.918 19.1072 139.911 19.3496C139.661 19.4262 138.399 19.8688 136.705 19.8688C133.415 19.8688 131.435 18.2435 131.435 14.7447C131.435 11.7406 133.123 9.60595 136.158 9.60595C139.136 9.60595 140.552 11.508 140.552 13.8693C140.552 14.1471 140.522 14.6161 140.47 15.2394H133.843C133.843 16.9245 134.968 18.1337 137.045 18.1337C138.191 18.1337 139.101 17.7421 139.463 17.5752C139.535 17.5419 139.578 17.5134 139.661 17.5134ZM145.157 19.8688C148.21 19.8688 149.672 18.6764 149.672 16.9039C149.672 15.1589 148.373 14.4249 146.999 13.991C146.603 13.8693 146.217 13.7457 145.856 13.6298C144.914 13.3325 144.426 12.9418 144.426 12.3589C144.426 11.7435 145.014 11.3127 146.236 11.3127C147.32 11.3127 148.208 11.7356 148.559 11.8976C148.618 11.9232 148.67 11.9594 148.764 11.9594C148.839 11.9594 148.929 11.9153 148.943 11.7406C148.966 11.4099 149.006 10.8102 149.006 10.2342C148.722 10.1095 147.694 9.60595 146.043 9.60595C143.519 9.60595 141.968 10.8593 141.968 12.513C141.968 14.1166 143.117 14.8488 144.38 15.2482C144.671 15.3424 145.21 15.5113 145.526 15.6134C146.845 16.0314 147.221 16.4112 147.221 17.0001C147.221 17.7686 146.364 18.1484 144.889 18.1484C143.679 18.1484 142.847 17.7243 142.514 17.5752C142.446 17.5468 142.406 17.5134 142.312 17.5134C142.138 17.5134 142.135 17.7342 142.133 17.7706C142.125 17.8765 142.07 18.8991 142.07 19.2397C142.347 19.3536 143.546 19.8688 145.157 19.8688ZM6.85434 9.08579H6.81117L4.61445 15.0117H9.05103L6.85434 9.08579ZM10.7831 19.6804L9.70686 16.7695H3.95863L2.88237 19.6804H0.429688L5.57867 6.72255H8.31092L13.3807 19.6804H10.7831ZM49.1245 6.20337H51.5237V8.36936H49.1245V6.20337ZM49.1522 9.81104H51.496V19.6804H49.1522V9.81104ZM44.1154 14.8675V19.6804H41.7665V12.3471C41.7665 11.6415 41.6822 10.2999 41.6513 9.81104H43.5469C43.7514 9.81104 43.812 9.89551 43.813 10.0869C43.8192 10.3775 43.8378 11.3108 43.8378 11.3108H43.8902C44.0762 10.8838 44.7413 9.60595 46.6913 9.60595C47.342 9.60595 47.8294 9.80625 47.9094 9.83663C47.9094 10.2616 47.8611 11.194 47.8386 11.4413C47.8231 11.6022 47.7481 11.6542 47.6648 11.6542C47.5857 11.6542 47.5456 11.6385 47.5024 11.6219C47.3543 11.562 47.0141 11.4629 46.5444 11.4629C45.2913 11.4629 44.1154 12.3265 44.1154 14.8675ZM26.7873 19.6804V13.3659C26.7873 12.2284 26.2835 11.3461 25.0675 11.3461C23.6983 11.3461 22.9088 12.777 22.9088 14.7811V19.6804H20.5641V13.3462C20.5641 12.3118 20.1117 11.3461 18.8536 11.3461C17.4647 11.3461 16.6877 12.7741 16.6877 14.8517V19.6804H14.3378V12.4924C14.3378 11.564 14.2515 10.2508 14.2236 9.81104H16.1018C16.3135 9.81104 16.3834 9.8779 16.3875 10.0869C16.3926 10.349 16.4092 11.3108 16.4092 11.3108H16.4625C16.6054 11.029 17.3774 9.60498 19.532 9.60498C21.5396 9.60498 22.3074 10.9799 22.4977 11.404C22.6827 11.031 23.5739 9.60498 25.5959 9.60498C27.699 9.60498 29.1341 10.6826 29.1341 12.8477V19.6804H26.7873ZM33.2777 13.73H37.6208C37.7102 12.142 36.8385 11.2489 35.5155 11.2489C34.1339 11.2489 33.3435 12.2038 33.2777 13.73ZM39.0691 17.5134C39.1976 17.5134 39.2366 17.6223 39.2469 17.7342C39.287 18.1552 39.3251 19.1082 39.3189 19.3496C39.0691 19.4262 37.8078 19.8688 36.1138 19.8688C32.8223 19.8688 30.8425 18.2417 30.8425 14.7428C30.8425 11.7426 32.5294 9.60595 35.5669 9.60595C38.5429 9.60595 39.9623 11.507 39.9623 13.8693C39.9623 14.1471 39.9295 14.6161 39.8771 15.2375H33.2499C33.2499 16.9245 34.3756 18.1337 36.451 18.1337C37.597 18.1337 38.5099 17.7421 38.8707 17.5733C38.9427 17.5399 38.9838 17.5134 39.0691 17.5134ZM68.5012 14.6731H68.1024C65.1543 14.6731 64.5745 15.6516 64.5745 16.6458C64.5745 17.4584 65.1357 18.2279 66.2377 18.2279C67.7014 18.2279 68.5012 16.8784 68.5012 15.4583V14.6731ZM69.0666 19.6804C68.8775 19.6804 68.7202 19.6206 68.6996 19.3584C68.677 19.0365 68.6308 18.4133 68.6308 18.4133H68.5989C68.4601 18.595 67.6049 19.8688 65.4575 19.8688C63.4006 19.8688 62.2205 18.3555 62.2205 16.6939C62.2205 14.3905 64.5632 13.2333 68.0387 13.2333H68.5012V12.8712C68.5012 11.8378 67.7313 11.2842 66.2922 11.2842C64.997 11.2842 63.9217 11.718 63.5034 11.9212C63.4756 11.934 63.3996 11.9762 63.3297 11.9762C63.2186 11.9762 63.156 11.9103 63.1498 11.7936C63.1313 11.4227 63.0912 10.7091 63.085 10.2567C63.5085 10.1026 64.9127 9.60498 66.4577 9.60498C69.5292 9.60498 70.848 10.9663 70.848 13.1401V16.9883C70.848 18.3918 70.9848 19.3104 71.033 19.6804H69.0666ZM60.9572 17.5134C61.0188 17.5134 61.1062 17.5527 61.1268 17.7254C61.172 18.1955 61.1905 18.9649 61.1925 19.2063C60.7239 19.4271 59.7083 19.8688 58.4623 19.8688C55.3313 19.8688 53.4111 18.1337 53.4111 14.7389C53.4111 11.5581 55.1184 9.60595 58.4623 9.60595C59.5714 9.60595 60.5923 9.97506 61.1925 10.2695C61.1925 10.6208 61.1566 11.4167 61.1268 11.7514C61.1124 11.8917 61.0415 11.9594 60.9572 11.9594C60.8636 11.9594 60.8317 11.9359 60.7762 11.9123C60.0207 11.5591 59.3104 11.3883 58.671 11.3883C56.6778 11.3883 55.8576 12.6337 55.8576 14.7389C55.8576 16.6154 56.5133 18.0866 58.671 18.0866C59.4954 18.0866 60.2469 17.8059 60.7125 17.5919C60.8379 17.536 60.8595 17.5134 60.9572 17.5134ZM79.3011 19.6804V13.307C79.3011 12.0891 78.7188 11.347 77.6296 11.347C76.1851 11.347 75.2252 12.8123 75.2252 14.7929V19.6804H72.8806V12.4305C72.8806 11.6327 72.8042 10.4697 72.7671 9.81104H74.6492C74.864 9.81104 74.9261 9.89648 74.9268 10.0791C74.9318 10.2881 74.9497 11.3108 74.9497 11.3108H75.001C75.2865 10.8456 76.0081 9.60401 78.1713 9.60401C80.4038 9.60401 81.65 11.0605 81.65 12.6927V19.6804H79.3011Z" fill="#0A74D7"/>
<path d="M160.026 19.5238L163.145 24.5234C164.112 26.0218 165.705 26.7018 167.689 26.7018H175.714L166.319 15.7206L164.987 14.9885L161.47 16.0956L159.688 18.5833L160.026 19.5238Z" fill="#0A74D7"/>
<path d="M166.699 15.2392L164.775 13.0363L159.688 15.6199L160.228 18.2277L160.523 18.8929C160.406 17.1255 163.621 15.0734 166.699 15.2392Z" fill="#0A74D7"/>
<path d="M159.916 18.8928L157.114 14.5603C156.777 14.0689 156.684 13.6388 156.684 13.1378C156.684 12.5866 156.936 12.2845 157.9 11.806C159.025 11.3027 161.286 11.0839 163.618 11.0839C167.409 11.0839 168.316 12.2215 168.703 13.4491C168.703 13.4491 168.168 13.2502 166.91 13.2502C162.916 13.2502 159.726 15.0629 159.726 17.8075C159.726 18.3835 159.916 18.8928 159.916 18.8928Z" fill="#0A74D7"/>
<path d="M148.67 0.346802H152.356C153.91 0.346802 154.547 0.988827 155.176 1.61874C155.896 2.27931 158.079 5.26215 162.693 11.084H157.698C155.657 11.084 155.011 10.7326 154.221 9.51649L148.67 0.346802Z" fill="#0A74D7"/>
</g>
</svg>
