<svg width="125" height="28" viewBox="0 0 125 28" fill="none" xmlns="http://www.w3.org/2000/svg">
<g opacity="0.8">
<path d="M19.174 11.3147C19.0699 11.3147 18.9823 11.3174 18.9331 11.3228C18.8756 11.427 18.7907 11.5666 18.6647 11.7611C20.6256 11.7611 22.4058 11.9227 24.375 12.2759L23.819 12.8128C22.0416 12.4978 20.5654 12.3719 18.6839 12.3719C18.41 12.3719 18.3524 12.3719 18.2868 12.3745C18.2209 12.4731 18.073 12.6649 17.9252 12.8429C18.0923 12.832 18.4154 12.8265 18.8618 12.8265C20.4092 12.8265 21.8553 12.9415 23.4246 13.1935L22.8686 13.733C21.6745 13.5468 20.2148 13.44 18.9056 13.44C18.4401 13.44 17.9115 13.4564 17.4377 13.4838C17.3309 13.607 17.0515 13.9083 16.9667 14.0014C17.5938 13.9357 18.2839 13.9056 19.1056 13.9056C20.2751 13.9056 21.3925 13.9823 22.4496 14.1384L21.8936 14.6724C21.1404 14.5792 20.2257 14.5245 19.4178 14.5245C17.3336 14.5245 15.6903 14.9764 13.9924 16.0144C15.6109 17.7508 18.2621 18.8491 20.8311 18.8491H21.072L20.1737 19.7174C16.4682 19.0216 12.5682 17.392 9.27345 15.1599C6.10472 13.0209 4.99554 12.3884 2.52246 11.2955L2.50603 10.6601L4.1794 11.3777L4.74907 10.9257L10.2128 13.429L9.85682 13.7138L7.05236 12.495L6.77572 12.7114L8.23279 13.5249C9.46252 14.2096 10.3991 14.5162 11.2645 14.5162C13.157 14.5162 14.8551 13.1743 15.9506 10.8162C16.775 10.7093 17.654 10.6601 18.7113 10.6601C20.8802 10.6601 22.9863 10.8682 25.3719 11.3147L24.7912 11.8761C23.3068 11.5666 20.7844 11.3147 19.174 11.3147ZM13.8636 26.912C6.75562 26.912 0.989773 21.146 0.989773 14.0381C0.989773 6.93002 6.75562 1.16409 13.8636 1.16409C20.9716 1.16409 26.7374 6.93002 26.7374 14.0381C26.7374 21.146 20.9716 26.912 13.8636 26.912ZM13.8636 0.342407C6.28999 0.342407 0.167969 6.46434 0.167969 14.0381C0.167969 21.6118 6.28999 27.7337 13.8636 27.7337C21.4372 27.7337 27.5593 21.6118 27.5593 14.0381C27.5593 6.46434 21.4372 0.342407 13.8636 0.342407Z" fill="#0A74D7"/>
<path d="M37.0273 18.3724H43.309V21.332H33.6465V6.63925H37.0273V18.3724ZM50.9056 10.7532H54.0568V21.332H51.0934V20.1146C50.6552 20.9331 49.7578 21.6468 48.109 21.6468C45.417 21.6468 44.0187 20.4294 44.0187 16.9451V10.7532H47.17V16.7981C47.17 18.2045 47.7752 18.8341 49.0483 18.8341C50.196 18.8341 50.9056 18.2045 50.9056 16.7981V10.7532ZM56.4777 10.3545C56.4777 7.7938 58.0849 6.42938 60.61 6.42938C61.424 6.42938 61.9457 6.55534 61.9457 6.55534V9.11598C61.9457 9.11598 61.5075 9.07421 61.1316 9.07421C60.1508 9.07421 59.629 9.41002 59.629 10.3335V10.7532H61.9457V13.335H59.629V21.332H56.4777V13.335H54.8917V10.7532H56.4777V10.3545ZM67.4967 10.7532H69.8969V13.335H67.4967V17.4488C67.4967 18.5824 68.0811 18.8763 68.9992 18.8763C69.3751 18.8763 69.8969 18.8133 69.8969 18.8133V21.3529C69.8969 21.3529 69.1663 21.5208 68.3941 21.5208C65.869 21.5208 64.3455 20.3665 64.3455 17.8058V13.335H62.7593V10.7532H64.3455V7.6678H67.4967V10.7532ZM76.8735 10.4384C79.5448 10.4384 80.9431 11.6558 80.9431 15.14V21.332H77.7918V15.2869C77.7918 13.8807 77.1864 13.2511 75.8723 13.2511C74.6822 13.2511 73.9728 13.8807 73.9728 15.2869V21.332H70.8214V6.6603H73.994V11.7817C74.5363 11.005 75.3923 10.4384 76.8735 10.4384ZM88.9784 17.2179C88.9784 18.3724 87.893 19.233 86.2235 19.233C85.4093 19.233 84.9293 18.8552 84.9293 18.1415C84.9293 17.5959 85.2634 17.1341 86.3276 16.9872L88.1429 16.7353C88.4559 16.6932 88.7901 16.6304 88.9784 16.5673V17.2179ZM87.2253 10.4385C84.1157 10.4385 82.6126 11.635 82.488 13.8807H85.5552C85.5969 13.2929 85.9311 12.8522 87.2253 12.8522C88.373 12.8522 88.9154 13.2301 88.9154 13.7967C88.9154 14.3006 88.6024 14.4894 87.83 14.5734L85.827 14.7832C83.1139 15.077 81.8827 16.2105 81.8827 18.2676C81.8827 20.1776 83.0509 21.6468 85.5346 21.6468C87.2253 21.6468 88.2265 21.101 89.103 20.0095V21.332H91.9832V14.3845C91.9832 11.467 90.2932 10.4385 87.2253 10.4385ZM99.27 10.4384C102.004 10.4384 103.402 11.6558 103.402 15.14V21.332H100.251V15.2869C100.251 13.8807 99.6459 13.2511 98.3311 13.2511C97.141 13.2511 96.4315 13.8807 96.4315 15.2869V21.332H93.2809V10.7533H96.2439V11.9707C96.6822 11.152 97.5799 10.4384 99.27 10.4384ZM110.05 14.6992C112.722 15.0562 114.057 15.8957 114.057 18.0996C114.057 20.3244 112.492 21.6468 109.173 21.6468C105.563 21.6468 104.29 20.1987 104.228 18.0785H107.337C107.421 18.8552 107.963 19.233 109.173 19.233C110.405 19.233 110.906 18.9391 110.906 18.3515C110.906 17.8058 110.489 17.5539 109.403 17.4071L108.297 17.26C105.98 16.9452 104.645 16.0427 104.645 13.9436C104.645 11.9287 106.127 10.4384 109.236 10.4384C112.116 10.4384 113.661 11.5928 113.807 13.8807H110.739C110.634 13.2721 110.3 12.8943 109.236 12.8943C108.192 12.8943 107.796 13.2511 107.796 13.7129C107.796 14.1746 108.047 14.4264 108.944 14.5525L110.05 14.6992ZM121.945 17.2181C121.945 18.3725 120.86 19.233 119.19 19.233C118.377 19.233 117.896 18.8552 117.896 18.1415C117.896 17.5959 118.23 17.1341 119.294 16.9872L121.11 16.7353C121.423 16.6934 121.758 16.6304 121.945 16.5673V17.2181ZM120.192 10.4385C117.083 10.4385 115.581 11.635 115.455 13.8807H118.523C118.564 13.2929 118.899 12.8524 120.192 12.8524C121.34 12.8524 121.883 13.2301 121.883 13.7968C121.883 14.3006 121.57 14.4894 120.797 14.5734L118.794 14.7832C116.081 15.0771 114.849 16.2105 114.849 18.2676C114.849 20.1776 116.018 21.6468 118.502 21.6468C120.192 21.6468 121.195 21.101 122.07 20.0095V21.332H124.951V14.3845C124.951 11.467 123.26 10.4385 120.192 10.4385Z" fill="#0A74D7"/>
</g>
</svg>
