<svg width="99" height="26" viewBox="0 0 99 26" fill="none" xmlns="http://www.w3.org/2000/svg">
<g opacity="0.8">
<mask id="mask0_2003_5885" style="mask-type:luminance" maskUnits="userSpaceOnUse" x="0" y="0" width="99" height="26">
<g opacity="0.8">
<path d="M98.0912 0.320496H0.275391V25.9615H98.0912V0.320496Z" fill="white"/>
</g>
</mask>
<g mask="url(#mask0_2003_5885)">
<path d="M92.7442 11.7164V7.33068H88.2262V11.7164H85.7461V1.27014H88.2262V5.4321H92.7442V1.27014H95.2429V11.7164H92.7442Z" fill="#0A74D7"/>
<path d="M41.1113 1.27014V7.72452C41.1113 8.43747 41.2154 9.05458 41.4202 9.55689C41.6232 10.0549 41.9185 10.4683 42.2965 10.7868C42.6788 11.1079 43.1395 11.3453 43.6668 11.4912C44.2009 11.6405 44.8042 11.7164 45.4604 11.7164C46.1156 11.7164 46.7138 11.6405 47.2377 11.4912C47.7522 11.3453 48.1916 11.1096 48.544 10.7903C48.8964 10.4718 49.1729 10.0584 49.3657 9.55952C49.5594 9.05888 49.6583 8.44176 49.6583 7.72452V1.27014H47.4544V7.65548C47.4544 8.30625 47.2949 8.83106 46.98 9.21683C46.6584 9.60958 46.1472 9.80811 45.4604 9.80811C44.7854 9.80811 44.2778 9.61042 43.951 9.21772C43.63 8.83362 43.4663 8.30798 43.4663 7.65548V1.27014H41.1113Z" fill="#0A74D7"/>
<path d="M34.2752 11.7164V3.22018H31.6152V1.27014H39.2125V2.20497C39.2125 2.7655 38.7856 3.22018 38.2612 3.22018H36.537V11.7164H34.2752Z" fill="#0A74D7"/>
<path d="M72.4512 1.27014H75.2999V11.7164H72.4512V1.27014Z" fill="#0A74D7"/>
<path d="M65.2143 6.84548L65.2913 6.94869L68.1791 10.9202C68.5458 11.4262 69.1002 11.7164 69.7002 11.7164H71.5002L67.3637 6.1L67.3028 6.01785L67.3637 5.93478L70.765 1.27014H68.4124L65.2932 5.76962L65.2143 5.87796L65.2137 5.69008V1.27014H62.9531V11.7103H65.2137V7.0317L65.2143 6.84548Z" fill="#0A74D7"/>
<path d="M59.5068 11.7164C58.8152 11.7164 58.1633 11.3368 57.8065 10.7254L55.9913 7.62388H54.8397V11.7164H52.5078V1.27014H56.666C57.7347 1.27014 58.5708 1.55967 59.1525 2.12822C59.7334 2.69589 60.0267 3.47351 60.0267 4.43916C60.0267 4.92985 59.9008 5.42665 59.6514 5.9156C59.4062 6.39668 58.9699 6.79029 58.3561 7.08593L58.2208 7.15061L61.0549 11.7164H59.5068ZM54.8397 6.05206H56.2009C56.6904 6.05206 57.0633 5.91295 57.3102 5.63917C57.5529 5.3689 57.6763 5.01641 57.6763 4.59307C57.6763 4.16009 57.5563 3.80321 57.3195 3.53207C57.0785 3.25654 56.7023 3.11747 56.2009 3.11747H54.8397V6.05206Z" fill="#0A74D7"/>
<path d="M77.1992 11.1446V9.19901C77.9287 9.54221 78.8691 9.88548 79.8428 9.88548C80.9608 9.88548 81.5287 9.49298 81.5287 8.74099C81.5287 7.85824 80.7659 7.76055 79.2422 7.09016C78.2044 6.61606 77.2152 5.88026 77.2152 4.17927C77.2152 2.2013 78.6909 1.27014 80.7338 1.27014C81.8204 1.27014 82.7441 1.53095 83.2633 1.72721V3.62361C82.7441 3.37806 81.8204 3.08413 80.896 3.08413C79.8909 3.08413 79.4204 3.46051 79.4204 4.11388C79.4204 4.80124 79.989 5.01365 81.0095 5.40618C82.3229 6.07655 83.8473 6.37052 83.8473 8.65946C83.8473 10.6375 82.3063 11.7164 80.2473 11.7164C78.9826 11.7164 77.9774 11.4879 77.1992 11.1446Z" fill="#0A74D7"/>
<path d="M80.9961 25.9614V15.5151H87.6435V16.4622C87.6435 17.0158 87.1858 17.4653 86.6249 17.4653H83.4487V19.712H87.0147V21.4558H83.4487V24.0121H87.6435V25.9614H80.9961Z" fill="#0A74D7"/>
<path d="M57.2559 25.9614V15.5151H58.3221C58.9448 15.5151 59.4505 16.0721 59.4505 16.756V24.0803H62.9539V25.9614H57.2559Z" fill="#0A74D7"/>
<path d="M43.0098 25.9614V15.5151H45.8587L45.8577 25.9614H43.0098Z" fill="#0A74D7"/>
<path d="M54.7589 25.9614C54.0682 25.9614 53.4155 25.5817 53.0587 24.9704L51.2437 21.8688H50.0922V25.9614H47.7598V15.5151H51.9184C52.9869 15.5151 53.823 15.8037 54.4046 16.3732C54.9846 16.9408 55.2787 17.7184 55.2787 18.6832C55.2787 19.1739 55.1528 19.6708 54.9035 20.1605C54.6574 20.6408 54.222 21.0353 53.6091 21.33L53.473 21.3956L56.3067 25.9614H54.7589ZM50.0922 20.297H51.4525C51.9428 20.297 52.3157 20.158 52.5625 19.8841C52.8051 19.6139 52.9286 19.2614 52.9286 18.838C52.9286 18.405 52.8085 18.0482 52.5709 17.777C52.3309 17.5015 51.9546 17.3624 51.4525 17.3624H50.0922V20.297Z" fill="#0A74D7"/>
<path d="M37.2877 15.5151H34.5516L30.6641 25.9614H32.3799C32.8159 25.9614 33.2008 25.679 33.3371 25.261L33.7368 24.0358H37.9177L38.5296 25.9614H41.1104L37.2877 15.5151ZM34.3444 22.1558L35.2791 19.5157C35.4872 18.9211 35.696 18.295 35.8341 17.8333H35.8687C35.9904 18.3116 36.1984 18.9054 36.4055 19.5157L37.3075 22.1558H34.3444Z" fill="#0A74D7"/>
<path d="M89.543 25.3896V23.4439C90.2731 23.7872 91.2135 24.1305 92.1859 24.1305C93.3045 24.1305 93.8718 23.7379 93.8718 22.986C93.8718 22.1031 93.1096 22.0054 91.5859 21.3351C90.5481 20.861 89.5596 20.1251 89.5596 18.4251C89.5596 16.4463 91.0346 15.5151 93.0769 15.5151C94.1635 15.5151 95.0878 15.7759 95.6071 15.9722V17.8685C95.0878 17.6239 94.1635 17.329 93.2398 17.329C92.234 17.329 91.7641 17.7054 91.7641 18.3588C91.7641 19.0453 92.3321 19.2586 93.3532 19.6511C94.6667 20.3215 96.1904 20.6155 96.1904 22.9044C96.1904 24.8833 94.65 25.9614 92.5911 25.9614C91.3263 25.9614 90.3212 25.7329 89.543 25.3896Z" fill="#0A74D7"/>
<path d="M69.6016 15.5151H71.1439C71.8772 15.5151 72.5573 15.8824 72.9452 16.4858L75.9496 21.1655C76.29 21.6858 76.6843 22.3723 76.9163 22.8585H76.9702C76.9343 22.3898 76.9163 21.7356 76.9163 21.266V15.5151H79.0977V25.9614H76.3682L72.7131 20.3101C72.3734 19.7907 72.0163 19.1707 71.765 18.701H71.7291C71.7471 19.1532 71.7823 19.6901 71.7823 20.193V25.9614H69.6016V15.5151Z" fill="#0A74D7"/>
<path d="M64.8535 15.5151H67.7029V25.9614H64.8535V15.5151Z" fill="#0A74D7"/>
<path d="M14.4371 0.391106C20.8862 1.06275 25.9147 6.51074 25.9164 13.1364C25.9198 20.2167 20.1818 25.959 13.1005 25.9615C6.0201 25.964 0.277913 20.226 0.275391 13.1456C0.27371 6.0652 6.01169 0.323017 13.0921 0.320496C13.5452 0.320496 13.9941 0.344873 14.4371 0.391106ZM15.0986 25.0662C21.6856 23.96 26.1273 17.7244 25.0203 11.1391C24.0999 5.65834 19.6312 1.66378 14.3614 1.11151C13.2973 1.00055 12.1985 1.03081 11.0907 1.21574C9.77675 1.43599 8.552 1.86301 7.43649 2.45479C13.2418 4.42433 16.3637 7.41689 16.5798 10.4843C16.6857 12.3782 15.8064 13.7475 14.6489 14.8638L22.8583 14.2905C23.0911 14.2745 23.1634 14.5444 22.8827 14.6251L3.30242 20.2394C5.29549 22.9849 8.39059 24.8106 11.8278 25.1705C12.892 25.2822 13.9907 25.2537 15.0986 25.0662ZM9.712 13.4221C10.7855 9.38727 9.56072 5.15902 6.6304 2.9188C2.63918 5.44483 0.338438 10.1959 1.1698 15.1455C1.44383 16.7812 2.0373 18.2842 2.87202 19.6023C5.99235 18.7332 8.73611 17.0889 9.712 13.4221Z" fill="#0A74D7"/>
</g>
</g>
</svg>
