<svg width="156" height="27" viewBox="0 0 156 27" fill="none" xmlns="http://www.w3.org/2000/svg">
<path d="M8.29044 7L0 19.2275H1.49727L3.54908 16.2487H8.45678L8.67861 17.6388C8.83724 18.7396 9.11785 19.2275 10.37 19.2275H11.6177L9.62134 7H8.29044ZM15.4995 7.99295L13.0318 19.2275H15.6936L18.1613 7.99295H15.4995ZM20.2686 7.99295L20.7954 8.95754L18.5495 19.2275H21.2113L23.4295 9.01428H24.2613C25.793 9.01428 26.4318 9.92667 26.3132 11.2839C26.2144 12.4993 25.3372 13.8315 22.6532 14.1209L24.8159 18.0076C25.3726 18.9972 25.6178 19.2275 27.0895 19.2275H28.5036L25.5368 14.4613C27.1272 14.2117 28.8596 13.1903 29.0582 11.369C29.2966 9.27983 27.8281 7.99295 25.3427 7.99295H20.2686ZM36.4059 7.99295L37.099 9.29798L34.9363 19.2275H36.3227L38.1527 10.9718L42.284 18.0076C42.7388 18.8008 43.1458 19.2275 44.419 19.2275L46.8868 7.99295H45.5004L43.7813 15.7664L40.0381 9.18451C39.4991 8.23354 39.2229 7.99295 38.0695 7.99295H36.4059ZM49.3544 7.99295L46.8868 19.2275H55.3713C55.2127 18.4536 54.8755 18.1495 53.9018 18.1495H49.8259L50.7408 14.0074H54.9276L55.1772 12.8727H50.9627L51.7945 9.07102H55.6763C56.65 9.07102 56.9861 8.76576 57.1458 7.99295H49.3544ZM58.1163 7.99295L59.8076 19.2275H61.083L64.8815 12.5322L65.7967 19.2275H67.0722L73.6713 7.99295H72.2569L67.6821 15.8515L66.7951 8.47525C66.7559 8.12913 66.469 7.99295 66.1295 7.99295H64.2997L64.66 10.6598L61.7761 15.8515L60.6952 8.47525C60.6542 8.12913 60.3677 7.99295 60.0294 7.99295H58.1163ZM79.3277 7.99295C79.4861 8.7669 79.8214 9.07102 80.7971 9.07102H85.7329L77.9133 17.1282C77.2379 17.8283 76.7889 18.28 76.7491 19.2275H86.8971C86.7386 18.4593 86.4138 18.1529 85.4551 18.1495H85.4276H80.2979L87.8398 10.2058C88.7929 9.16181 89.0077 8.62958 89.0878 7.99295H79.3277ZM91.1396 7.99295L88.6993 19.2275H97.1564C96.9942 18.4536 96.6602 18.1495 95.6869 18.1495H91.6107L92.5259 14.0074H96.7128L96.9624 12.8727H92.7474L93.5794 9.07102H97.461C98.4362 9.07102 98.772 8.7669 98.9305 7.99295H91.1396ZM105.252 7.99295L97.822 19.2275H99.319L101.288 16.2487H105.752L106.029 17.6388C106.27 18.7271 106.522 19.2275 107.776 19.2275H109.051L106.584 7.99295H105.252ZM112.933 7.99295L110.465 19.2275H117.841C117.682 18.4548 117.317 18.1495 116.344 18.1495H113.377L115.595 7.99295H112.933ZM125.909 7.99295L118.506 19.2275H119.976L121.944 16.2487H126.409L126.713 17.6388C126.951 18.7271 127.207 19.2275 128.46 19.2275H129.736L127.241 7.99295H125.909ZM132.619 7.99295L133.34 9.29798L131.15 19.2275H132.564L134.366 10.9718L138.498 18.0076C138.958 18.8008 139.386 19.2275 140.66 19.2275L143.101 7.99295H141.714L140.023 15.7664L136.252 9.18451C135.716 8.23354 135.436 7.99295 134.283 7.99295H132.619ZM145.235 7.99295L145.734 8.95754L143.488 19.2275H147.536C151.156 19.2275 154.531 17.1713 155.106 13.6103C155.681 10.0901 153.204 7.99295 149.699 7.99295H146.733H145.956H145.235ZM148.396 9.04265H149.117C151.64 9.04265 152.798 10.7449 152.361 13.6103C151.921 16.512 149.644 18.2062 147.12 18.2062H146.372L148.396 9.04265ZM7.56954 10.4044L8.29044 15.0855H4.35318L7.56954 10.4044ZM104.615 11.142L105.475 15.0855H102.036L104.615 11.142ZM125.299 11.142L126.159 15.0855H122.721L125.299 11.142Z" fill="#0A74D7"/>
</svg>
