<svg width="142" height="19" viewBox="0 0 142 19" fill="none" xmlns="http://www.w3.org/2000/svg">
<g opacity="0.8">
<path d="M138.239 4.60074C137.012 6.00889 134.355 7.21763 133.048 7.7836C131.261 8.55867 130.468 8.83291 129.469 9.20868C128.337 9.63254 126.074 10.4236 126.074 10.4236C130.763 12.0403 134.066 12.5279 134.066 12.5279C134.066 12.5279 135.606 11.9783 138.044 10.4723C139.364 9.69714 140.014 9.17531 140.48 8.67654C140.651 8.49763 141.093 7.96556 141.203 7.28477C141.21 7.23506 141.232 7.10488 141.232 6.97671C141.232 6.97671 141.232 6.88651 141.224 6.80803C141.222 6.71783 141.208 6.65737 141.208 6.65737C141.208 6.65737 141.182 6.49589 141.147 6.38259C141.111 6.2693 140.96 5.9197 140.716 5.69262C140.552 5.53934 140.27 5.15744 139.248 4.74222C138.9 4.60278 138.337 4.47412 138.337 4.47412L138.239 4.60074Z" fill="#0A74D7"/>
<path d="M141.211 7.15885C141.211 7.15885 141.204 7.00385 141.173 6.87263C141.149 6.7556 141.106 6.64382 141.042 6.52627C140.964 6.38655 140.859 6.2226 140.703 6.04125C140.587 5.90629 140.458 5.78714 140.304 5.66063C139.682 5.16297 138.878 4.88252 138.167 4.7639C137.065 4.58518 135.801 4.61682 135.681 4.61155C135.275 4.60469 132.649 4.63105 131.974 4.64581C128.976 4.7212 125.306 4.73121 124.344 4.73121C114.418 4.78657 110.099 4.52562 105.29 3.34896C101.199 2.35734 98.9297 1.41527 98.9297 1.41527C102.538 1.26291 123.59 0.196959 127.43 0.072545C129.944 -0.0139118 131.73 -0.0323631 133.158 0.0683278C133.891 0.11841 134.572 0.194323 135.429 0.371982C136.196 0.532244 136.893 0.804266 137.299 0.988259C138.154 1.37467 138.875 1.93348 139.232 2.50599C139.232 2.50599 139.337 2.6378 139.48 2.87185C139.64 3.14388 139.826 3.47864 139.89 3.60358C140.41 4.56621 140.658 5.17088 140.743 5.38175C140.836 5.60317 140.918 5.83301 140.998 6.05813C141.076 6.28164 141.108 6.41713 141.133 6.5115C141.188 6.74821 141.201 6.9638 141.204 7.01234L141.211 7.15885Z" fill="#0A74D7"/>
<path d="M0.015625 18.5515C0.370097 18.337 0.528606 17.8284 0.528606 17.3934V6.71871C0.528606 6.26701 0.370097 5.77334 0.015625 5.5463H4.31677C6.23492 5.5463 8.10624 6.47507 8.10624 9.05093C8.10624 10.4172 7.0997 11.4947 6.01422 11.7368C7.57794 11.7202 9.08873 12.8499 9.08873 14.891C9.08873 17.8079 6.50244 18.5523 4.68328 18.5523L0.015625 18.5515ZM3.49747 6.66655C3.29817 6.66655 3.15972 6.66654 2.79254 6.71871V11.2708H3.22794C4.54617 11.2708 5.82027 10.7891 5.82027 8.98217C5.82027 7.18942 4.80166 6.66655 3.49747 6.66655ZM3.77169 12.4424C3.45734 12.4424 3.17511 12.4424 2.79254 12.4765V17.2833C3.26941 17.3941 3.78506 17.4304 4.26059 17.4304C5.36414 17.4304 6.48642 16.8482 6.48642 14.8538C6.48642 12.8855 5.15948 12.4424 3.77169 12.4424ZM13.3425 6.66655C13.1458 6.66655 12.9725 6.70452 12.7786 6.73692V11.2344C12.9585 11.2495 13.1218 11.2716 13.2996 11.2716C14.537 11.2716 15.4526 10.4639 15.4526 8.87214C15.4526 7.2456 14.5523 6.66655 13.3425 6.66655ZM18.8862 18.6282C18.4648 18.6282 18.0001 18.6465 17.5974 18.5056C16.8491 18.2445 15.8157 16.2493 15.405 15.4669C14.7663 14.1948 14.2112 12.4424 12.7793 12.4235V17.3934C12.7793 17.8284 12.9458 18.3553 13.3003 18.5515H9.99832C10.3455 18.337 10.5107 17.8482 10.5107 17.3934V6.71871C10.5107 6.26701 10.3448 5.77334 9.99832 5.5463H13.9738C15.7034 5.5463 17.8676 6.33187 17.8676 8.78985C17.8676 10.8524 16.425 11.9093 14.8165 11.9093C17.1052 11.9251 18.4495 18.2753 20.9762 18.2936C20.2988 18.5309 19.5925 18.6282 18.8862 18.6282ZM21.1421 18.5515C21.415 18.4035 21.7006 17.9771 21.7006 17.3934V6.71871C21.7006 6.12618 21.415 5.70689 21.1421 5.5463H24.5257C24.2354 5.70689 23.9706 6.12618 23.9706 6.71871V17.3934C23.9706 17.9771 24.2354 18.4035 24.5257 18.5515H21.1421ZM28.4844 18.5515C28.8469 18.3553 29.0241 17.8482 29.0241 17.3934V7.03753H26.5943C26.0338 7.03753 25.3656 7.11904 24.8842 7.45685L25.6393 5.5455H33.6985C34.3512 5.5455 35.0187 5.52889 35.6527 5.36908C35.3457 6.3477 34.4321 7.07317 33.9058 7.07317C33.2658 7.05573 32.207 7.00513 31.2947 7.00513V17.3925C31.2947 17.8474 31.4853 18.3545 31.8412 18.5507L28.4844 18.5515ZM36.0554 18.5515C36.3256 18.4035 36.6091 17.9771 36.6091 17.3934V6.71871C36.6091 6.12618 36.3256 5.70689 36.0554 5.5463H39.4389C39.1513 5.70689 38.8757 6.12618 38.8757 6.71871V17.3934C38.8757 17.9771 39.1513 18.4035 39.4389 18.5515H36.0554ZM46.0267 15.6093C46.0267 13.1323 41.0942 12.573 41.0942 8.61897C41.0942 6.17129 43.0625 5.36988 44.7934 5.36988C45.5659 5.36988 46.6835 5.49645 47.3898 5.88094L47.5128 8.31201C47.0787 7.23847 45.9919 6.46083 44.9827 6.46083C44.1848 6.46083 43.3488 6.92756 43.3488 8.00667C43.3488 10.5754 48.3649 11.2027 48.3649 14.9479C48.3649 17.6663 46.3571 18.7919 44.3306 18.7919C43.2705 18.7919 41.8285 18.5507 40.9344 17.8276C40.8802 17.3925 40.8555 16.9376 40.8555 16.4922C40.8555 15.9613 40.8949 15.429 40.9611 14.9052C41.5189 16.4092 42.6732 17.5855 44.1152 17.5855C45.2108 17.5863 46.0267 17.0215 46.0267 15.6093ZM56.594 18.5515C56.8328 18.4241 57.088 17.9771 57.088 17.3934V12.554C56.4996 12.4757 55.6777 12.4417 54.7554 12.4417C53.8191 12.4417 52.9904 12.4757 52.3872 12.554V17.3934C52.3872 17.9771 52.6359 18.4035 52.878 18.5515H49.6202C49.8617 18.4241 50.1192 17.9771 50.1192 17.3934V6.71871C50.1192 6.12618 49.8617 5.68948 49.6202 5.5463H52.878C52.6359 5.69028 52.3872 6.12618 52.3872 6.71871V11.0913C52.9904 11.1664 53.8044 11.2027 54.7554 11.2027C55.6777 11.2027 56.4996 11.1553 57.088 11.0913V6.71871C57.088 6.12618 56.8334 5.68948 56.594 5.5463H59.847C59.6035 5.69028 59.3623 6.12618 59.3623 6.71871V17.3934C59.3623 17.9771 59.6035 18.4035 59.847 18.5515H56.594Z" fill="#0A74D7"/>
<path d="M71.9264 18.5515C72.0308 18.4241 72.1249 18.3292 72.1249 18.0989C72.1249 18.0213 72.1004 17.8917 72.0205 17.6496C72.0205 17.6496 71.1252 14.7428 71.0203 14.4042C70.3479 14.3053 69.647 14.3053 68.9604 14.3053C68.3091 14.3053 67.6476 14.3235 67.0021 14.4042C66.9108 14.6953 65.951 17.5863 65.951 17.5863C65.8216 17.9771 65.7771 18.1107 65.7771 18.1962C65.7771 18.3893 65.9162 18.4835 66.0343 18.5515H63.8398C64.1632 18.3552 64.4438 17.9518 64.5824 17.5498L68.1894 6.44512C68.2059 6.39924 68.2122 6.34781 68.2122 6.2853C68.2122 5.97913 68.0417 5.68877 67.8119 5.54478H70.6416L74.3102 17.5388C74.4602 18.0206 74.7801 18.3719 75.0487 18.5507L71.9264 18.5515ZM69.0779 8.02112L67.4241 13.0845C67.9168 13.1494 68.4283 13.1644 68.9273 13.1644C69.4988 13.1644 70.0639 13.1644 70.6199 13.0845L69.0779 8.02112ZM75.607 18.5515C75.8779 18.4036 76.1579 17.9771 76.1579 17.3932V6.71806C76.1579 6.12549 75.8779 5.70618 75.607 5.54557H78.9609C78.6757 5.70618 78.4094 6.12549 78.4094 6.71806V17.3932C78.4094 17.9771 78.6752 18.4036 78.9609 18.5515H75.607ZM84.0586 6.66583C83.8778 6.66583 83.7045 6.7038 83.5157 6.73627V11.234C83.6908 11.249 83.851 11.2712 84.0215 11.2712C85.2511 11.2712 86.1572 10.4634 86.1572 8.87156C86.1561 7.24501 85.2602 6.66583 84.0586 6.66583ZM89.8316 18.6282C89.413 18.6282 88.9625 18.6464 88.5536 18.5055C87.8099 18.2445 86.788 16.2492 86.3796 15.4667C85.7489 14.1945 84.9277 12.4231 83.5157 12.4231V17.3932C83.5157 17.8283 83.6737 18.3552 84.0215 18.5515H80.7487C81.1006 18.3371 81.2648 17.8481 81.2648 17.3932V6.71806C81.2648 6.26632 81.1006 5.77263 80.7487 5.54557H84.7002C86.4116 5.54557 88.5541 6.33119 88.5541 8.78933C88.5541 10.8519 86.9904 11.9089 85.8077 11.9089C88.1601 12.0703 89.5789 18.2935 91.9131 18.2935C91.2367 18.5309 90.5364 18.6282 89.8316 18.6282ZM103.435 6.81539L100.121 18.5515C99.848 18.5515 99.5805 18.4392 99.4283 18.3118C99.1009 17.9351 98.5854 16.3632 98.4 15.7832L96.9019 11.2705L94.7445 18.5515H93.718L90.0095 6.7861C89.8504 6.2853 89.5789 5.80508 89.174 5.54557H92.3967C92.261 5.67137 92.1669 5.81456 92.1669 6.08831C92.1669 6.21964 92.2216 6.40082 92.261 6.54083L94.6755 14.3243L97.2469 5.54557L100.08 14.0086L102.224 6.34781C102.278 6.13973 102.309 6.06299 102.309 5.93166C102.309 5.77263 102.252 5.67137 102.117 5.54557H104.251C103.857 5.79241 103.571 6.33119 103.435 6.81539ZM107.397 8.02112L105.744 13.0845C106.243 13.1494 106.753 13.1644 107.25 13.1644C107.816 13.1644 108.387 13.1644 108.94 13.0845L107.397 8.02112ZM110.243 18.5515C110.355 18.4241 110.44 18.3292 110.44 18.0989C110.44 18.0213 110.407 17.8917 110.342 17.6496C110.342 17.6496 109.452 14.7428 109.344 14.4042C108.665 14.3053 107.966 14.3053 107.279 14.3053C106.634 14.3053 105.972 14.3235 105.323 14.4042C105.229 14.6953 104.276 17.5863 104.276 17.5863C104.139 17.9771 104.101 18.1107 104.101 18.1962C104.101 18.3893 104.235 18.4835 104.352 18.5515H102.156C102.48 18.3552 102.76 17.9518 102.896 17.5498L106.516 6.44512C106.527 6.39924 106.537 6.34781 106.537 6.2853C106.537 5.97913 106.366 5.68877 106.13 5.54478H108.962L112.629 17.5388C112.781 18.0206 113.105 18.3719 113.372 18.5507L110.243 18.5515ZM120.095 6.9111L117.512 12.3132V17.3932C117.512 17.8062 117.654 18.3552 117.999 18.5515H114.786C115.114 18.3371 115.265 17.7928 115.265 17.3932V12.2966L113.02 8.00609C112.818 7.60498 111.883 5.73545 110.741 5.73545C111.051 5.59463 111.995 5.38021 112.629 5.38021C113.685 5.38021 114.208 5.49573 114.856 6.7038L116.932 10.6311C117.107 10.2458 118.752 6.83437 118.752 6.83437C118.95 6.41901 119.086 6.12549 119.086 5.97992C119.086 5.79321 119.019 5.67137 118.86 5.54557H121.175C120.721 5.80508 120.343 6.40002 120.095 6.9111ZM126.141 15.6091C126.141 13.132 121.248 12.5727 121.248 8.61845C121.248 6.17059 123.196 5.36914 124.914 5.36914C125.682 5.36914 126.784 5.49573 127.487 5.88023L127.609 8.31149C127.174 7.23788 126.101 6.46015 125.099 6.46015C124.306 6.46015 123.483 6.92691 123.483 8.00609C123.483 10.575 128.458 11.2024 128.458 14.9477C128.458 17.6662 126.48 18.792 124.456 18.792C123.405 18.792 121.972 18.5507 121.084 17.8276C121.026 17.3924 120.998 16.9375 120.998 16.492C120.998 15.9613 121.041 15.4288 121.108 14.905C121.661 16.409 122.81 17.5854 124.24 17.5854C125.331 17.5863 126.141 17.0214 126.141 15.6091Z" fill="#0A74D7"/>
</g>
</svg>
