<svg width="131" height="36" viewBox="0 0 131 36" fill="none" xmlns="http://www.w3.org/2000/svg">
<g opacity="0.8">
<path d="M31.6013 3.4209H44.2602C42.3035 11.4625 40.4215 19.527 38.4587 27.5672H12.7969V27.316L12.7989 27.5616C19.0497 19.5013 25.3228 11.4583 31.6013 3.4209ZM30.1816 8.07388C30.1844 9.8032 30.1776 11.5346 30.1857 13.2647C28.5103 13.2688 26.8343 13.2606 25.1582 13.2688C25.167 14.7532 25.167 16.2355 25.1582 17.7192C26.8343 17.7282 28.5103 17.7192 30.1857 17.7241C30.1776 19.4534 30.1844 21.1855 30.1816 22.9148C31.6371 22.9232 33.0904 22.919 34.5452 22.9169C34.5371 21.1855 34.5452 19.4534 34.5412 17.7219C36.2234 17.7219 37.9048 17.7241 39.5876 17.7219C39.5849 16.2376 39.5849 14.7519 39.5876 13.2654C37.9054 13.2654 36.224 13.2654 34.5412 13.2675C34.5452 11.5354 34.5371 9.80393 34.5452 8.07249C33.0904 8.06906 31.6364 8.06415 30.1816 8.07388Z" fill="#0A74D7"/>
<path d="M49.9201 9.64453C50.9715 8.73941 52.4336 8.50285 53.7819 8.54734C55.0281 8.60127 56.3829 8.92044 57.2318 9.89324C57.7551 10.4633 57.9367 11.2382 57.9959 11.9861C57.0156 11.994 56.0373 11.9908 55.0569 11.9876C55.004 11.4525 54.7253 10.8968 54.1711 10.7337C53.4486 10.53 52.4746 10.5602 52.0154 11.2413C51.6806 11.7987 52.0341 12.5005 52.5916 12.7519C54.1566 13.5427 56.0933 13.6808 57.377 14.9712C58.6138 16.3981 58.3574 18.8593 56.8388 20.0014C55.7602 20.8483 54.3147 21.0404 52.9798 20.9668C51.7239 20.888 50.3825 20.5614 49.4935 19.6188C48.8863 18.9884 48.6381 18.1045 48.6509 17.2476C49.628 17.2455 50.6069 17.2476 51.5835 17.2476C51.6587 17.6414 51.7485 18.0638 52.0545 18.3512C52.5382 18.8465 53.2959 18.9138 53.9473 18.8179C54.6058 18.7116 55.1808 18.1114 55.1232 17.4286C55.1055 16.9618 54.7242 16.6162 54.3334 16.4124C52.9921 15.7048 51.3683 15.6291 50.1315 14.7045C48.5259 13.566 48.4133 10.9116 49.9201 9.64453Z" fill="#0A74D7"/>
<path d="M83.6598 9.65804C84.7369 8.77875 86.2339 8.53275 87.6264 8.54277C88.9727 8.58243 90.4427 8.85228 91.4056 9.79823C92.0239 10.3744 92.2639 11.1934 92.3173 11.9854C91.2666 11.9965 90.2174 11.9977 89.1674 11.9854C89.1081 11.4823 88.8608 10.9458 88.3069 10.768C87.6096 10.5458 86.7366 10.5506 86.1425 10.9998C85.6676 11.3606 85.6757 12.0806 86.0905 12.4785C86.531 12.8981 87.1639 13.0521 87.7449 13.2229C88.9383 13.5626 90.1874 13.8641 91.2066 14.564C92.9832 15.7656 92.9715 18.4902 91.3588 19.8109C90.221 20.7769 88.5952 21.0314 87.1018 20.9738C85.7093 20.9071 84.1962 20.5939 83.2149 19.6018C82.5659 18.9781 82.3127 18.0955 82.3105 17.2476C83.3591 17.2459 84.4105 17.2476 85.4591 17.2459C85.5498 17.6327 85.6237 18.0527 85.95 18.3364C86.5537 18.9077 87.5444 18.9638 88.3237 18.7283C89.1739 18.458 89.5976 17.3243 88.8835 16.7269C88.1854 16.1714 87.2554 15.9836 86.4037 15.7212C85.2249 15.4037 83.9569 15.0048 83.1996 14.0493C82.1949 12.7478 82.3318 10.7305 83.6598 9.65804Z" fill="#0A74D7"/>
<path d="M94.6019 9.59496C95.7902 8.63328 97.4168 8.43901 98.8963 8.58674C100.028 8.69152 101.223 9.09798 101.936 10.0311C102.38 10.5842 102.529 11.2971 102.583 11.9836C101.612 11.9931 100.644 11.9821 99.6748 11.9901C99.5775 11.6375 99.5197 11.2357 99.2153 10.9928C98.6717 10.5419 97.866 10.5451 97.2251 10.761C96.7048 10.9314 96.3785 11.5221 96.5534 12.0509C96.7261 12.6087 97.3056 12.8766 97.8163 13.0543C99.0785 13.4805 100.437 13.7488 101.533 14.5501C103.199 15.7442 103.188 18.5002 101.68 19.8203C100.655 20.7523 99.1999 21.0143 97.8558 20.9782C96.5826 20.9259 95.2129 20.6586 94.2609 19.7499C93.5739 19.1131 93.2724 18.1619 93.2856 17.2452C94.2573 17.2468 95.229 17.2468 96.2 17.2452C96.2768 17.8661 96.6031 18.4938 97.2251 18.713C97.9692 18.9591 98.9651 18.9448 99.4751 18.2562C99.8914 17.7443 99.7751 16.9165 99.1992 16.5715C97.7973 15.6696 95.96 15.6966 94.6509 14.6104C93.1356 13.4143 93.1048 10.8187 94.6019 9.59496Z" fill="#0A74D7"/>
<path d="M58.8984 8.54585C59.9454 8.54358 60.9916 8.54914 62.0385 8.54248C62.731 11.304 63.4245 14.0667 64.092 16.8361C64.9045 14.0756 65.6876 11.3063 66.4979 8.54358C67.5304 8.54585 68.564 8.54585 69.5977 8.54585C70.4156 11.2973 71.1617 14.0734 72.0217 16.8137C72.6554 14.05 73.3773 11.3063 74.0403 8.54914C75.0889 8.54358 76.1428 8.54358 77.1914 8.54753C76.0506 12.6912 74.9246 16.8388 73.7721 20.9781C72.6759 20.9765 71.5804 20.9742 70.4842 20.9781C69.6624 18.1514 68.8467 15.3202 68.0558 12.4823C67.2162 15.3063 66.4343 18.1491 65.608 20.9765C64.5146 20.9781 63.4206 20.9692 62.3267 20.9815C61.1471 16.8478 60.0625 12.6839 58.8984 8.54585Z" fill="#0A74D7"/>
<path d="M77.9281 20.9815C77.9149 16.8355 77.9274 12.6885 77.9237 8.54248C79.1405 8.54248 80.3595 8.54248 81.5793 8.54248C81.5756 12.6885 81.5874 16.8349 81.5735 20.9797C80.3596 20.9797 79.1435 20.9776 77.9281 20.9815Z" fill="#0A74D7"/>
</g>
</svg>
