<svg width="10" height="10" viewBox="0 0 10 10" fill="none" xmlns="http://www.w3.org/2000/svg">
<path d="M5.41667 0.625C5.41667 0.45924 5.35082 0.300268 5.23361 0.183058C5.1164 0.0658479 4.95743 0 4.79167 0C4.62591 0 4.46693 0.0658479 4.34972 0.183058C4.23251 0.300268 4.16667 0.45924 4.16667 0.625V4.16667H0.625C0.45924 4.16667 0.300268 4.23251 0.183058 4.34972C0.0658479 4.46693 0 4.62591 0 4.79167C0 4.95743 0.0658479 5.1164 0.183058 5.23361C0.300268 5.35082 0.45924 5.41667 0.625 5.41667H4.16667V8.95833C4.16667 9.12409 4.23251 9.28306 4.34972 9.40027C4.46693 9.51748 4.62591 9.58333 4.79167 9.58333C4.95743 9.58333 5.1164 9.51748 5.23361 9.40027C5.35082 9.28306 5.41667 9.12409 5.41667 8.95833V5.41667H8.95833C9.12409 5.41667 9.28306 5.35082 9.40027 5.23361C9.51748 5.1164 9.58333 4.95743 9.58333 4.79167C9.58333 4.62591 9.51748 4.46693 9.40027 4.34972C9.28306 4.23251 9.12409 4.16667 8.95833 4.16667H5.41667V0.625Z" fill="#0A74D7"/>
</svg>
