<svg width="88" height="20" viewBox="0 0 88 20" fill="none" xmlns="http://www.w3.org/2000/svg">
<path d="M21.1094 7.80769H13.0192L10.6094 0.5L8.02741 7.80769H0.109375L6.47823 12.1923L4.06839 19.5L10.6094 14.953L16.9782 19.5L14.5684 12.1923L21.1094 7.80769Z" fill="url(#paint0_linear_1_2774)"/>
<path d="M15.1238 13.8063L14.6075 12.1824L10.6484 14.9431L15.1238 13.8063Z" fill="#005128"/>
<path d="M23.8926 5.54272H32.7436V7.24483H29.3394V16.4362H27.2968V7.24483H23.8926V5.54272ZM32.233 8.4363H33.9351V9.9682C33.9351 9.79799 34.1053 9.62778 34.2756 9.28736C34.4458 8.94694 34.616 8.94694 34.7862 8.77673C34.9564 8.60652 35.2968 8.4363 35.467 8.4363C35.6373 8.26609 35.9777 8.2661 36.3181 8.2661C36.4883 8.2661 36.6585 8.2661 36.6585 8.2661H36.8287V9.9682C36.6585 9.9682 36.6585 9.9682 36.4883 9.9682C36.3181 9.9682 36.3181 9.9682 36.1479 9.9682C35.8075 9.9682 35.6373 9.9682 35.2968 10.1384C34.9564 10.3086 34.7862 10.4788 34.616 10.649C34.4458 10.8193 34.2756 11.1597 34.1053 11.5001C33.9351 11.8405 33.9351 12.1809 33.9351 12.6916V16.4362H32.233V8.4363ZM44.8287 16.4362H43.1266V15.4149C42.9564 15.7554 42.616 16.0958 42.1053 16.4362C41.7649 16.6064 41.2543 16.7766 40.7436 16.7766C39.7224 16.7766 39.0415 16.6064 38.5309 15.9256C38.0202 15.2447 37.85 14.5639 37.85 13.5426V8.60652H39.5522V13.3724C39.5522 14.0533 39.7224 14.5639 39.8926 14.9043C40.233 15.2447 40.5734 15.4149 41.0841 15.4149C41.4245 15.4149 41.7649 15.4149 41.9351 15.2447C42.1053 15.0745 42.4458 14.9043 42.4458 14.7341C42.616 14.5639 42.7862 14.3937 42.7862 14.0533C42.7862 13.7128 42.9564 13.5426 42.9564 13.2022V8.60652H44.6585V16.4362H44.8287ZM47.7224 13.883C47.7224 14.3937 47.8926 14.7341 48.233 14.9043C48.5734 15.0745 48.9139 15.2447 49.4245 15.2447C49.5947 15.2447 49.7649 15.2447 49.9351 15.2447C50.1053 15.2447 50.2756 15.2447 50.4458 15.0745C50.616 15.0745 50.7862 14.9043 50.9564 14.7341C51.1266 14.5639 51.1266 14.3937 51.1266 14.2235C51.1266 14.0533 50.9564 13.883 50.9564 13.7128C50.7862 13.5426 50.616 13.5426 50.4458 13.3724C50.2756 13.3724 49.9351 13.2022 49.5947 13.2022C49.2543 13.2022 48.9139 13.032 48.7436 13.032C48.4032 13.032 48.0628 12.8618 47.8926 12.6916C47.7224 12.5214 47.3819 12.5214 47.0415 12.3512C46.8713 12.1809 46.5309 12.0107 46.5309 11.6703C46.3607 11.3299 46.3607 10.9895 46.3607 10.649C46.3607 10.1384 46.5309 9.79799 46.7011 9.62778C46.8713 9.45757 47.2117 9.11715 47.5522 8.94694C47.8926 8.77673 48.233 8.60652 48.5734 8.60652C48.9139 8.60652 49.4245 8.4363 49.7649 8.4363C50.1053 8.4363 50.616 8.43631 50.9564 8.60652C51.2968 8.60652 51.6373 8.77673 51.9777 8.94694C52.3181 9.11715 52.4883 9.45757 52.6585 9.62778C52.8288 9.9682 52.999 10.3086 52.999 10.8193H51.1266C51.1266 10.4788 50.7862 10.1384 50.616 9.9682C50.1053 9.79799 49.7649 9.62778 49.4245 9.62778C49.2543 9.62778 49.0841 9.62778 48.9139 9.62778C48.7436 9.62778 48.5734 9.62778 48.4032 9.79799C48.233 9.79799 48.0628 9.9682 48.0628 9.9682C47.8926 10.1384 47.8926 10.1384 47.8926 10.3086C47.8926 10.4788 47.8926 10.649 48.0628 10.8193C48.233 10.9895 48.4032 10.9895 48.5734 11.1597C48.7436 11.1597 49.0841 11.3299 49.4245 11.3299C49.7649 11.3299 50.1053 11.5001 50.4458 11.5001C50.7862 11.5001 51.1266 11.6703 51.2968 11.8405C51.6373 12.0107 51.8075 12.0107 52.1479 12.1809C52.4883 12.3512 52.6585 12.5214 52.6585 12.8618C52.8288 13.2022 52.8287 13.3724 52.8287 13.883C52.8287 14.3937 52.6585 14.7341 52.4883 15.0745C52.3181 15.4149 51.9777 15.5852 51.6373 15.9256C51.467 16.266 51.1266 16.4362 50.7862 16.4362C50.4458 16.4362 49.9351 16.6064 49.5947 16.6064C49.0841 16.6064 48.5734 16.6064 48.233 16.4362C47.8926 16.266 47.3819 16.0958 47.2117 15.9256C46.8713 15.7554 46.7011 15.4149 46.5309 15.0745C46.1904 14.7341 46.0202 14.3937 46.0202 13.883H47.7224ZM53.5096 8.4363H54.8713V6.22357H56.5734V8.60652H58.1053V9.9682H56.5734V14.2235C56.5734 14.3937 56.5734 14.5639 56.5734 14.7341C56.5734 14.9043 56.5734 14.9043 56.7436 15.0745C56.9139 15.2447 56.9139 15.2447 56.9139 15.2447C57.0841 15.2447 57.2543 15.2447 57.4245 15.2447C57.5947 15.2447 57.5947 15.2447 57.7649 15.2447C57.9351 15.2447 57.9351 15.2447 58.1053 15.2447V16.4362C57.9351 16.4362 57.7649 16.4362 57.5947 16.4362C57.4245 16.4362 57.2543 16.4362 57.0841 16.4362C56.5734 16.4362 56.233 16.4362 56.0628 16.266C55.7224 16.266 55.5522 16.0958 55.3819 15.9256C55.2117 15.7554 55.0415 15.5852 55.0415 15.2447C55.0415 15.0745 54.8713 14.7341 54.8713 14.3937V9.79799H53.5096V8.4363ZM59.2968 8.4363H60.999V9.62778C61.1692 9.11715 61.5096 8.77673 62.0202 8.60652C62.5309 8.43631 62.8713 8.2661 63.3819 8.2661C64.0628 8.2661 64.5734 8.43631 65.0841 8.60652C65.5947 8.77673 65.9351 9.11715 66.2756 9.45757C66.616 9.79799 66.7862 10.3086 66.9564 10.8193C67.1266 11.3299 67.1266 11.8405 67.1266 12.5214C67.1266 13.032 67.1266 13.5426 66.9564 14.0533C66.7862 14.5639 66.616 14.9043 66.2756 15.4149C65.9351 15.7554 65.5947 16.0958 65.2543 16.266C64.7436 16.4362 64.4032 16.6064 63.7224 16.6064C63.5522 16.6064 63.2117 16.6064 63.0415 16.6064C62.8713 16.6064 62.5309 16.4362 62.3607 16.4362C62.1904 16.266 61.85 16.266 61.6798 16.0958C61.5096 15.9256 61.3394 15.7554 61.1692 15.5852V19.5H59.467V8.4363H59.2968ZM65.4245 12.5214C65.4245 12.1809 65.4245 11.8405 65.2543 11.5001C65.0841 11.1597 65.0841 10.8193 64.9139 10.649C64.7436 10.4788 64.5734 10.1384 64.233 9.9682C63.8926 9.79799 63.7224 9.79799 63.2117 9.79799C62.5309 9.79799 61.85 9.9682 61.5096 10.4788C61.1692 10.9895 60.999 11.6703 60.999 12.5214C60.999 12.8618 60.999 13.3724 61.1692 13.5426C61.3394 13.883 61.3394 14.2235 61.6798 14.3937C61.85 14.5639 62.0202 14.9043 62.3607 14.9043C62.7011 15.0745 62.8713 15.0745 63.2117 15.0745C63.5522 15.0745 63.8926 15.0745 64.233 14.9043C64.5734 14.7341 64.7436 14.5639 64.9139 14.2235C65.0841 13.883 65.2543 13.7128 65.2543 13.3724C65.2543 13.2022 65.4245 12.8618 65.4245 12.5214ZM68.4883 5.54272H70.1905V7.24483H68.4883V5.54272ZM68.4883 8.4363H70.1905V16.4362H68.4883V8.4363ZM71.7224 5.54272H73.4245V16.4362H71.7224V5.54272ZM78.7011 16.6064C78.0202 16.6064 77.5096 16.4362 76.999 16.266C76.4883 16.0958 76.1479 15.7554 75.8075 15.4149C75.467 15.0745 75.1266 14.5639 74.9564 14.0533C74.7862 13.5426 74.616 13.032 74.616 12.3512C74.616 11.6703 74.7862 11.1597 74.9564 10.649C75.1266 10.1384 75.467 9.62778 75.8075 9.28736C76.1479 8.94694 76.4883 8.60652 76.999 8.4363C77.5096 8.26609 78.0202 8.09589 78.7011 8.09589C79.3819 8.09589 79.8926 8.26609 80.4032 8.4363C80.9139 8.60652 81.2543 8.94694 81.5947 9.28736C81.9351 9.62778 82.2756 10.1384 82.4458 10.649C82.616 11.1597 82.7862 11.6703 82.7862 12.3512C82.7862 13.032 82.616 13.5426 82.4458 14.0533C82.2756 14.5639 81.9351 15.0745 81.5947 15.4149C81.2543 15.7554 80.9139 16.0958 80.4032 16.266C79.8926 16.4362 79.3819 16.6064 78.7011 16.6064ZM78.7011 15.2447C79.0415 15.2447 79.3819 15.2447 79.7224 15.0745C80.0628 14.9043 80.233 14.7341 80.4032 14.3937C80.5734 14.0533 80.7436 13.883 80.7436 13.5426C80.7436 13.2022 80.9139 12.8618 80.9139 12.5214C80.9139 12.1809 80.9139 11.8405 80.7436 11.5001C80.7436 11.1597 80.5734 10.8193 80.4032 10.649C80.233 10.4788 80.0628 10.1384 79.7224 9.9682C79.3819 9.79799 79.0415 9.79799 78.7011 9.79799C78.3607 9.79799 78.0202 9.79799 77.6798 9.9682C77.3394 10.1384 77.1692 10.3086 76.999 10.649C76.8288 10.9895 76.6585 11.1597 76.6585 11.5001C76.6585 11.8405 76.4883 12.1809 76.4883 12.5214C76.4883 12.8618 76.4883 13.2022 76.6585 13.5426C76.6585 13.883 76.8288 14.2235 76.999 14.3937C77.1692 14.7341 77.3394 14.9043 77.6798 15.0745C78.0202 15.0745 78.3607 15.2447 78.7011 15.2447ZM83.2968 8.4363H84.6585V6.22357H86.3607V8.60652H87.8926V9.9682H86.3607V14.2235C86.3607 14.3937 86.3607 14.5639 86.3607 14.7341C86.3607 14.9043 86.3607 14.9043 86.5309 15.0745C86.7011 15.2447 86.7011 15.2447 86.7011 15.2447C86.8713 15.2447 87.0415 15.2447 87.2117 15.2447C87.3819 15.2447 87.3819 15.2447 87.5522 15.2447C87.7224 15.2447 87.7224 15.2447 87.8926 15.2447V16.4362C87.7224 16.4362 87.5522 16.4362 87.3819 16.4362C87.2117 16.4362 87.0415 16.4362 86.8713 16.4362C86.3607 16.4362 86.0202 16.4362 85.85 16.266C85.5096 16.266 85.3394 16.0958 85.1692 15.9256C84.999 15.7554 84.8287 15.5852 84.8287 15.2447C84.8287 15.0745 84.6585 14.7341 84.6585 14.3937V9.79799H83.2968V8.4363Z" fill="#667085"/>
<defs>
<linearGradient id="paint0_linear_1_2774" x1="14.971" y1="0.500001" x2="9.05897" y2="20.3838" gradientUnits="userSpaceOnUse">
<stop offset="0.03125" stop-color="#279AFF"/>
<stop offset="0.796875" stop-color="#006DD2"/>
<stop offset="1" stop-color="#0A549A"/>
</linearGradient>
</defs>
</svg>
