<svg xmlns="http://www.w3.org/2000/svg" width="80" height="20" viewBox="0 0 80 20" fill="none">
  <path d="M21.011 7.02344H29.0976V8.52356H25.9179V16.9565H24.1695V8.52356H21.0039V7.02344H21.011ZM28.7521 9.76431H30.2467V11.1523H30.2749C30.3243 10.956 30.4159 10.7667 30.5499 10.5845C30.6839 10.4022 30.846 10.227 31.0364 10.0798C31.2267 9.92554 31.4382 9.80637 31.6709 9.70823C31.9035 9.6171 32.1433 9.56803 32.383 9.56803C32.5663 9.56803 32.7002 9.57504 32.7707 9.58205C32.8412 9.58906 32.9117 9.60308 32.9893 9.61009V11.1383C32.8765 11.1172 32.7637 11.1032 32.6438 11.0892C32.524 11.0752 32.4112 11.0682 32.2984 11.0682C32.0304 11.0682 31.7766 11.1242 31.5369 11.2294C31.2972 11.3345 31.0928 11.4958 30.9165 11.699C30.7403 11.9093 30.5993 12.1617 30.4935 12.4701C30.3877 12.7786 30.3384 13.1291 30.3384 13.5286V16.9495H28.745V9.76431L28.7521 9.76431ZM40.3145 16.9565H38.7493V15.9541H38.7211C38.5237 16.3186 38.2346 16.606 37.8469 16.8233C37.4591 17.0406 37.0643 17.1528 36.6624 17.1528C35.7107 17.1528 35.0197 16.9214 34.5967 16.4518C34.1737 15.9821 33.9622 15.2741 33.9622 14.3278V9.76431H35.5556V14.1735C35.5556 14.8044 35.6754 15.2531 35.9222 15.5124C36.1619 15.7718 36.5073 15.905 36.9445 15.905C37.2829 15.905 37.5578 15.8559 37.7834 15.7508C38.009 15.6456 38.1923 15.5124 38.3263 15.3372C38.4673 15.169 38.566 14.9587 38.6295 14.7203C38.6929 14.482 38.7211 14.2226 38.7211 13.9422V9.77132H40.3145V16.9565ZM43.0288 14.6502C43.0781 15.1129 43.2544 15.4353 43.5576 15.6246C43.8678 15.8069 44.2344 15.905 44.6644 15.905C44.8125 15.905 44.9817 15.891 45.1721 15.8699C45.3624 15.8489 45.5457 15.7998 45.7079 15.7368C45.8771 15.6737 46.011 15.5755 46.1238 15.4493C46.2296 15.3232 46.2789 15.1619 46.2719 14.9587C46.2648 14.7554 46.1873 14.5871 46.0463 14.461C45.9053 14.3278 45.729 14.2296 45.5105 14.1455C45.2919 14.0684 45.0452 13.9983 44.7631 13.9422C44.4811 13.8861 44.1991 13.823 43.9101 13.76C43.614 13.6969 43.3249 13.6128 43.0499 13.5216C42.775 13.4305 42.5282 13.3043 42.3097 13.1431C42.0911 12.9889 41.9149 12.7856 41.788 12.5402C41.654 12.2949 41.5905 11.9935 41.5905 11.6289C41.5905 11.2364 41.6893 10.9139 41.8796 10.6476C42.07 10.3812 42.3167 10.1709 42.6058 10.0097C42.9019 9.84843 43.2262 9.73627 43.5858 9.66617C43.9453 9.60308 44.2908 9.56803 44.6151 9.56803C44.9888 9.56803 45.3483 9.61009 45.6867 9.6872C46.0251 9.76431 46.3353 9.89049 46.6103 10.0727C46.8853 10.248 47.1109 10.4793 47.2942 10.7597C47.4775 11.0401 47.5903 11.3836 47.6396 11.7832H45.9758C45.8982 11.4046 45.729 11.1453 45.4541 11.0191C45.1791 10.8859 44.8618 10.8228 44.5093 10.8228C44.3965 10.8228 44.2626 10.8298 44.1075 10.8508C43.9524 10.8719 43.8114 10.9069 43.6704 10.956C43.5364 11.0051 43.4236 11.0822 43.3249 11.1803C43.2333 11.2785 43.1839 11.4046 43.1839 11.5659C43.1839 11.7621 43.2544 11.9164 43.3884 12.0355C43.5223 12.1547 43.6986 12.2528 43.9171 12.3369C44.1357 12.4141 44.3824 12.4842 44.6644 12.5402C44.9465 12.5963 45.2355 12.6594 45.5316 12.7225C45.8207 12.7856 46.1027 12.8697 46.3847 12.9608C46.6667 13.052 46.9135 13.1781 47.132 13.3394C47.3506 13.5006 47.5268 13.6969 47.6608 13.9352C47.7947 14.1735 47.8652 14.475 47.8652 14.8255C47.8652 15.2531 47.7665 15.6106 47.5691 15.912C47.3717 16.2064 47.1179 16.4518 46.8077 16.634C46.4975 16.8163 46.145 16.9565 45.7643 17.0406C45.3836 17.1247 45.0029 17.1668 44.6292 17.1668C44.1709 17.1668 43.7479 17.1177 43.3602 17.0126C42.9724 16.9074 42.634 16.7532 42.352 16.5499C42.07 16.3396 41.8444 16.0802 41.6822 15.7718C41.52 15.4634 41.4354 15.0918 41.4213 14.6642H43.0288V14.6502ZM48.2883 9.76431H49.4938V7.60526H51.0872V9.76431H52.5254V10.949H51.0872V14.7904C51.0872 14.9587 51.0942 15.0989 51.1083 15.225C51.1224 15.3442 51.1577 15.4493 51.207 15.5335C51.2564 15.6176 51.3339 15.6807 51.4397 15.7227C51.5455 15.7648 51.6794 15.7858 51.8627 15.7858C51.9755 15.7858 52.0883 15.7858 52.2011 15.7788C52.3139 15.7718 52.4267 15.7578 52.5395 15.7297V16.9565C52.3633 16.9775 52.187 16.9915 52.0249 17.0126C51.8557 17.0336 51.6865 17.0406 51.5102 17.0406C51.0872 17.0406 50.7488 16.9985 50.495 16.9214C50.2412 16.8443 50.0367 16.7252 49.8957 16.5709C49.7477 16.4167 49.656 16.2274 49.5996 15.9961C49.5502 15.7648 49.515 15.4984 49.5079 15.204V10.963H48.3024V9.76431H48.2883ZM53.6535 9.76431H55.1622V10.7387H55.1904C55.416 10.3181 55.7262 10.0237 56.1281 9.84142C56.53 9.65916 56.96 9.56803 57.4324 9.56803C58.0035 9.56803 58.497 9.66617 58.92 9.86946C59.343 10.0657 59.6955 10.3391 59.9775 10.6896C60.2595 11.0401 60.464 11.4467 60.605 11.9093C60.746 12.372 60.8165 12.8697 60.8165 13.3954C60.8165 13.8791 60.753 14.3488 60.6261 14.7974C60.4992 15.2531 60.3089 15.6526 60.0551 16.0031C59.8013 16.3536 59.477 16.627 59.0821 16.8373C58.6873 17.0476 58.2291 17.1528 57.6933 17.1528C57.4606 17.1528 57.2279 17.1317 56.9953 17.0897C56.7626 17.0476 56.537 16.9775 56.3255 16.8864C56.114 16.7952 55.9095 16.6761 55.7333 16.5289C55.55 16.3817 55.4019 16.2134 55.275 16.0242H55.2468V19.6132H53.6535V9.76431ZM59.2231 13.3674C59.2231 13.0449 59.1808 12.7295 59.0962 12.4211C59.0116 12.1126 58.8847 11.8463 58.7155 11.6079C58.5463 11.3696 58.3348 11.1803 58.0881 11.0401C57.8343 10.8999 57.5452 10.8228 57.2209 10.8228C56.5511 10.8228 56.0435 11.0541 55.7051 11.5168C55.3667 11.9794 55.1975 12.5963 55.1975 13.3674C55.1975 13.7319 55.2398 14.0684 55.3314 14.3768C55.4231 14.6853 55.55 14.9516 55.7333 15.176C55.9095 15.4003 56.1211 15.5755 56.3678 15.7017C56.6146 15.8349 56.9036 15.898 57.2279 15.898C57.5945 15.898 57.8977 15.8209 58.1515 15.6737C58.4053 15.5265 58.6098 15.3302 58.7719 15.0989C58.9341 14.8605 59.0539 14.5941 59.1244 14.2927C59.1879 13.9913 59.2231 13.6829 59.2231 13.3674ZM62.0362 7.02344H63.6295V8.52356H62.0362V7.02344ZM62.0362 9.76431H63.6295V16.9565H62.0362V9.76431ZM65.0537 7.02344H66.647V16.9565H65.0537V7.02344ZM71.5328 17.1528C70.9547 17.1528 70.44 17.0546 69.9888 16.8653C69.5376 16.6761 69.1569 16.4097 68.8396 16.0802C68.5294 15.7438 68.2897 15.3442 68.1276 14.8815C67.9654 14.4189 67.8808 13.9072 67.8808 13.3534C67.8808 12.8066 67.9654 12.3019 68.1276 11.8392C68.2897 11.3766 68.5294 10.977 68.8396 10.6406C69.1499 10.3041 69.5376 10.0447 69.9888 9.85544C70.44 9.66617 70.9547 9.56803 71.5328 9.56803C72.1109 9.56803 72.6256 9.66617 73.0768 9.85544C73.528 10.0447 73.9088 10.3111 74.226 10.6406C74.5362 10.977 74.7759 11.3766 74.9381 11.8392C75.1002 12.3019 75.1848 12.8066 75.1848 13.3534C75.1848 13.9072 75.1002 14.4189 74.9381 14.8815C74.7759 15.3442 74.5362 15.7438 74.226 16.0802C73.9158 16.4167 73.528 16.6761 73.0768 16.8653C72.6256 17.0546 72.1109 17.1528 71.5328 17.1528ZM71.5328 15.898C71.8853 15.898 72.1956 15.8209 72.4564 15.6737C72.7173 15.5265 72.9288 15.3302 73.098 15.0918C73.2672 14.8535 73.387 14.5801 73.4716 14.2787C73.5492 13.9773 73.5915 13.6688 73.5915 13.3534C73.5915 13.0449 73.5492 12.7435 73.4716 12.4351C73.3941 12.1267 73.2672 11.8603 73.098 11.6219C72.9288 11.3836 72.7173 11.1943 72.4564 11.0471C72.1956 10.8999 71.8853 10.8228 71.5328 10.8228C71.1803 10.8228 70.8701 10.8999 70.6093 11.0471C70.3484 11.1943 70.1369 11.3906 69.9677 11.6219C69.7985 11.8603 69.6786 12.1267 69.594 12.4351C69.5165 12.7435 69.4742 13.0449 69.4742 13.3534C69.4742 13.6688 69.5165 13.9773 69.594 14.2787C69.6716 14.5801 69.7985 14.8535 69.9677 15.0918C70.1369 15.3302 70.3484 15.5265 70.6093 15.6737C70.8701 15.8279 71.1803 15.898 71.5328 15.898ZM75.6502 9.76431H76.8557V7.60526H78.4491V9.76431H79.8873V10.949H78.4491V14.7904C78.4491 14.9587 78.4561 15.0989 78.4702 15.225C78.4843 15.3442 78.5196 15.4493 78.569 15.5335C78.6183 15.6176 78.6959 15.6807 78.8016 15.7227C78.9074 15.7648 79.0413 15.7858 79.2246 15.7858C79.3374 15.7858 79.4502 15.7858 79.563 15.7788C79.6758 15.7718 79.7886 15.7578 79.9014 15.7297V16.9565C79.7252 16.9775 79.5489 16.9915 79.3868 17.0126C79.2176 17.0336 79.0484 17.0406 78.8721 17.0406C78.4491 17.0406 78.1107 16.9985 77.8569 16.9214C77.6031 16.8443 77.3986 16.7252 77.2576 16.5709C77.1096 16.4167 77.0179 16.2274 76.9615 15.9961C76.9121 15.7648 76.8769 15.4984 76.8699 15.204V10.963H75.6643V9.76431L75.6502 9.76431Z" fill="#191919"/>
  <path d="M19.1507 7.02505H11.8467L9.59059 0.113281L7.32747 7.02505L0.0234375 7.01804L5.93857 11.2941L3.67545 18.1988L9.59059 13.9298L15.4987 18.1988L13.2426 11.2941L19.1507 7.02505Z" fill="#00B67A"/>
  <path d="M13.7495 12.8563L13.2419 11.293L9.58984 13.9289L13.7495 12.8563Z" fill="#005128"/>
</svg>