<svg xmlns="http://www.w3.org/2000/svg" width="25" height="24" viewBox="0 0 25 24" fill="none">
  <path d="M12.5 23.5C18.8513 23.5 24 18.3513 24 12C24 5.64873 18.8513 0.5 12.5 0.5C6.14873 0.5 1 5.64873 1 12C1 18.3513 6.14873 23.5 12.5 23.5Z" stroke="#8C8C8C"/>
  <path d="M11.0089 12L14.3169 8.97549C14.561 8.75233 14.561 8.39052 14.3169 8.16737C14.0729 7.94421 13.6771 7.94421 13.4331 8.16737L9.68306 11.5959C9.43898 11.8191 9.43898 12.1809 9.68306 12.4041L13.4331 15.8326C13.6771 16.0558 14.0729 16.0558 14.3169 15.8326C14.561 15.6095 14.561 15.2477 14.3169 15.0245L11.0089 12Z" fill="#8C8C8C" stroke="#191919"/>
</svg>