<svg  viewBox="0 0 32 32" fill="none" xmlns="http://www.w3.org/2000/svg">
<rect x="31.5" y="0.5" width="31" height="31" rx="15.5" transform="rotate(90 31.5 0.5)" stroke="white"/>
<path d="M17.5353 11.634C17.4425 11.5476 17.3682 11.4435 17.3166 11.3277C17.265 11.212 17.2373 11.087 17.2351 10.9603C17.2328 10.8336 17.2561 10.7077 17.3036 10.5902C17.3511 10.4727 17.4217 10.366 17.5113 10.2764C17.6009 10.1868 17.7076 10.1161 17.8251 10.0687C17.9426 10.0212 18.0685 9.99791 18.1952 10.0001C18.3219 10.0024 18.4469 10.0301 18.5626 10.0817C18.6784 10.1333 18.7826 10.2076 18.8689 10.3003L23.9018 15.3332C24.0785 15.5101 24.1777 15.7499 24.1777 16C24.1777 16.2501 24.0785 16.4899 23.9018 16.6668L18.8689 21.6997C18.7826 21.7924 18.6784 21.8667 18.5626 21.9183C18.4469 21.9699 18.3219 21.9976 18.1952 21.9999C18.0685 22.0021 17.9426 21.9788 17.8251 21.9313C17.7076 21.8839 17.6009 21.8132 17.5113 21.7236C17.4217 21.634 17.3511 21.5273 17.3036 21.4098C17.2561 21.2923 17.2328 21.1664 17.2351 21.0397C17.2373 20.913 17.265 20.788 17.3166 20.6723C17.3682 20.5565 17.4425 20.4524 17.5353 20.366L20.9576 16.9437L8.76558 16.9437C8.51531 16.9437 8.27529 16.8442 8.09832 16.6673C7.92135 16.4903 7.82193 16.2503 7.82193 16C7.82193 15.7497 7.92135 15.5097 8.09832 15.3327C8.27529 15.1558 8.51531 15.0563 8.76558 15.0563L20.9576 15.0563L17.5353 11.634Z" fill="white"/>
</svg>
