<svg width="57" height="57" viewBox="0 0 57 57" fill="none" xmlns="http://www.w3.org/2000/svg">
<path d="M44.9646 12.0452L30.9646 6.67623C29.483 6.10923 27.852 6.10923 26.3703 6.67623L12.3703 12.0452C9.90629 12.9902 8.25195 15.3982 8.25195 18.0349V24.6522C8.25195 36.2489 15.546 46.7746 26.4146 50.8509C27.1403 51.1239 27.9033 51.2592 28.6663 51.2592C29.4293 51.2592 30.1993 51.1216 30.932 50.8462C41.7913 46.7746 49.0853 36.2466 49.0853 24.6499V18.0326C49.0853 15.3936 47.431 12.9856 44.967 12.0429L44.9646 12.0452ZM36.9683 25.1749L28.5683 34.5082C28.2346 34.8769 27.7633 35.0869 27.2663 35.0869C26.7693 35.0869 26.298 34.8769 25.9643 34.5082L20.3643 28.2852C19.718 27.5666 19.7763 26.4606 20.495 25.8119C21.216 25.1656 22.3196 25.2239 22.9683 25.9426L27.2663 30.7189L34.3643 22.8299C35.013 22.1112 36.1166 22.0552 36.8376 22.6992C37.5563 23.3456 37.6146 24.4539 36.9683 25.1749Z" fill="url(#paint0_linear_637_34461)"/>
<defs>
<linearGradient id="paint0_linear_637_34461" x1="33.1101" y1="-35.1915" x2="-17.5459" y2="-15.6646" gradientUnits="userSpaceOnUse">
<stop offset="0.0313" stop-color="#279AFF"/>
<stop offset="0.6" stop-color="#006DD2"/>
<stop offset="1" stop-color="#0A549A"/>
</linearGradient>
</defs>
</svg>
