<svg xmlns="http://www.w3.org/2000/svg" width="88" height="88" viewBox="0 0 88 88" fill="none">
  <g filter="url(#filter0_d_1061_10750)">
    <path d="M10 30C10 18.9543 18.9543 10 30 10H58C69.0457 10 78 18.9543 78 30V58C78 69.0457 69.0457 78 58 78H30C18.9543 78 10 69.0457 10 58V30Z" fill="white"/>
    <path d="M65.748 40.9674L62.2891 37.5162C62.0446 37.2726 61.8505 36.9833 61.718 36.6646C61.5855 36.3459 61.5171 36.0043 61.5168 35.6592V30.7536C61.5166 29.6198 61.0667 28.5322 60.2658 27.7297C59.4648 26.9271 58.3783 26.475 57.2444 26.4725H52.3475C52.0022 26.4741 51.66 26.4065 51.3411 26.2739C51.0223 26.1412 50.7331 25.9462 50.4907 25.7001L47.0235 22.249C46.2222 21.4492 45.1363 21 44.0041 21C42.8719 21 41.786 21.4492 40.9847 22.249L37.5092 25.7001C37.2668 25.9462 36.9777 26.1412 36.6588 26.2739C36.34 26.4065 35.9978 26.4741 35.6524 26.4725H30.7556C29.6218 26.475 28.5352 26.9271 27.7342 27.7297C26.9333 28.5322 26.4834 29.6198 26.4832 30.7536V35.6592C26.4818 36.3544 26.2074 37.0213 25.7191 37.5163L22.2437 40.9674C21.4455 41.7752 20.9985 42.8655 21 44.0012C21.0015 45.1368 21.4515 46.226 22.252 47.0316L25.7109 50.4827C25.9554 50.7263 26.1495 51.0157 26.282 51.3343C26.4145 51.653 26.4829 51.9946 26.4832 52.3397V57.2371C26.4817 58.3722 26.9307 59.4616 27.7318 60.2658C28.5329 61.0701 29.6205 61.5235 30.7556 61.5264H35.6524C35.997 61.5252 36.3384 61.5921 36.6571 61.7233C36.9757 61.8544 37.2653 62.0472 37.5092 62.2906L40.9765 65.75C41.7792 66.5503 42.8665 66.9998 44 66.9998C45.1335 66.9998 46.2208 66.5503 47.0235 65.75L50.4826 62.2906C50.9793 61.8001 51.6495 61.5255 52.3476 61.5264H57.2444C58.3795 61.5235 59.4671 61.0701 60.2682 60.2659C61.0692 59.4616 61.5183 58.3723 61.5168 57.2371V52.3398C61.5182 51.6445 61.7926 50.9777 62.2809 50.4827L65.7563 47.0234C66.5545 46.2172 67.0015 45.1281 67 43.9937C66.9985 42.8592 66.5484 41.7714 65.748 40.9674ZM53.3006 53.3012C51.9439 54.6446 50.3118 55.6778 48.517 56.3293C46.7223 56.9809 44.8075 57.2354 42.9049 57.0752C41.0022 56.9151 39.1569 56.3441 37.4963 55.4017C35.8357 54.4593 34.3993 53.1679 33.2862 51.6166C26.9198 42.7922 33.7929 30.2506 44.6657 30.8687C55.9371 31.3771 61.3545 45.3217 53.3006 53.3012ZM44.5834 32.512C35.0721 31.9682 29.0507 42.9429 34.6256 50.6718C35.6009 52.0271 36.8585 53.155 38.3116 53.9777C39.7646 54.8004 41.3788 55.2983 43.0428 55.4373C44.7068 55.5763 46.3812 55.353 47.9506 54.7828C49.5201 54.2126 50.9473 53.309 52.134 52.1342C59.1956 45.2142 54.4152 32.9037 44.5834 32.512ZM50.6304 40.5483L42.5622 48.6175C42.4087 48.7686 42.2024 48.8541 41.987 48.8557C41.7692 48.8541 41.5604 48.7688 41.4037 48.6175L37.3696 44.5829C37.2193 44.4283 37.1357 44.2209 37.1369 44.0054C37.138 43.7898 37.2238 43.5833 37.3756 43.4303C37.5275 43.2774 37.7334 43.1902 37.949 43.1875C38.1645 43.1848 38.3725 43.2669 38.5281 43.4161L41.987 46.8672L49.4719 39.3815C49.6276 39.233 49.8354 39.1515 50.0506 39.1544C50.2658 39.1573 50.4713 39.2445 50.6229 39.3973C50.7745 39.55 50.8602 39.7561 50.8616 39.9713C50.8631 40.1865 50.78 40.3936 50.6304 40.5483Z" fill="url(#paint0_linear_1061_10750)"/>
  </g>
  <defs>
    <filter id="filter0_d_1061_10750" x="0" y="0" width="88" height="88" filterUnits="userSpaceOnUse" color-interpolation-filters="sRGB">
      <feFlood flood-opacity="0" result="BackgroundImageFix"/>
      <feColorMatrix in="SourceAlpha" type="matrix" values="0 0 0 0 0 0 0 0 0 0 0 0 0 0 0 0 0 0 127 0" result="hardAlpha"/>
      <feOffset/>
      <feGaussianBlur stdDeviation="5"/>
      <feComposite in2="hardAlpha" operator="out"/>
      <feColorMatrix type="matrix" values="0 0 0 0 0.0784314 0 0 0 0 0.180392 0 0 0 0 0.27451 0 0 0 0.15 0"/>
      <feBlend mode="normal" in2="BackgroundImageFix" result="effect1_dropShadow_1061_10750"/>
      <feBlend mode="normal" in="SourceGraphic" in2="effect1_dropShadow_1061_10750" result="shape"/>
    </filter>
    <linearGradient id="paint0_linear_1061_10750" x1="49.0034" y1="-21.3554" x2="-6.51807" y2="2.23533" gradientUnits="userSpaceOnUse">
      <stop offset="0.0313" stop-color="#279AFF"/>
      <stop offset="0.6" stop-color="#006DD2"/>
      <stop offset="1" stop-color="#0A549A"/>
    </linearGradient>
  </defs>
</svg>