<svg xmlns="http://www.w3.org/2000/svg" width="89" height="88" viewBox="0 0 89 88" fill="none">
  <g filter="url(#filter0_d_1061_10756)">
    <path d="M10.332 30C10.332 18.9543 19.2863 10 30.332 10H58.332C69.3777 10 78.332 18.9543 78.332 30V58C78.332 69.0457 69.3777 78 58.332 78H30.332C19.2863 78 10.332 69.0457 10.332 58V30Z" fill="white"/>
    <path d="M43.998 66C56.1483 66 65.998 56.1503 65.998 44C65.998 31.8497 56.1483 22 43.998 22C31.8478 22 21.998 31.8497 21.998 44C21.998 56.1503 31.8478 66 43.998 66Z" fill="url(#paint0_linear_1061_10756)"/>
    <path fill-rule="evenodd" clip-rule="evenodd" d="M55.2677 46.3929L54.6608 44.7952C54.6271 44.7 54.5747 44.6125 54.5067 44.5379C54.4387 44.4632 54.3565 44.4028 54.2649 44.3603C54.1733 44.3179 54.0741 44.2941 53.9732 44.2905C53.8722 44.2868 53.7716 44.3033 53.6772 44.3391C53.5827 44.3749 53.4964 44.4291 53.4232 44.4987C53.35 44.5683 53.2914 44.6518 53.2509 44.7443C53.2104 44.8368 53.1887 44.9364 53.1872 45.0374C53.1858 45.1384 53.2044 45.2387 53.2422 45.3323L54.6487 49.0465C54.6913 49.159 54.7601 49.2598 54.8493 49.3405C54.9385 49.4211 55.0456 49.4794 55.1618 49.5106C55.278 49.5417 55.4 49.5447 55.5176 49.5195C55.6352 49.4942 55.7451 49.4413 55.8382 49.3652L58.9137 46.8511C58.9913 46.7883 59.0558 46.7109 59.1034 46.6232C59.1511 46.5355 59.1811 46.4393 59.1916 46.34C59.2021 46.2408 59.1929 46.1404 59.1646 46.0447C59.1363 45.949 59.0895 45.8598 59.0267 45.7822C58.9639 45.7046 58.8865 45.6401 58.7988 45.5924C58.7111 45.5447 58.6149 45.5148 58.5157 45.5043C58.4164 45.4938 58.3161 45.503 58.2203 45.5312C58.1246 45.5595 58.0354 45.6064 57.9578 45.6692L56.7668 46.6417C57.3996 43.4638 56.8828 40.1644 55.3085 37.3323C53.7342 34.5001 51.2049 32.3194 48.1718 31.1792C45.1388 30.0391 41.7993 30.0136 38.7492 31.1074C35.6991 32.2011 33.1368 34.343 31.5195 37.1508C29.9022 39.9586 29.3351 43.2497 29.9194 46.4369C30.5036 49.6241 32.2013 52.5 34.7094 54.5516C37.2175 56.6031 40.3729 57.6968 43.6127 57.6375C46.8524 57.5782 49.9657 56.3698 52.3971 54.2279C52.548 54.0947 52.6398 53.907 52.6523 53.7062C52.6649 53.5053 52.5971 53.3076 52.4639 53.1567C52.3307 53.0058 52.143 52.914 51.9421 52.9015C51.7412 52.889 51.5436 52.9568 51.3927 53.09C49.2378 54.9837 46.4802 56.0502 43.6119 56.0991C40.7436 56.1481 37.9511 55.1764 35.7328 53.3574C33.5146 51.5383 32.0147 48.9903 31.5009 46.168C30.9872 43.3456 31.4929 40.4325 32.9278 37.9485C34.3628 35.4644 36.6336 33.571 39.3352 32.606C42.0368 31.641 44.9933 31.6673 47.6773 32.6801C50.3613 33.693 52.5981 35.6265 53.9887 38.1356C55.3793 40.6448 55.8331 43.5664 55.2693 46.3792L55.2677 46.3929Z" fill="white"/>
    <path fill-rule="evenodd" clip-rule="evenodd" d="M37.7575 42.6768C37.7418 42.3604 37.8059 42.0451 37.9437 41.7599C38.0816 41.4747 38.2888 41.2286 38.5465 41.0443C38.917 40.7804 39.3693 40.657 39.8224 40.6962C40.2756 40.7354 40.7 40.9346 41.0196 41.2582C41.3002 41.6069 41.4437 42.0461 41.4232 42.4933C41.402 42.7334 41.3166 42.9635 41.1759 43.1593C40.9446 43.5163 40.6738 43.8461 40.3687 44.1425C39.0087 45.3913 37.5124 46.483 35.908 47.397C35.7623 47.4795 35.6481 47.608 35.583 47.7623C35.518 47.9166 35.5058 48.0881 35.5484 48.25C35.591 48.4119 35.686 48.5552 35.8186 48.6575C35.9511 48.7599 36.1138 48.8154 36.2813 48.8156H42.1788C42.38 48.8156 42.5729 48.7357 42.7152 48.5934C42.8575 48.4511 42.9374 48.2582 42.9374 48.057C42.9374 47.8558 42.8575 47.6628 42.7152 47.5206C42.5729 47.3783 42.38 47.2984 42.1788 47.2984H38.8803C39.7939 46.6785 40.6523 45.9811 41.446 45.2137C42.2617 44.5221 42.7938 43.5541 42.9404 42.4948C42.9648 41.6818 42.6888 40.8883 42.1651 40.2659C41.5971 39.6684 40.8349 39.2925 40.0151 39.2058C39.1952 39.119 38.3712 39.3271 37.6908 39.7926C37.2262 40.1125 36.8498 40.5443 36.5963 41.0482C36.3428 41.552 36.2203 42.1116 36.2403 42.6753C36.2403 42.8765 36.3202 43.0695 36.4625 43.2118C36.6048 43.354 36.7977 43.4339 36.9989 43.4339C37.2001 43.4339 37.3931 43.354 37.5353 43.2118C37.6776 43.0695 37.7575 42.8765 37.7575 42.6753V42.6768Z" fill="white"/>
    <path fill-rule="evenodd" clip-rule="evenodd" d="M47.9552 44.5934V41.7744L45.1362 44.5934H47.9552ZM47.9552 46.1107V48.0573C47.9552 48.2585 48.0352 48.4514 48.1774 48.5937C48.3197 48.736 48.5127 48.8159 48.7139 48.8159C48.9151 48.8159 49.108 48.736 49.2503 48.5937C49.3926 48.4514 49.4725 48.2585 49.4725 48.0573V46.1107H50.0672C50.2684 46.1107 50.4614 46.0307 50.6037 45.8885C50.7459 45.7462 50.8259 45.5532 50.8259 45.352C50.8259 45.1509 50.7459 44.9579 50.6037 44.8156C50.4614 44.6734 50.2684 44.5934 50.0672 44.5934H49.4725V39.9431C49.4728 39.7928 49.4284 39.6459 49.3451 39.5209C49.2617 39.3959 49.1431 39.2985 49.0044 39.2409C48.8656 39.1834 48.7128 39.1684 48.5655 39.1978C48.4182 39.2271 48.2829 39.2996 48.1768 39.406L42.7663 44.8165C42.6605 44.9226 42.5885 45.0576 42.5594 45.2045C42.5303 45.3514 42.5453 45.5037 42.6026 45.6421C42.6599 45.7805 42.7568 45.8989 42.8813 45.9823C43.0057 46.0657 43.1521 46.1103 43.3019 46.1107H47.9552Z" fill="white"/>
  </g>
  <defs>
    <filter id="filter0_d_1061_10756" x="0.332031" y="0" width="88" height="88" filterUnits="userSpaceOnUse" color-interpolation-filters="sRGB">
      <feFlood flood-opacity="0" result="BackgroundImageFix"/>
      <feColorMatrix in="SourceAlpha" type="matrix" values="0 0 0 0 0 0 0 0 0 0 0 0 0 0 0 0 0 0 127 0" result="hardAlpha"/>
      <feOffset/>
      <feGaussianBlur stdDeviation="5"/>
      <feComposite in2="hardAlpha" operator="out"/>
      <feColorMatrix type="matrix" values="0 0 0 0 0.0784314 0 0 0 0 0.180392 0 0 0 0 0.27451 0 0 0 0.15 0"/>
      <feBlend mode="normal" in2="BackgroundImageFix" result="effect1_dropShadow_1061_10756"/>
      <feBlend mode="normal" in="SourceGraphic" in2="effect1_dropShadow_1061_10756" result="shape"/>
    </filter>
    <linearGradient id="paint0_linear_1061_10756" x1="48.7839" y1="-18.5141" x2="-4.32365" y2="4.05093" gradientUnits="userSpaceOnUse">
      <stop offset="0.0313" stop-color="#279AFF"/>
      <stop offset="0.6" stop-color="#006DD2"/>
      <stop offset="1" stop-color="#0A549A"/>
    </linearGradient>
  </defs>
</svg>