<svg width="49" height="49" viewBox="0 0 49 49" fill="none" xmlns="http://www.w3.org/2000/svg">
<path d="M24.332 46.4199C36.3442 46.4199 46.082 36.6821 46.082 24.6699C46.082 12.6577 36.3442 2.91992 24.332 2.91992C12.3198 2.91992 2.58203 12.6577 2.58203 24.6699C2.58203 36.6821 12.3198 46.4199 24.332 46.4199Z" fill="url(#paint0_linear_637_34473)"/>
<path fill-rule="evenodd" clip-rule="evenodd" d="M35.4732 27.0357L34.8732 25.4562C34.8399 25.3621 34.7881 25.2756 34.7209 25.2018C34.6537 25.128 34.5724 25.0683 34.4818 25.0263C34.3912 24.9843 34.2932 24.9608 34.1934 24.9572C34.0936 24.9536 33.9941 24.97 33.9007 25.0053C33.8074 25.0407 33.722 25.0943 33.6496 25.1631C33.5772 25.2319 33.5193 25.3144 33.4793 25.4059C33.4392 25.4973 33.4179 25.5959 33.4164 25.6957C33.4149 25.7955 33.4334 25.8946 33.4707 25.9872L34.8612 29.6592C34.9034 29.7705 34.9713 29.8701 35.0596 29.9498C35.1478 30.0296 35.2537 30.0872 35.3685 30.118C35.4834 30.1488 35.604 30.1518 35.7202 30.1268C35.8365 30.1018 35.9452 30.0495 36.0372 29.9742L39.0777 27.4887C39.1545 27.4267 39.2182 27.3501 39.2654 27.2635C39.3125 27.1768 39.3421 27.0816 39.3525 26.9835C39.3629 26.8854 39.3538 26.7862 39.3258 26.6915C39.2979 26.5969 39.2515 26.5087 39.1895 26.432C39.1274 26.3553 39.0509 26.2915 38.9642 26.2444C38.8775 26.1972 38.7824 26.1676 38.6843 26.1573C38.5861 26.1469 38.4869 26.1559 38.3923 26.1839C38.2977 26.2119 38.2095 26.2582 38.1327 26.3202L36.9552 27.2817C37.5809 24.14 37.0699 20.8781 35.5135 18.0781C33.9571 15.2781 31.4566 13.1222 28.458 11.995C25.4594 10.8678 22.1578 10.8426 19.1424 11.9239C16.1269 13.0053 13.5938 15.1228 11.9949 17.8987C10.3959 20.6746 9.83528 23.9283 10.4129 27.0793C10.9905 30.2302 12.6689 33.0735 15.1485 35.1017C17.6281 37.1299 20.7477 38.2112 23.9506 38.1526C27.1536 38.094 30.2315 36.8993 32.6352 34.7817C32.7844 34.6501 32.8752 34.4645 32.8876 34.2659C32.8999 34.0673 32.8329 33.8719 32.7012 33.7227C32.5696 33.5736 32.384 33.4828 32.1854 33.4704C31.9868 33.458 31.7914 33.5251 31.6422 33.6567C29.5118 35.5289 26.7856 36.5833 23.9498 36.6317C21.1141 36.6801 18.3534 35.7195 16.1603 33.9211C13.9673 32.1227 12.4845 29.6037 11.9765 26.8134C11.4686 24.0231 11.9685 21.1431 13.3872 18.6873C14.8058 16.2314 17.0509 14.3595 19.7217 13.4055C22.3926 12.4515 25.3156 12.4775 27.9691 13.4788C30.6226 14.4801 32.834 16.3917 34.2087 18.8723C35.5835 21.353 36.0322 24.2414 35.4747 27.0222L35.4732 27.0357Z" fill="white"/>
<path fill-rule="evenodd" clip-rule="evenodd" d="M18.1618 23.3623C18.1463 23.0495 18.2096 22.7378 18.3459 22.4558C18.4822 22.1738 18.6871 21.9305 18.9418 21.7483C19.3081 21.4874 19.7553 21.3654 20.2033 21.4042C20.6513 21.4429 21.0708 21.6399 21.3868 21.9598C21.6642 22.3045 21.8061 22.7387 21.7858 23.1808C21.7649 23.4182 21.6804 23.6457 21.5413 23.8393C21.3126 24.1922 21.045 24.5182 20.7433 24.8113C19.3988 26.0459 17.9194 27.1252 16.3333 28.0288C16.1893 28.1104 16.0763 28.2374 16.012 28.3899C15.9477 28.5425 15.9357 28.712 15.9778 28.8721C16.0199 29.0322 16.1138 29.1739 16.2449 29.275C16.376 29.3762 16.5368 29.4311 16.7023 29.4313H22.5328C22.7318 29.4313 22.9225 29.3523 23.0632 29.2116C23.2038 29.071 23.2828 28.8802 23.2828 28.6813C23.2828 28.4824 23.2038 28.2916 23.0632 28.1509C22.9225 28.0103 22.7318 27.9313 22.5328 27.9313H19.2718C20.175 27.3185 21.0237 26.6289 21.8083 25.8703C22.6148 25.1866 23.1409 24.2296 23.2858 23.1823C23.31 22.3785 23.0371 21.594 22.5193 20.9788C21.9578 20.388 21.2043 20.0164 20.3937 19.9307C19.5832 19.8449 18.7686 20.0506 18.0958 20.5108C17.6366 20.8271 17.2644 21.254 17.0138 21.7521C16.7632 22.2502 16.6421 22.8035 16.6618 23.3608C16.6618 23.5597 16.7409 23.7505 16.8815 23.8911C17.0222 24.0318 17.2129 24.1108 17.4118 24.1108C17.6107 24.1108 17.8015 24.0318 17.9422 23.8911C18.0828 23.7505 18.1618 23.5597 18.1618 23.3608V23.3623Z" fill="white"/>
<path fill-rule="evenodd" clip-rule="evenodd" d="M28.2434 25.257V22.47L25.4564 25.257H28.2434ZM28.2434 26.757V28.6815C28.2434 28.8805 28.3224 29.0712 28.463 29.2119C28.6037 29.3525 28.7945 29.4315 28.9934 29.4315C29.1923 29.4315 29.3831 29.3525 29.5237 29.2119C29.6644 29.0712 29.7434 28.8805 29.7434 28.6815V26.757H30.3314C30.5303 26.757 30.7211 26.678 30.8617 26.5374C31.0024 26.3967 31.0814 26.206 31.0814 26.007C31.0814 25.8081 31.0024 25.6174 30.8617 25.4767C30.7211 25.3361 30.5303 25.257 30.3314 25.257H29.7434V20.6595C29.7436 20.511 29.6998 20.3657 29.6174 20.2422C29.535 20.1186 29.4178 20.0222 29.2806 19.9654C29.1434 19.9085 28.9924 19.8936 28.8467 19.9227C28.701 19.9517 28.5673 20.0234 28.4624 20.1285L23.1134 25.4775C23.0088 25.5824 22.9377 25.7159 22.9089 25.8612C22.8801 26.0065 22.8949 26.157 22.9515 26.2938C23.0082 26.4307 23.104 26.5477 23.2271 26.6301C23.3501 26.7126 23.4948 26.7567 23.6429 26.757H28.2434Z" fill="white"/>
<defs>
<linearGradient id="paint0_linear_637_34473" x1="29.0635" y1="-37.1338" x2="-23.4406" y2="-14.8252" gradientUnits="userSpaceOnUse">
<stop offset="0.0313" stop-color="#279AFF"/>
<stop offset="0.6" stop-color="#006DD2"/>
<stop offset="1" stop-color="#0A549A"/>
</linearGradient>
</defs>
</svg>
