<svg width="52" height="53" viewBox="0 0 52 53" fill="none" xmlns="http://www.w3.org/2000/svg">
<path d="M47.5117 23.6703L44.0903 20.2566C43.8485 20.0157 43.6565 19.7295 43.5254 19.4143C43.3944 19.0991 43.3267 18.7611 43.3264 18.4198V13.5675C43.3263 12.446 42.8813 11.3703 42.089 10.5764C41.2968 9.78259 40.222 9.3354 39.1004 9.33297H34.2568C33.9152 9.33449 33.5768 9.26768 33.2614 9.13647C32.9459 9.00527 32.66 8.81231 32.4202 8.56896L28.9907 5.15531C28.198 4.36422 27.1239 3.91992 26.0041 3.91992C24.8842 3.91992 23.8101 4.36422 23.0175 5.15531L19.5798 8.56896C19.34 8.81231 19.0541 9.00527 18.7386 9.13647C18.4232 9.26768 18.0848 9.33449 17.7432 9.33297H12.8996C11.778 9.3354 10.7033 9.78259 9.91103 10.5764C9.11878 11.3703 8.67378 12.446 8.67364 13.5675V18.4198C8.67224 19.1075 8.40083 19.7671 7.91785 20.2567L4.48022 23.6703C3.69062 24.4693 3.24848 25.5478 3.25 26.6711C3.25153 27.7944 3.69658 28.8717 4.48834 29.6686L7.9097 33.0822C8.15154 33.3231 8.34349 33.6094 8.47458 33.9245C8.60566 34.2397 8.6733 34.5777 8.67362 34.919V39.7632C8.67207 40.886 9.11627 41.9635 9.90865 42.759C10.701 43.5545 11.7768 44.0029 12.8996 44.0058H17.7432C18.084 44.0047 18.4217 44.0708 18.7369 44.2006C19.0521 44.3303 19.3385 44.521 19.5798 44.7617L23.0093 48.1835C23.8033 48.9752 24.8788 49.4197 26 49.4197C27.1212 49.4197 28.1967 48.9752 28.9907 48.1835L32.4121 44.7617C32.9034 44.2766 33.5664 44.005 34.2569 44.0058H39.1004C40.2232 44.0029 41.299 43.5545 42.0914 42.759C42.8837 41.9635 43.3279 40.886 43.3264 39.7632V34.919C43.3278 34.2314 43.5992 33.5717 44.0822 33.0822L47.5198 29.6604C48.3093 28.863 48.7515 27.7858 48.75 26.6637C48.7485 25.5415 48.3033 24.4655 47.5117 23.6703ZM35.1996 35.87C33.8575 37.1989 32.2432 38.2208 30.4679 38.8653C28.6927 39.5098 26.7987 39.7615 24.9168 39.6031C23.0348 39.4447 21.2096 38.8799 19.567 37.9477C17.9245 37.0156 16.5037 35.7382 15.4026 34.2037C9.10545 25.4752 15.9039 13.07 26.6584 13.6814C37.8073 14.1842 43.1659 27.9772 35.1996 35.87ZM26.577 15.3068C17.1692 14.7689 11.2132 25.6243 16.7275 33.2692C17.6922 34.6098 18.9361 35.7254 20.3734 36.5392C21.8107 37.3529 23.4073 37.8455 25.0532 37.983C26.6991 38.1204 28.3553 37.8996 29.9077 37.3355C31.4601 36.7715 32.8718 35.8777 34.0456 34.7158C41.0304 27.8709 36.3021 15.6942 26.577 15.3068ZM32.5584 23.2558L24.5778 31.2372C24.426 31.3867 24.222 31.4713 24.0089 31.4729C23.7935 31.4713 23.5869 31.3869 23.432 31.2372L19.4417 27.2465C19.293 27.0936 19.2104 26.8885 19.2115 26.6752C19.2126 26.462 19.2974 26.2578 19.4477 26.1065C19.5979 25.9551 19.8015 25.8689 20.0148 25.8663C20.228 25.8636 20.4337 25.9448 20.5876 26.0924L24.0089 29.506L31.4124 22.1017C31.5665 21.9548 31.772 21.8741 31.9848 21.877C32.1977 21.8799 32.4009 21.9662 32.5509 22.1172C32.7009 22.2683 32.7857 22.4721 32.7871 22.685C32.7885 22.8978 32.7064 23.1028 32.5584 23.2558Z" fill="url(#paint0_linear_637_34467)"/>
<defs>
<linearGradient id="paint0_linear_637_34467" x1="30.949" y1="-37.9752" x2="-23.969" y2="-14.6408" gradientUnits="userSpaceOnUse">
<stop offset="0.0313" stop-color="#279AFF"/>
<stop offset="0.6" stop-color="#006DD2"/>
<stop offset="1" stop-color="#0A549A"/>
</linearGradient>
</defs>
</svg>
