<svg width="18" height="18" viewBox="0 0 18 18" fill="none" xmlns="http://www.w3.org/2000/svg">
<path d="M7.08335 3.16667H10.4167C10.4167 2.72464 10.2411 2.30072 9.92853 1.98816C9.61597 1.67559 9.19205 1.5 8.75002 1.5C8.30799 1.5 7.88407 1.67559 7.57151 1.98816C7.25895 2.30072 7.08335 2.72464 7.08335 3.16667ZM5.83335 3.16667C5.83335 2.78364 5.90879 2.40437 6.05537 2.05051C6.20195 1.69664 6.41679 1.37511 6.68762 1.10427C6.95846 0.833434 7.27999 0.618594 7.63386 0.472018C7.98773 0.325442 8.367 0.25 8.75002 0.25C9.13304 0.25 9.51231 0.325442 9.86618 0.472018C10.22 0.618594 10.5416 0.833434 10.8124 1.10427C11.0833 1.37511 11.2981 1.69664 11.4447 2.05051C11.5912 2.40437 11.6667 2.78364 11.6667 3.16667H16.4584C16.6241 3.16667 16.7831 3.23251 16.9003 3.34973C17.0175 3.46694 17.0834 3.62591 17.0834 3.79167C17.0834 3.95743 17.0175 4.1164 16.9003 4.23361C16.7831 4.35082 16.6241 4.41667 16.4584 4.41667H15.3584L14.3834 14.5092C14.3086 15.2825 13.9484 16.0002 13.3731 16.5224C12.7978 17.0445 12.0486 17.3336 11.2717 17.3333H6.22835C5.45157 17.3334 4.7026 17.0442 4.12748 16.5221C3.55235 16 3.1923 15.2823 3.11752 14.5092L2.14169 4.41667H1.04169C0.875927 4.41667 0.716955 4.35082 0.599745 4.23361C0.482535 4.1164 0.416687 3.95743 0.416687 3.79167C0.416687 3.62591 0.482535 3.46694 0.599745 3.34973C0.716955 3.23251 0.875927 3.16667 1.04169 3.16667H5.83335ZM7.50002 7.125C7.50002 6.95924 7.43417 6.80027 7.31696 6.68306C7.19975 6.56585 7.04078 6.5 6.87502 6.5C6.70926 6.5 6.55029 6.56585 6.43308 6.68306C6.31587 6.80027 6.25002 6.95924 6.25002 7.125V13.375C6.25002 13.5408 6.31587 13.6997 6.43308 13.8169C6.55029 13.9342 6.70926 14 6.87502 14C7.04078 14 7.19975 13.9342 7.31696 13.8169C7.43417 13.6997 7.50002 13.5408 7.50002 13.375V7.125ZM10.625 6.5C10.7908 6.5 10.9497 6.56585 11.067 6.68306C11.1842 6.80027 11.25 6.95924 11.25 7.125V13.375C11.25 13.5408 11.1842 13.6997 11.067 13.8169C10.9497 13.9342 10.7908 14 10.625 14C10.4593 14 10.3003 13.9342 10.1831 13.8169C10.0659 13.6997 10 13.5408 10 13.375V7.125C10 6.95924 10.0659 6.80027 10.1831 6.68306C10.3003 6.56585 10.4593 6.5 10.625 6.5ZM4.36169 14.3892C4.40663 14.853 4.62272 15.2835 4.96783 15.5968C5.31293 15.91 5.76231 16.0834 6.22835 16.0833H11.2717C11.7377 16.0834 12.1871 15.91 12.5322 15.5968C12.8773 15.2835 13.0934 14.853 13.1384 14.3892L14.1034 4.41667H3.39669L4.36169 14.3892Z" fill="#FAFAFA"/>
</svg>
