<svg width="42" height="28" viewBox="0 0 42 28" fill="none" xmlns="http://www.w3.org/2000/svg">
<path d="M8.07694 1.83398C8.39432 1.86665 8.69152 1.84104 9.0088 1.83703C9.3249 1.83262 9.62038 1.83551 9.93728 1.83452C10.2547 1.86812 10.552 1.84219 10.8693 1.83803C11.1854 1.83317 11.4809 1.83571 11.7978 1.83398C12.1152 1.86665 12.4124 1.84104 12.7297 1.83703C13.0458 1.83256 13.3414 1.83541 13.6583 1.83398C13.9757 1.86665 14.2729 1.84104 14.5901 1.83703C14.9063 1.83256 15.2019 1.83541 15.5188 1.83398C15.8361 1.86665 16.1333 1.84104 16.4506 1.83703C16.7668 1.83256 17.0623 1.83541 17.3792 1.83398C17.6966 1.86665 17.9938 1.84104 18.3111 1.83703C18.6272 1.83256 18.9228 1.83541 19.2397 1.83398C19.5571 1.86665 19.8543 1.84104 20.1715 1.83703C20.4877 1.83256 20.7833 1.83541 21.1003 1.83398C21.4176 1.86665 21.7147 1.84104 22.032 1.83703C22.3482 1.83256 22.6437 1.83541 22.9606 1.83398C23.278 1.86665 23.5752 1.84104 23.8925 1.83703C24.2086 1.83256 24.5042 1.83541 24.8211 1.83399C25.1385 1.86665 25.4357 1.84104 25.7529 1.83703C26.0691 1.83256 26.3647 1.83541 26.6817 1.83399C26.999 1.86665 27.2961 1.84104 27.6134 1.83703C27.9296 1.83256 28.2251 1.83541 28.542 1.83399C28.8594 1.86665 29.1566 1.84104 29.4739 1.83703C29.79 1.83256 30.0856 1.83541 30.4025 1.83399C30.7199 1.86665 31.0172 1.84104 31.3344 1.83703C31.6506 1.83256 31.9461 1.83541 32.263 1.83399C32.5803 1.86665 32.8775 1.84104 33.1948 1.83703C33.511 1.83256 33.8065 1.83541 34.1234 1.83399C34.4408 1.86665 34.738 1.84104 35.0553 1.83703C35.3715 1.83436 35.6672 1.83901 35.9845 1.84106C36.0377 1.84784 36.0692 1.85721 36.1176 1.86446C36.3988 1.78937 36.6423 1.88834 36.9083 1.94787C37.2486 2.06425 37.5513 2.21361 37.853 2.39954C37.9638 2.47611 38.0659 2.53779 38.1641 2.62899C38.4128 2.86605 38.6569 3.08741 38.7842 3.40885C38.8026 3.45508 38.8175 3.48634 38.842 3.52708C38.9804 3.8132 39.1147 4.08801 39.181 4.40222C39.2353 4.69104 39.2623 4.96681 39.2586 5.2649C39.2603 5.56265 39.2575 5.84058 39.2589 6.13862C39.2603 6.43644 39.2572 6.71416 39.2587 7.01192C39.2604 7.3099 39.2575 7.58784 39.2589 7.88589C39.2603 8.18371 39.2572 8.46143 39.2587 8.75919C39.2604 9.05717 39.2575 9.33511 39.2589 9.63316C39.2603 9.93098 39.2572 10.2087 39.2587 10.5065C39.2604 10.8044 39.2575 11.0824 39.2589 11.3804C39.2603 11.6783 39.2572 11.956 39.2587 12.2537C39.2604 12.5517 39.2575 12.8297 39.2589 13.1277C39.2603 13.4255 39.2572 13.7032 39.2587 14.001C39.2604 14.299 39.2575 14.5769 39.2589 14.875C39.2603 15.1728 39.2572 15.4505 39.2587 15.7483C39.2604 16.0463 39.2575 16.3242 39.2589 16.6222C39.2603 16.9201 39.2572 17.1978 39.2587 17.4955C39.2604 17.7935 39.2575 18.0715 39.2589 18.3695C39.2603 18.6673 39.2572 18.9451 39.2587 19.2428C39.2604 19.5408 39.2575 19.8187 39.2589 20.1168C39.2603 20.4146 39.2572 20.6923 39.2587 20.9901C39.2604 21.2881 39.2575 21.566 39.2589 21.8641C39.2603 22.1619 39.2572 22.4396 39.2586 22.7373C39.2461 23.0331 39.2544 23.3108 39.1891 23.6015C39.1158 23.8956 39.023 24.1643 38.8853 24.4341C38.8386 24.5156 38.7943 24.5819 38.7473 24.6628C38.7035 24.9151 38.4916 25.047 38.3568 25.2264C38.3131 25.2846 38.25 25.3296 38.1855 25.3927C38.0866 25.4814 37.981 25.5378 37.8795 25.6243C37.5786 25.8087 37.2865 25.9753 36.9372 26.0719C36.6782 26.1448 36.436 26.2138 36.1608 26.2031C36.1085 26.2018 36.0741 26.2026 36.0228 26.2071C35.7098 26.209 35.4137 26.207 35.0962 26.2095C34.7796 26.2122 34.4843 26.2105 34.1674 26.2114C33.8496 26.211 33.5534 26.208 33.2358 26.2095C32.9191 26.2122 32.6239 26.2105 32.307 26.2114C31.9892 26.211 31.6929 26.208 31.3753 26.2095C31.0586 26.2122 30.7633 26.2105 30.4466 26.2114C30.1287 26.211 29.8324 26.208 29.5148 26.2095C29.1982 26.2122 28.903 26.2105 28.5861 26.2114C28.2682 26.211 27.972 26.208 27.6544 26.2095C27.3377 26.2122 27.0424 26.2105 26.7255 26.2114C26.4079 26.211 26.1117 26.208 25.7941 26.2093C25.4774 26.2118 25.1819 26.2099 24.865 26.2108C24.5471 26.2107 24.251 26.2079 23.9334 26.2095C23.6168 26.2122 23.3216 26.2105 23.0047 26.2114C22.6868 26.211 22.3906 26.208 22.073 26.2095C21.7563 26.2122 21.4611 26.2105 21.1441 26.2114C20.8263 26.211 20.5301 26.208 20.2125 26.2095C19.8958 26.2122 19.6005 26.2105 19.2838 26.2114C18.9659 26.211 18.6696 26.208 18.352 26.2095C18.0354 26.2122 17.7401 26.2105 17.4232 26.2114C17.1054 26.211 16.8092 26.208 16.4916 26.2095C16.1749 26.2122 15.8796 26.2105 15.5627 26.2114C15.2449 26.211 14.9487 26.208 14.6311 26.2095C14.3144 26.2122 14.0191 26.2105 13.7023 26.2114C13.3845 26.211 13.0882 26.208 12.7706 26.2095C12.454 26.2122 12.1587 26.2105 11.8418 26.2114C11.524 26.211 11.2278 26.208 10.9102 26.2095C10.5935 26.2122 10.2982 26.2105 9.98138 26.2114C9.66357 26.211 9.36735 26.208 9.04975 26.2095C8.73309 26.2122 8.4378 26.2105 8.12092 26.2114C7.8031 26.211 7.50688 26.208 7.18929 26.2095C6.87263 26.2122 6.57733 26.2105 6.26045 26.2114C5.94277 26.2098 5.64668 26.2057 5.32921 26.2058C5.28757 26.2065 5.26731 26.2028 5.23169 26.2015C4.94486 26.225 4.68768 26.159 4.41416 26.085C4.08863 25.9656 3.78936 25.8339 3.49964 25.6498C3.38446 25.5773 3.29195 25.5037 3.19408 25.4119C2.93145 25.1685 2.67763 24.9381 2.52967 24.6157C2.52371 24.5715 2.51412 24.5424 2.49351 24.5077C2.20851 23.963 2.04988 23.4003 2.08229 22.7775C2.08174 22.4799 2.08542 22.2023 2.08441 21.9048C2.08275 21.6064 2.08579 21.3281 2.08427 21.0296C2.08284 20.7321 2.08597 20.4548 2.08441 20.1575C2.08275 19.8592 2.08579 19.5808 2.08427 19.2823C2.08284 18.9849 2.08597 18.7075 2.08441 18.4102C2.08275 18.1119 2.08579 17.8335 2.08427 17.535C2.08284 17.2376 2.08597 16.9603 2.08441 16.663C2.08275 16.3646 2.08579 16.0862 2.08427 15.7878C2.08284 15.4903 2.08597 15.213 2.08441 14.9157C2.08275 14.6173 2.08579 14.339 2.08427 14.0405C2.08284 13.743 2.08597 13.4657 2.08441 13.1684C2.08275 12.8701 2.08579 12.5917 2.08427 12.2932C2.08284 11.9958 2.08597 11.7185 2.08441 11.4212C2.08275 11.1228 2.08579 10.8444 2.08427 10.5459C2.08284 10.2485 2.08597 9.97119 2.08441 9.67389C2.08275 9.37553 2.08579 9.09716 2.08427 8.79867C2.08284 8.50124 2.08597 8.22392 2.08441 7.92662C2.08275 7.62826 2.08579 7.34989 2.08427 7.0514C2.08284 6.75397 2.08597 6.47665 2.08441 6.17935C2.08276 5.88102 2.0858 5.60266 2.08435 5.30419C2.10103 5.0054 2.07932 4.72374 2.1442 4.42989C2.23556 4.12509 2.32334 3.83679 2.4792 3.5554C2.49579 3.52225 2.50892 3.50477 2.52358 3.47635C2.62556 3.12038 2.91341 2.90626 3.17156 2.65228C3.25507 2.577 3.32436 2.50992 3.41813 2.44482C3.72366 2.2442 4.03332 2.08469 4.38638 1.96664C4.67594 1.87113 4.95662 1.82471 5.25743 1.83849C5.27668 1.85397 5.28428 1.85562 5.29958 1.84899C5.60323 1.8399 5.89917 1.83907 6.21647 1.83398C6.53386 1.86665 6.83105 1.84104 7.14833 1.83703C7.4645 1.83256 7.76004 1.83541 8.07694 1.83398Z" fill="#FAFAFA"/>
<path d="M34.377 2.0624C35.0273 2.07846 35.6566 2.02071 36.2817 2.09823C37.8179 2.28873 39.0201 3.55978 39.021 5.01188C39.0249 11.0179 39.0254 17.0239 39.0207 23.03C39.0194 24.6581 37.5735 25.975 35.7954 25.9777C32.9118 25.9821 30.0281 25.9789 27.1445 25.9789C19.9587 25.9789 12.7729 25.9792 5.5871 25.9786C3.95529 25.9785 2.66166 24.9791 2.3558 23.4857C2.31607 23.2917 2.31503 23.0949 2.31503 22.8983C2.31496 16.9869 2.33107 11.0755 2.30472 5.16418C2.29726 3.48972 3.70412 2.05529 5.61055 2.05744C15.1916 2.06824 24.7727 2.0624 34.377 2.0624Z" fill="url(#paint0_linear_1_2701)"/>
<path d="M25.8169 6.46242C25.9294 6.18921 26.0422 5.934 26.1404 5.67391C26.1809 5.56652 26.2397 5.53144 26.3596 5.53232C27.0495 5.53736 27.7394 5.53883 28.4292 5.53128C28.5664 5.52978 28.6138 5.58506 28.659 5.69129C29.8664 8.53261 31.0769 11.3728 32.2871 14.2131C32.5198 14.7594 32.7497 15.3068 32.9893 15.8505C33.0466 15.9805 33.0196 16.0092 32.8754 16.0082C32.17 16.0032 31.4646 16.0019 30.7593 16.0094C30.6225 16.0109 30.5727 15.9584 30.5292 15.8502C30.2557 15.1704 29.97 14.4948 29.7025 13.8129C29.6437 13.6631 29.5647 13.6234 29.4026 13.6242C28.0616 13.6303 26.7205 13.6306 25.3795 13.6238C25.22 13.623 25.1538 13.6676 25.1014 13.8087C24.8519 14.4812 24.584 15.1476 24.3322 15.8193C24.2813 15.9548 24.2209 16.0126 24.0557 16.0103C23.3362 16.0001 22.6164 16.0059 21.8594 16.0059C23.1844 12.8116 24.4978 9.645 25.8169 6.46242Z" fill="#FAFAFA"/>
<path d="M9.47354 7.02377C9.50807 6.80651 9.60715 6.63324 9.71061 6.46263C10.0143 5.96178 10.3864 5.50572 10.7667 5.05547C10.8025 5.01311 10.8294 4.92208 10.9258 4.98362C10.9925 5.02615 11.0087 5.07894 10.9828 5.15229C10.8559 5.51112 10.9945 5.75299 11.3248 5.96164C11.8899 6.31853 12.4311 6.70891 12.9799 7.08824C13.2243 7.25711 13.4454 7.45032 13.6276 7.67985C14.0923 8.26532 14.1507 8.89229 13.7628 9.51834C13.3578 10.1721 12.8543 10.7663 12.3766 11.3751C12.3418 11.4195 12.3105 11.4757 12.2293 11.4217C12.1543 11.3718 12.1669 11.3283 12.1984 11.2592C12.459 10.6891 12.3848 10.3817 11.861 10.0058C11.3506 9.63946 10.8207 9.29716 10.3036 8.93884C9.62052 8.46553 9.29643 7.84939 9.47354 7.02377Z" fill="#FAFAFA"/>
<path d="M31.9202 8.57585C31.9019 8.41237 32.0089 8.43272 32.1006 8.43273C32.5501 8.43282 32.9997 8.42785 33.449 8.43572C33.5877 8.43815 33.6363 8.40885 33.6326 8.26896C33.6219 7.86164 33.6395 7.45354 33.6237 7.04652C33.617 6.87393 33.6785 6.84009 33.8447 6.84894C34.0919 6.86211 34.341 6.86174 34.5883 6.84887C34.7391 6.84102 34.7671 6.89286 34.7645 7.02149C34.7564 7.43619 34.7676 7.85125 34.758 8.2659C34.7548 8.4023 34.7983 8.43845 34.9405 8.43583C35.3898 8.42758 35.8394 8.4374 36.2888 8.42995C36.4245 8.42769 36.4816 8.45125 36.4743 8.59446C36.4609 8.85587 36.4635 9.11854 36.4735 9.38021C36.4783 9.50606 36.4342 9.53893 36.3042 9.53688C35.8626 9.52989 35.4206 9.54164 34.9792 9.53043C34.8099 9.52613 34.7508 9.56187 34.7568 9.73202C34.7712 10.1392 34.7554 10.5472 34.765 10.9545C34.7682 11.0918 34.7224 11.1296 34.5808 11.1243C34.3177 11.1143 34.0536 11.1143 33.7906 11.1243C33.651 11.1297 33.6242 11.0788 33.6262 10.9605C33.6329 10.5531 33.6206 10.1452 33.6329 9.73795C33.6377 9.57892 33.6003 9.52374 33.419 9.52978C33.0011 9.54371 32.5815 9.52038 32.1641 9.53987C31.9455 9.55007 31.9032 9.47841 31.9162 9.29497C31.9327 9.06311 31.9202 8.82943 31.9202 8.57585Z" fill="#FAFAFA"/>
<path d="M33.4623 21.0369C33.1919 20.4258 33.1981 19.8284 33.4781 19.2427C33.8959 18.369 35.0074 18.159 35.7575 18.8025C35.7789 18.8209 35.803 18.8366 35.8258 18.8536C35.8399 18.8372 35.8537 18.8283 35.856 18.8172C35.8762 18.7206 35.8047 18.567 35.8954 18.536C36.0326 18.4893 36.1994 18.5167 36.3536 18.5182C36.4336 18.5189 36.4236 18.5815 36.423 18.6308C36.4088 19.7221 36.4524 20.8136 36.398 21.9047C36.3467 22.9331 35.5538 23.2393 34.7382 23.2244C34.41 23.2183 34.0926 23.1564 33.8115 22.9797C33.5462 22.8131 33.4264 22.5737 33.3951 22.283C33.3821 22.1621 33.4253 22.1251 33.5496 22.152C33.6399 22.1715 33.7325 22.1849 33.8249 22.1917C33.9285 22.1992 33.9905 22.2284 34.0163 22.3383C34.0558 22.506 34.1872 22.6064 34.3539 22.6722C35.0895 22.9626 35.7393 22.5947 35.7898 21.8549C35.7977 21.7395 35.7909 21.6233 35.7909 21.4642C35.3462 21.8752 34.8358 21.9496 34.2852 21.7855C33.8918 21.6682 33.645 21.3915 33.4623 21.0369Z" fill="#FAFAFA"/>
<path d="M8.72336 10.6025C8.85983 10.0289 9.25252 9.62356 9.62487 9.20613C9.67872 9.14576 9.72901 9.15721 9.78347 9.19753C9.82799 9.23049 9.897 9.24624 9.84561 9.3299C9.74922 9.48684 9.86228 9.59025 9.97303 9.68458C10.2147 9.89043 10.5007 10.0388 10.7652 10.215C10.9542 10.341 11.1487 10.4622 11.3231 10.6045C11.9691 11.1315 12.0523 11.7378 11.5701 12.4039C11.3834 12.6619 11.1711 12.9036 10.9814 13.1598C10.9178 13.2456 10.863 13.2181 10.788 13.1944C10.6999 13.1667 10.6866 13.1227 10.7194 13.0461C10.7949 12.8699 10.6954 12.7539 10.5543 12.6583C10.1592 12.3907 9.75882 12.13 9.36798 11.8571C8.92953 11.5509 8.62586 11.1759 8.72336 10.6025Z" fill="#FAFAFA"/>
<path d="M6.43243 15.6257C6.86551 15.6257 7.27617 15.6243 7.68682 15.6264C7.85694 15.6272 8.02702 15.6275 8.1953 15.6631C8.53437 15.7349 8.84407 15.8495 8.93799 16.2043C9.03584 16.5738 8.90534 16.8762 8.57381 17.1004C9.03589 17.3112 9.16149 17.5027 9.12156 17.931C9.08945 18.2753 8.82806 18.5417 8.41547 18.6534C8.27278 18.692 8.12769 18.7094 7.97966 18.7094C7.48378 18.7093 6.98785 18.706 6.49203 18.7117C6.35411 18.7132 6.28751 18.6967 6.28909 18.538C6.29826 17.6212 6.29344 16.7043 6.29384 15.7874C6.29387 15.7101 6.2705 15.6157 6.43243 15.6257Z" fill="#FAFAFA"/>
<path d="M15.2668 16.5373C15.228 16.7852 15.097 16.9578 14.8738 17.1042C15.1083 17.1865 15.3042 17.2941 15.3874 17.5129C15.4658 17.7189 15.4673 17.9281 15.3818 18.1316C15.2268 18.5004 14.8973 18.6683 14.5108 18.6894C13.9166 18.722 13.3194 18.7038 12.7234 18.7098C12.6296 18.7108 12.6073 18.6707 12.6074 18.5909C12.6092 17.6384 12.609 16.6859 12.6076 15.7334C12.6075 15.6629 12.6269 15.6231 12.7108 15.6262C13.3361 15.6492 13.9671 15.5621 14.5865 15.6835C15.091 15.7825 15.2901 16.0445 15.2668 16.5373Z" fill="#FAFAFA"/>
<path d="M10.0982 15.6291C10.5383 15.6429 10.958 15.5924 11.3719 15.6696C11.7223 15.735 12.0331 15.8622 12.1185 16.2309C12.2024 16.593 12.0722 16.8877 11.746 17.1032C12.2076 17.312 12.3346 17.5051 12.2932 17.9313C12.2591 18.2826 12.0072 18.5423 11.5924 18.6556C11.45 18.6945 11.305 18.712 11.1571 18.7119C10.6617 18.7117 10.1662 18.7074 9.671 18.7147C9.52746 18.7168 9.4714 18.69 9.47268 18.5392C9.48045 17.6233 9.48013 16.7073 9.47276 15.7915C9.47163 15.6506 9.5194 15.6163 9.65714 15.6268C9.79555 15.6373 9.93559 15.6291 10.0982 15.6291Z" fill="#FAFAFA"/>
<path d="M24.2381 21.8492C23.8057 21.6776 23.5888 21.3795 23.5979 20.959C23.607 20.5397 23.8438 20.2526 24.2493 20.0841C24.6108 19.9338 25.0055 19.9439 25.3838 19.8749C25.5431 19.8458 25.7014 19.8092 25.8621 19.7907C26.0498 19.7692 26.1024 19.6806 26.0809 19.5104C26.0376 19.1687 25.9111 19.0229 25.5483 18.9426C25.3343 18.8952 25.1187 18.9027 24.9031 18.9368C24.6435 18.9779 24.4549 19.1114 24.378 19.3453C24.3228 19.5134 24.2366 19.5498 24.0599 19.5196C23.6654 19.4523 23.6558 19.4438 23.8285 19.0999C23.9576 18.843 24.1661 18.6668 24.446 18.5702C24.9396 18.3998 25.4467 18.3789 25.9531 18.5035C26.4625 18.6289 26.6812 18.9031 26.6951 19.428C26.7088 19.9513 26.7028 20.4751 26.7052 20.9987C26.7064 21.2831 26.723 21.565 26.8718 21.8241C26.3574 21.9524 26.2294 21.8945 26.1197 21.4697C25.5633 21.8935 24.9486 22.0542 24.2381 21.8492Z" fill="#FAFAFA"/>
<path d="M12.6251 14.2036C12.4585 14.1794 12.3816 14.2273 12.3434 14.3707C12.2818 14.602 12.2637 14.905 12.0992 15.0342C11.9211 15.1741 11.594 15.0711 11.3322 15.0741C10.8284 15.08 10.3243 15.0705 9.82064 15.0793C9.67871 15.0818 9.60251 15.0433 9.58332 14.9118C9.58125 14.8976 9.57538 14.8837 9.56992 14.8701C9.48305 14.6538 9.49512 14.3441 9.31109 14.2381C9.12938 14.1333 8.83061 14.2061 8.58317 14.204C8.3358 14.2019 8.0884 14.2036 7.8125 14.2036C7.88575 14.0153 7.95374 13.8482 8.01539 13.6791C8.04795 13.5897 8.11757 13.5871 8.1994 13.5872C9.97458 13.5882 11.7498 13.5888 13.5249 13.5859C13.6347 13.5857 13.6886 13.6162 13.7268 13.716C13.9136 14.2046 13.9167 14.2036 13.3676 14.2036C13.1273 14.2036 12.887 14.2036 12.6251 14.2036Z" fill="#FAFAFA"/>
<path d="M30.5383 21.8593C30.0307 21.8596 30.0307 21.8596 30.0307 21.3916C30.0307 20.5042 30.0342 19.6169 30.0274 18.7296C30.0262 18.5719 30.0478 18.4947 30.2479 18.5063C30.5467 18.5238 30.5477 18.5096 30.5971 18.9234C30.83 18.6749 31.0933 18.5069 31.4334 18.4501C32.3198 18.3023 32.9154 18.744 32.9286 19.5848C32.9397 20.2901 32.9299 20.9958 32.9366 21.7012C32.9377 21.8241 32.9006 21.8608 32.7682 21.8629C32.323 21.8699 32.3234 21.8752 32.323 21.4617C32.3225 20.8726 32.3278 20.2833 32.3179 19.6943C32.313 19.4023 32.2546 19.1202 31.9168 18.9932C31.5703 18.8631 31.246 18.9209 30.9556 19.1313C30.7285 19.2958 30.6592 19.5379 30.6547 19.7904C30.6434 20.4157 30.6478 21.0413 30.641 21.6666C30.6403 21.7348 30.694 21.8362 30.5383 21.8593Z" fill="#FAFAFA"/>
<path d="M19.0242 21.0525C19.0242 15.36 19.0241 9.68936 19.0242 4.01873C19.0242 3.9605 19.0219 3.90213 19.0254 3.84407C19.0297 3.77177 19.0892 3.77343 19.1441 3.77344C19.1996 3.77345 19.2573 3.77359 19.2592 3.84703C19.2608 3.90524 19.2598 3.9635 19.2598 4.02173C19.2598 10.6824 19.2598 17.343 19.2598 24.0036C19.2598 24.0618 19.2582 24.1201 19.2593 24.1783C19.2606 24.2498 19.2115 24.2589 19.1522 24.2583C19.0894 24.2577 19.0231 24.2635 19.0246 24.1753C19.0255 24.1243 19.0242 24.0734 19.0242 24.0224C19.0241 23.0397 19.0242 22.057 19.0242 21.0525Z" fill="#FAFAFA"/>
<path d="M27.4146 17.7042C27.5391 17.5646 27.7188 17.5089 27.8683 17.4099C27.9638 17.3468 28.0021 17.3689 28.0006 17.48C27.9967 17.7635 28.0065 18.0474 27.9961 18.3307C27.991 18.4687 28.0256 18.5372 28.1855 18.5147C28.2461 18.5061 28.3104 18.5209 28.3709 18.5119C28.5681 18.4824 28.6102 18.5618 28.612 18.7388C28.6139 18.9257 28.5501 18.9862 28.363 18.9588C28.3101 18.9511 28.2537 18.9642 28.2008 18.9564C28.0391 18.9326 27.9925 18.9892 27.9951 19.1443C28.0054 19.755 27.9963 20.366 28.0013 20.9768C28.004 21.3139 28.0779 21.3917 28.4258 21.3591C28.6818 21.3351 28.6117 21.5093 28.6501 21.6193C28.7134 21.8011 28.6662 21.9095 28.4339 21.8951C28.3188 21.888 28.2016 21.9073 28.0868 21.8982C27.621 21.8613 27.4128 21.6685 27.4035 21.2317C27.3892 20.5557 27.3859 19.8792 27.396 19.2031C27.3989 19.008 27.3503 18.9185 27.1341 18.9577C26.8981 19.0005 26.9493 18.8443 26.9366 18.7187C26.921 18.5641 26.9619 18.4786 27.1461 18.5134C27.3593 18.5537 27.4139 18.4629 27.3945 18.276C27.3773 18.1104 27.3915 17.9419 27.3964 17.7546C27.4072 17.7284 27.4134 17.7222 27.4146 17.7042Z" fill="#FAFAFA"/>
<path d="M21.8734 21.8057C21.8614 20.7342 21.8581 19.67 21.8598 18.5859C21.8724 18.5589 21.8801 18.5519 21.8992 18.5346C22.3602 18.4946 22.3602 18.4946 22.4218 18.906C22.4982 18.899 22.5059 18.8308 22.5386 18.7881C22.829 18.4079 23.2383 18.3266 23.6782 18.5536C23.7765 18.6043 23.7966 18.6538 23.7478 18.7416C23.7265 18.7799 23.7058 18.8207 23.697 18.8626C23.6526 19.073 23.5724 19.1464 23.3162 19.0581C22.9824 18.943 22.6878 19.1157 22.5678 19.4338C22.4843 19.6551 22.4628 19.8861 22.463 20.1196C22.4634 20.6276 22.4538 21.1359 22.4679 21.6436C22.4731 21.8293 22.4105 21.8895 22.2219 21.865C22.1309 21.8532 22.0368 21.8618 21.9266 21.8551C21.9012 21.8364 21.8921 21.8244 21.8734 21.8057Z" fill="#FAFAFA"/>
<path d="M29.4564 21.187C29.4564 21.3253 29.4564 21.4417 29.4564 21.5581C29.4564 21.8622 29.4556 21.849 29.1231 21.8669C28.9055 21.8787 28.8367 21.8302 28.84 21.6112C28.8548 20.6509 28.8502 19.6903 28.8427 18.7299C28.8414 18.5675 28.8721 18.5028 29.0659 18.5103C29.4559 18.5253 29.4564 18.5136 29.4564 18.8732C29.4564 19.6372 29.4564 20.4012 29.4564 21.187Z" fill="#FAFAFA"/>
<path d="M11.2848 19.8111C11.2872 19.7264 11.3266 19.7055 11.391 19.7066C11.5302 19.709 11.6705 19.699 11.8086 19.7115C12.0401 19.7323 12.1941 19.847 12.245 20.069C12.303 20.3215 12.308 20.5742 12.2416 20.825C12.1652 21.1132 12.016 21.2183 11.695 21.2222C11.6176 21.2232 11.5392 21.2151 11.463 21.2239C11.3174 21.2408 11.2788 21.1837 11.2814 21.0521C11.2894 20.6452 11.2844 20.238 11.2848 19.8111Z" fill="#FAFAFA"/>
<path d="M29.4476 17.2768C29.4555 17.361 29.4564 17.4264 29.4565 17.4919C29.4566 17.9407 29.4513 17.9685 28.9775 17.8893C28.6976 17.8425 28.8957 17.581 28.8507 17.4226C28.8278 17.3421 28.8077 17.2219 28.9798 17.2378C29.1327 17.252 29.2884 17.2161 29.4476 17.2768Z" fill="#FAFAFA"/>
<path d="M27.4035 17.7013C27.4177 17.6998 27.4249 17.7083 27.4299 17.7177C27.4308 17.7195 27.4225 17.7255 27.4101 17.7328C27.3998 17.7279 27.3978 17.7197 27.4035 17.7013Z" fill="#FAFAFA"/>
<path d="M21.8991 18.5234C21.9091 18.5394 21.9001 18.5508 21.8763 18.5637C21.872 18.5527 21.8782 18.5372 21.8991 18.5234Z" fill="#FAFAFA"/>
<path d="M21.8633 21.8116C21.8771 21.8072 21.8893 21.8169 21.9056 21.8374C21.8937 21.8407 21.8776 21.8332 21.8633 21.8116Z" fill="#FAFAFA"/>
<path d="M27.4817 8.27064C27.928 9.40317 28.3648 10.5215 28.8126 11.6359C28.8811 11.8063 28.8912 11.8667 28.6591 11.8635C27.7993 11.8516 26.9392 11.8552 26.0792 11.8617C25.9065 11.8631 25.8722 11.8359 25.9364 11.6726C26.4027 10.4872 26.8583 9.29804 27.3179 8.1103C27.3282 8.08371 27.3455 8.0595 27.3709 8.01367C27.4108 8.10569 27.4432 8.18042 27.4817 8.27064Z" fill="url(#paint1_linear_1_2701)"/>
<path d="M34.9708 21.3748C34.4152 21.3827 34.0837 21.1417 33.9583 20.6423C33.8756 20.313 33.8713 19.9791 33.9575 19.6494C34.0749 19.2005 34.4168 18.9191 34.8384 18.9123C35.28 18.9051 35.6417 19.1705 35.7747 19.618C35.8895 20.0045 35.8846 20.3958 35.7468 20.7765C35.6252 21.1125 35.3744 21.3202 34.9708 21.3748Z" fill="url(#paint2_linear_1_2701)"/>
<path d="M7.3575 18.132C7.30399 18.132 7.27239 18.1278 7.24244 18.1327C7.04494 18.1647 6.97859 18.1015 6.98703 17.9028C7.00544 17.469 6.99234 17.4678 7.46449 17.4689C7.67257 17.4694 7.88119 17.4657 8.08851 17.4788C8.24278 17.4885 8.37193 17.5421 8.39143 17.7186C8.4114 17.8994 8.35776 18.0324 8.161 18.0914C7.90446 18.1682 7.64037 18.1169 7.3575 18.132Z" fill="url(#paint3_linear_1_2701)"/>
<path d="M8.16317 16.7442C7.94382 16.9243 7.69366 16.8612 7.45945 16.8654C7.01628 16.8733 7.02614 16.8674 7.01231 16.4505C7.00621 16.2668 7.04466 16.1859 7.26126 16.2089C7.4753 16.2317 7.69603 16.2029 7.90898 16.2301C8.22632 16.2707 8.3125 16.4503 8.16317 16.7442Z" fill="url(#paint4_linear_1_2701)"/>
<path d="M14.5142 17.5021C14.701 17.5615 14.7091 17.6907 14.7065 17.8269C14.7042 17.9519 14.6335 18.0382 14.5164 18.0743C14.14 18.1902 13.7508 18.1124 13.3675 18.1286C13.3334 18.1301 13.3095 18.1095 13.3093 18.0752C13.3087 17.894 13.3077 17.7128 13.3101 17.5316C13.3109 17.4718 13.3626 17.4681 13.4099 17.4696C13.7718 17.4805 14.1351 17.4407 14.5142 17.5021Z" fill="url(#paint5_linear_1_2701)"/>
<path d="M13.5468 16.8656C13.3726 16.8874 13.3105 16.8444 13.3126 16.6829C13.319 16.2101 13.3106 16.2086 13.8189 16.2109C13.9723 16.2115 14.126 16.1982 14.279 16.2349C14.4497 16.2759 14.5541 16.3656 14.5543 16.5353C14.5545 16.7159 14.4372 16.8277 14.2616 16.847C14.0332 16.8721 13.8002 16.8611 13.5468 16.8656Z" fill="url(#paint6_linear_1_2701)"/>
<path d="M10.1669 18.0246C10.1805 17.8322 10.0873 17.6082 10.2044 17.5011C10.3203 17.3951 10.5575 17.4734 10.7413 17.4698C10.9265 17.4662 11.1127 17.4675 11.297 17.4822C11.4493 17.4943 11.5559 17.5722 11.5739 17.7279C11.5924 17.8885 11.5459 18.0285 11.3715 18.0775C10.9867 18.1858 10.5907 18.1235 10.199 18.1183C10.188 18.1182 10.1777 18.0704 10.1669 18.0246Z" fill="url(#paint7_linear_1_2701)"/>
<path d="M10.1914 16.8083C10.1895 16.6417 10.1935 16.4961 10.1879 16.3509C10.1842 16.2559 10.2019 16.2025 10.3247 16.2073C10.5488 16.2161 10.774 16.2025 10.9979 16.213C11.2764 16.2262 11.4151 16.3382 11.4171 16.5292C11.4193 16.7334 11.2693 16.8635 10.9915 16.8607C10.7256 16.858 10.456 16.9068 10.1914 16.8083Z" fill="url(#paint8_linear_1_2701)"/>
<path d="M26.074 20.2266C26.0765 20.3438 26.0774 20.4456 26.0687 20.5467C26.0105 21.2264 25.3682 21.6394 24.669 21.4483C24.4132 21.3784 24.2479 21.1888 24.2461 20.9631C24.2444 20.7421 24.3848 20.5461 24.6448 20.4875C25.1156 20.3813 25.5932 20.3017 26.074 20.2266Z" fill="url(#paint9_linear_1_2701)"/>
<path d="M11.0553 22.0623C11.1973 22.437 11.3311 22.7957 11.465 23.1544C11.4839 23.151 11.5027 23.1477 11.5216 23.1443C11.5216 22.8132 11.5181 22.482 11.5247 22.1509C11.5259 22.0866 11.4621 21.9745 11.6101 21.9692C11.757 21.9639 11.7087 22.0741 11.7094 22.1422C11.7133 22.5349 11.7125 22.9277 11.7101 23.3205C11.7097 23.3862 11.7435 23.4792 11.6197 23.4848C11.5148 23.4895 11.4074 23.5117 11.3599 23.3717C11.2591 23.0744 11.144 22.7812 11.0332 22.4869C11.0112 22.4285 11.0098 22.3587 10.9053 22.2968C10.9053 22.6128 10.9053 22.9043 10.9053 23.1958C10.9053 23.254 10.9043 23.3122 10.9056 23.3704C10.907 23.4338 10.9002 23.4879 10.8101 23.486C10.7227 23.4842 10.7147 23.432 10.7148 23.3679C10.7158 22.9388 10.7153 22.5096 10.7156 22.0805C10.7157 22.0293 10.7131 21.9649 10.7899 21.9714C10.8791 21.9789 10.9986 21.9119 11.0553 22.0623Z" fill="#FAFAFA"/>
<path d="M6.28153 22.0652C6.40747 21.9302 6.87151 21.933 7.02091 22.0487C7.18399 22.1751 7.19648 22.4151 7.03555 22.61C6.98886 22.6666 6.99173 22.6785 7.04771 22.7205C7.23706 22.8627 7.20931 23.0571 7.15182 23.2397C7.09233 23.4286 6.91361 23.4681 6.7269 23.4809C6.28119 23.5112 6.28124 23.512 6.28125 23.0873C6.28125 22.7536 6.28127 22.4199 6.28153 22.0652Z" fill="#FAFAFA"/>
<path d="M7.52906 22.1619C7.5477 22.0775 7.47433 21.9663 7.62737 21.9696C7.75966 21.9724 7.71517 22.0686 7.71599 22.1307C7.72005 22.4362 7.71912 22.7417 7.71738 23.0472C7.71632 23.2332 7.78509 23.3598 8.00668 23.3641C8.20529 23.3679 8.30518 23.2761 8.3106 23.0592C8.31841 22.7466 8.31121 22.4336 8.31408 22.1209C8.31467 22.0567 8.27847 21.9645 8.41192 21.9689C8.52602 21.9726 8.49948 22.0514 8.49979 22.111C8.50156 22.4456 8.50736 22.7804 8.49788 23.1147C8.48985 23.3976 8.31053 23.5361 7.99172 23.5272C7.6838 23.5187 7.53376 23.3827 7.52998 23.0982C7.52592 22.7928 7.52907 22.4872 7.52906 22.1619Z" fill="#FAFAFA"/>
<path d="M8.90005 19.7043C9.04601 19.7026 9.17001 19.6988 9.29365 19.7033C9.49416 19.7107 9.69541 19.7394 9.75871 19.9538C9.81723 20.1519 9.7995 20.3441 9.5586 20.471C9.73442 20.5442 9.75989 20.6762 9.76763 20.82C9.77267 20.9137 9.79161 21.0068 9.80238 21.1004C9.80707 21.1411 9.87972 21.2 9.77862 21.2162C9.71004 21.2273 9.63226 21.2305 9.61924 21.137C9.60525 21.0366 9.59409 20.9358 9.58406 20.8349C9.56227 20.6157 9.26484 20.4647 9.06106 20.5696C8.99765 20.6022 9.02166 20.6578 9.02058 20.7045C9.01739 20.8425 9.01892 20.9807 9.01932 21.1188C9.01949 21.1769 9.00036 21.2144 8.92905 21.2192C8.85526 21.2242 8.83359 21.1891 8.83399 21.1294C8.83714 20.6645 8.84016 20.1996 8.84499 19.7347C8.84509 19.725 8.86647 19.7155 8.90005 19.7043Z" fill="#FAFAFA"/>
<path d="M16.4703 20.1433C16.4957 20.3794 16.5069 20.598 16.4517 20.8128C16.3766 21.1052 16.2268 21.2144 15.9108 21.2199C15.4895 21.2273 15.4895 21.2273 15.4895 20.8401C15.4895 20.5271 15.5007 20.2136 15.4851 19.9013C15.4765 19.7306 15.5399 19.6819 15.7086 19.7012C15.8385 19.7161 15.9706 19.693 16.1017 19.7218C16.3324 19.7725 16.4279 19.9253 16.4703 20.1433Z" fill="#FAFAFA"/>
<path d="M14.4411 23.3383C14.4205 23.2969 14.4005 23.2696 14.4006 23.2424C14.4007 23.1616 14.2903 23.0462 14.449 23.01C14.6082 22.9738 14.5541 23.1123 14.5763 23.1828C14.622 23.3282 14.7347 23.3683 14.8803 23.364C15.0209 23.3597 15.1213 23.2995 15.1518 23.1691C15.1821 23.0402 15.1638 22.9185 15.0137 22.8572C14.886 22.805 14.7543 22.7615 14.6268 22.709C14.4237 22.6254 14.373 22.465 14.3999 22.2762C14.4278 22.0798 14.5535 21.9571 14.7606 21.9299C14.9622 21.9035 15.1529 21.9354 15.2606 22.1257C15.3016 22.1982 15.3617 22.2976 15.2502 22.3515C15.1405 22.4046 15.1192 22.3111 15.0906 22.2309C15.0466 22.1076 14.9363 22.0779 14.809 22.0902C14.6849 22.1022 14.6115 22.1643 14.5937 22.2823C14.5756 22.4022 14.6046 22.4997 14.735 22.5496C14.8209 22.5825 14.9068 22.6159 14.9939 22.6459C15.2046 22.7185 15.3663 22.8242 15.3552 23.0671C15.3466 23.2566 15.2768 23.4093 15.0833 23.4882C14.865 23.5773 14.6312 23.5238 14.4411 23.3383Z" fill="#FAFAFA"/>
<path d="M9.58532 23.1748C9.62305 22.974 9.5353 22.8684 9.3521 22.8157C9.25629 22.7881 9.16413 22.7488 9.07125 22.7128C8.85306 22.628 8.80936 22.4596 8.83816 22.2639C8.86589 22.0755 8.99244 21.9612 9.18606 21.9321C9.38622 21.902 9.57763 21.9309 9.69156 22.1171C9.73691 22.1912 9.78755 22.2983 9.69377 22.3488C9.57941 22.4103 9.55424 22.3094 9.52153 22.2198C9.47709 22.0982 9.35904 22.0766 9.23316 22.0922C9.11968 22.1062 9.04875 22.1648 9.0301 22.271C9.00969 22.3873 9.02968 22.4918 9.15924 22.5451C9.27958 22.5945 9.40501 22.6334 9.52393 22.6855C9.76536 22.7913 9.84552 22.9774 9.76551 23.2289C9.6997 23.4357 9.49873 23.5475 9.23381 23.5247C8.97909 23.5026 8.83484 23.3692 8.81478 23.1368C8.80993 23.0807 8.78568 23.0171 8.88348 23.0065C8.97358 22.9968 9.00979 23.0325 9.01035 23.1162C9.01123 23.2489 9.07506 23.3416 9.22272 23.3597C9.37925 23.3789 9.51896 23.3555 9.58532 23.1748Z" fill="#FAFAFA"/>
<path d="M13.4813 22.5459C13.6127 22.5964 13.7298 22.6348 13.8417 22.6839C14.081 22.7889 14.1576 22.9548 14.0904 23.2055C14.0333 23.4182 13.8403 23.5379 13.576 23.5242C13.3186 23.5109 13.1643 23.3853 13.135 23.1572C13.1278 23.1009 13.0843 23.0207 13.2001 23.0052C13.2911 22.9931 13.3211 23.0308 13.3253 23.1141C13.3344 23.2939 13.4464 23.3707 13.6327 23.363C13.7819 23.3567 13.8837 23.2963 13.9096 23.1501C13.9398 22.979 13.8646 22.8733 13.6876 22.8212C13.5773 22.7888 13.4695 22.7462 13.3648 22.6998C13.1495 22.6044 13.1256 22.4259 13.1633 22.2362C13.2003 22.0501 13.3372 21.9462 13.5335 21.9267C13.7374 21.9064 13.9246 21.9448 14.0224 22.1406C14.0562 22.2084 14.1074 22.3042 14.0063 22.35C13.9015 22.3975 13.8717 22.3199 13.846 22.2306C13.8137 22.1182 13.711 22.0807 13.5898 22.0867C13.4899 22.0917 13.3999 22.1203 13.3673 22.2145C13.3245 22.3381 13.3202 22.4605 13.4813 22.5459Z" fill="#FAFAFA"/>
<path d="M7.07983 20.1216C7.04333 19.9536 6.98962 19.8184 6.78623 19.8262C6.58897 19.8338 6.53681 19.9707 6.5098 20.1226C6.46606 20.3687 6.45606 20.6153 6.5194 20.8594C6.55445 20.9944 6.62285 21.1064 6.79965 21.0982C6.96386 21.0906 7.01895 20.983 7.04695 20.8531C7.05462 20.8175 7.06078 20.7816 7.06622 20.7456C7.0772 20.6731 7.136 20.6776 7.18972 20.6804C7.25081 20.6836 7.25501 20.7248 7.25889 20.7728C7.27663 20.9923 7.12331 21.2029 6.90446 21.2533C6.66682 21.3079 6.43565 21.2093 6.36105 20.993C6.23849 20.6376 6.24509 20.2751 6.37726 19.9227C6.45422 19.7175 6.63551 19.6393 6.85932 19.662C7.06542 19.6829 7.19729 19.7958 7.25063 19.9843C7.28849 20.118 7.24913 20.1851 7.07983 20.1216Z" fill="#FAFAFA"/>
<path d="M5.76636 20.0507C5.86762 20.3969 5.96585 20.7256 6.06071 21.0552C6.07619 21.1089 6.15014 21.1823 6.04122 21.2154C5.93682 21.247 5.88368 21.1872 5.86708 21.0937C5.86326 21.0722 5.85851 21.0507 5.85243 21.0297C5.79152 20.8191 5.5452 20.7127 5.32718 20.7979C5.26161 20.8235 5.26757 20.8758 5.25377 20.9221C5.23085 20.999 5.21187 21.077 5.1879 21.1536C5.1646 21.228 5.09867 21.2281 5.03659 21.2166C4.95102 21.2008 4.98505 21.1434 4.99907 21.0968C5.12734 20.6705 5.25902 20.2451 5.38257 19.8177C5.40763 19.731 5.44886 19.702 5.54207 19.7012C5.64084 19.7004 5.67875 19.7409 5.696 19.8249C5.71055 19.8959 5.73959 19.9641 5.76636 20.0507Z" fill="#FAFAFA"/>
<path d="M8.43395 21.011C8.32293 21.2237 8.14586 21.2881 7.92584 21.2574C7.70404 21.2264 7.58664 21.0825 7.55246 20.8899C7.49615 20.5727 7.4819 20.2515 7.59512 19.9414C7.67058 19.7348 7.86288 19.6308 8.08808 19.6615C8.30086 19.6905 8.44166 19.8012 8.47797 20.0075C8.48685 20.0579 8.52763 20.1305 8.42892 20.1471C8.35365 20.1598 8.2962 20.1462 8.28361 20.0538C8.26324 19.9043 8.17331 19.8157 8.00256 19.8253C7.82808 19.8352 7.76613 19.9565 7.74337 20.0897C7.69912 20.3488 7.6846 20.6111 7.75062 20.8694C7.7829 20.9957 7.85043 21.0998 8.01574 21.0988C8.18174 21.0978 8.23742 20.9913 8.27628 20.8654C8.29888 20.7922 8.24872 20.6576 8.40202 20.6831C8.56225 20.7098 8.44852 20.8343 8.46523 20.913C8.47056 20.9381 8.4498 20.9681 8.43395 21.011Z" fill="#FAFAFA"/>
<path d="M14.6181 19.7035C14.7789 19.7037 14.918 19.7038 15.0571 19.7039C15.117 19.7039 15.1633 19.7164 15.1624 19.787C15.1615 19.858 15.1134 19.8679 15.0545 19.8679C14.9927 19.8679 14.9309 19.8682 14.8691 19.8682C14.5403 19.8683 14.4638 19.97 14.5374 20.2835C14.5583 20.3726 14.6167 20.3554 14.6735 20.3566C14.7894 20.3591 14.9054 20.3569 15.0212 20.3581C15.0692 20.3586 15.1153 20.3646 15.1195 20.4244C15.1238 20.4867 15.0948 20.52 15.027 20.5207C14.9884 20.521 14.9494 20.5179 14.9112 20.5219C14.7906 20.5343 14.6083 20.4658 14.563 20.5566C14.5032 20.6764 14.5429 20.8403 14.5415 20.9852C14.5408 21.0621 14.6026 21.0551 14.6562 21.0554C14.7876 21.0562 14.9189 21.0557 15.0503 21.0561C15.1055 21.0563 15.1606 21.0551 15.1647 21.1292C15.1693 21.2139 15.1118 21.2208 15.0444 21.2205C14.8589 21.22 14.6734 21.2167 14.4881 21.2219C14.3886 21.2246 14.3512 21.1908 14.3519 21.0968C14.355 20.6759 14.357 20.255 14.3516 19.8341C14.349 19.6372 14.5008 19.7232 14.6181 19.7035Z" fill="#FAFAFA"/>
<path d="M12.0684 22.1152C12.0657 22.0239 12.0725 21.965 12.1754 21.9668C12.3767 21.9703 12.5782 21.9679 12.7795 21.9679C12.8394 21.9679 12.8861 21.9788 12.8823 22.0512C12.8785 22.1217 12.8294 22.131 12.7713 22.1314C12.6784 22.132 12.5836 22.1429 12.4928 22.1297C12.2901 22.1003 12.2613 22.1856 12.2522 22.3583C12.2405 22.5802 12.3095 22.6512 12.5439 22.6294C12.6358 22.6208 12.8219 22.5485 12.8274 22.6969C12.8336 22.866 12.6474 22.7545 12.5511 22.7824C12.4597 22.8089 12.3037 22.7353 12.277 22.8271C12.2359 22.9688 12.261 23.1296 12.2717 23.2814C12.2755 23.3344 12.3451 23.3193 12.3883 23.3199C12.5199 23.3218 12.6516 23.3208 12.7833 23.3209C12.842 23.321 12.8907 23.329 12.8862 23.4027C12.8831 23.4553 12.8585 23.4851 12.8031 23.4855C12.5863 23.4869 12.3691 23.4925 12.1526 23.4843C12.0318 23.4797 12.0705 23.3789 12.07 23.3141C12.0669 22.9213 12.0684 22.5285 12.0684 22.1152Z" fill="#FAFAFA"/>
<path d="M10.1439 21.1247C10.1434 20.69 10.1476 20.2758 10.1407 19.8618C10.1387 19.7398 10.1757 19.6927 10.3101 19.6999C10.4875 19.7093 10.6658 19.7038 10.8437 19.7015C10.9073 19.7007 10.949 19.7142 10.9498 19.7827C10.9506 19.8485 10.9156 19.8709 10.8487 19.8684C10.7638 19.8652 10.6769 19.8777 10.5938 19.8658C10.3811 19.8352 10.3326 19.914 10.325 20.1109C10.3162 20.3383 10.4064 20.3741 10.6144 20.3627C10.7094 20.3575 10.894 20.2807 10.9018 20.4311C10.9109 20.6067 10.7232 20.4899 10.6278 20.5182C10.5367 20.5454 10.3802 20.4725 10.3532 20.5622C10.3107 20.7032 10.3336 20.8639 10.3439 21.0154C10.3472 21.0635 10.4187 21.0537 10.4637 21.0541C10.5952 21.0551 10.7267 21.0553 10.8582 21.0544C10.9105 21.0541 10.9512 21.0673 10.9543 21.1229C10.9567 21.1677 10.9499 21.2179 10.8879 21.217C10.6497 21.2135 10.4106 21.2417 10.174 21.1994C10.1609 21.197 10.1541 21.164 10.1439 21.1247Z" fill="#FAFAFA"/>
<path d="M13.553 21.2001C13.5387 20.8207 13.5258 20.4573 13.5387 20.0948C13.5449 19.9204 13.5064 19.8326 13.3044 19.8688C13.2746 19.8741 13.2427 19.8691 13.2117 19.8692C13.1596 19.8694 13.1216 19.8537 13.1176 19.7978C13.113 19.7339 13.1451 19.705 13.2125 19.7051C13.4832 19.7055 13.7539 19.7051 14.0246 19.7052C14.0809 19.7052 14.1353 19.7074 14.1396 19.7795C14.1447 19.8654 14.0808 19.8808 14.0178 19.8676C13.7069 19.8025 13.7123 19.9791 13.7205 20.1849C13.7323 20.4823 13.7192 20.7805 13.7256 21.0782C13.7281 21.1937 13.6885 21.2418 13.553 21.2001Z" fill="#FAFAFA"/>
<path d="M12.7521 21.2187C12.6257 21.1989 12.6615 21.1186 12.6611 21.0609C12.6582 20.6615 12.6582 20.2621 12.661 19.8627C12.6615 19.7991 12.6234 19.704 12.7541 19.7051C12.8858 19.7061 12.8428 19.8028 12.8433 19.8646C12.8468 20.264 12.8466 20.6635 12.8434 21.0629C12.8429 21.1195 12.8814 21.2014 12.7521 21.2187Z" fill="#FAFAFA"/>
<path d="M10.3249 22.7545C10.3249 22.9723 10.3244 23.1683 10.325 23.3643C10.3252 23.4263 10.3209 23.4817 10.2325 23.4845C10.1422 23.4874 10.1366 23.432 10.1367 23.3697C10.1369 22.9414 10.1367 22.5131 10.1369 22.0848C10.1369 22.0261 10.1322 21.9677 10.2267 21.9668C10.3373 21.9657 10.3243 22.0368 10.3245 22.1012C10.3253 22.3117 10.3249 22.5222 10.3249 22.7545Z" fill="#FAFAFA"/>
<path d="M6.52094 23.3198C6.43238 23.1652 6.48245 23.0057 6.46897 22.8499C6.46005 22.7469 6.54225 22.7586 6.61004 22.7618C6.76121 22.769 6.93032 22.746 6.98443 22.9368C7.06342 23.2155 6.94094 23.322 6.52094 23.3198Z" fill="url(#paint10_linear_1_2701)"/>
<path d="M6.93282 22.2257C6.96991 22.389 6.99651 22.5388 6.78908 22.5895C6.68943 22.6138 6.53676 22.6632 6.49265 22.5792C6.42847 22.457 6.4098 22.255 6.49406 22.1699C6.59481 22.0682 6.78876 22.1067 6.93282 22.2257Z" fill="url(#paint11_linear_1_2701)"/>
<path d="M9.48014 19.9158C9.62576 20.0473 9.63258 20.1905 9.52595 20.3151C9.40899 20.4519 9.22785 20.3968 9.07033 20.397C9.02251 20.397 9.02154 20.3503 9.0204 20.3145C9.01924 20.2784 9.02003 20.2423 9.01974 20.2062C9.01668 19.8143 9.04108 19.7978 9.48014 19.9158Z" fill="url(#paint12_linear_1_2701)"/>
<path d="M16.1262 21.0086C16.0885 21.0268 16.0685 21.0403 16.0466 21.0437C15.6839 21.1005 15.6749 21.0932 15.675 20.7504C15.675 20.5405 15.6663 20.3302 15.6792 20.121C15.6844 20.0365 15.5971 19.8942 15.7581 19.8744C15.9277 19.8535 16.1491 19.8234 16.2173 20.026C16.3272 20.3523 16.3776 20.6894 16.1262 21.0086Z" fill="url(#paint13_linear_1_2701)"/>
<path d="M11.4619 20.183C11.505 20.0649 11.3552 19.8991 11.5729 19.8664C11.8517 19.8246 11.994 19.9015 12.0541 20.1224C12.1164 20.3514 12.1151 20.5834 12.053 20.8119C11.9973 21.0171 11.7133 21.138 11.5151 21.0517C11.4351 21.0168 11.4641 20.9534 11.4634 20.9011C11.46 20.6688 11.4619 20.4365 11.4619 20.183Z" fill="url(#paint14_linear_1_2701)"/>
<path d="M5.50872 19.9434C5.65283 20.1232 5.68752 20.3544 5.71197 20.5744C5.72559 20.697 5.55297 20.6162 5.46684 20.6339C5.38549 20.6505 5.33296 20.6216 5.35773 20.5276C5.40749 20.3387 5.45399 20.149 5.50872 19.9434Z" fill="url(#paint15_linear_1_2701)"/>
<defs>
<linearGradient id="paint0_linear_1_2701" x1="28.2907" y1="2.05664" x2="22.7122" y2="28.1118" gradientUnits="userSpaceOnUse">
<stop offset="0.03125" stop-color="#279AFF"/>
<stop offset="0.796875" stop-color="#006DD2"/>
<stop offset="1" stop-color="#0A549A"/>
</linearGradient>
<linearGradient id="paint1_linear_1_2701" x1="27.9933" y1="8.01367" x2="26.4045" y2="11.7172" gradientUnits="userSpaceOnUse">
<stop offset="0.03125" stop-color="#279AFF"/>
<stop offset="0.796875" stop-color="#006DD2"/>
<stop offset="1" stop-color="#0A549A"/>
</linearGradient>
<linearGradient id="paint2_linear_1_2701" x1="35.2825" y1="18.9121" x2="34.2933" y2="21.3092" gradientUnits="userSpaceOnUse">
<stop offset="0.03125" stop-color="#279AFF"/>
<stop offset="0.796875" stop-color="#006DD2"/>
<stop offset="1" stop-color="#0A549A"/>
</linearGradient>
<linearGradient id="paint3_linear_1_2701" x1="7.98347" y1="17.4688" x2="7.86645" y2="18.2156" gradientUnits="userSpaceOnUse">
<stop offset="0.03125" stop-color="#279AFF"/>
<stop offset="0.796875" stop-color="#006DD2"/>
<stop offset="1" stop-color="#0A549A"/>
</linearGradient>
<linearGradient id="paint4_linear_1_2701" x1="7.87695" y1="16.2051" x2="7.7447" y2="16.9419" gradientUnits="userSpaceOnUse">
<stop offset="0.03125" stop-color="#279AFF"/>
<stop offset="0.796875" stop-color="#006DD2"/>
<stop offset="1" stop-color="#0A549A"/>
</linearGradient>
<linearGradient id="paint5_linear_1_2701" x1="14.2981" y1="17.4668" x2="14.18" y2="18.2141" gradientUnits="userSpaceOnUse">
<stop offset="0.03125" stop-color="#279AFF"/>
<stop offset="0.796875" stop-color="#006DD2"/>
<stop offset="1" stop-color="#0A549A"/>
</linearGradient>
<linearGradient id="paint6_linear_1_2701" x1="14.1913" y1="16.2091" x2="14.0632" y2="16.9404" gradientUnits="userSpaceOnUse">
<stop offset="0.03125" stop-color="#279AFF"/>
<stop offset="0.796875" stop-color="#006DD2"/>
<stop offset="1" stop-color="#0A549A"/>
</linearGradient>
<linearGradient id="paint7_linear_1_2701" x1="11.1587" y1="17.4453" x2="11.0355" y2="18.2179" gradientUnits="userSpaceOnUse">
<stop offset="0.03125" stop-color="#279AFF"/>
<stop offset="0.796875" stop-color="#006DD2"/>
<stop offset="1" stop-color="#0A549A"/>
</linearGradient>
<linearGradient id="paint8_linear_1_2701" x1="11.0577" y1="16.207" x2="10.9278" y2="16.9396" gradientUnits="userSpaceOnUse">
<stop offset="0.03125" stop-color="#279AFF"/>
<stop offset="0.796875" stop-color="#006DD2"/>
<stop offset="1" stop-color="#0A549A"/>
</linearGradient>
<linearGradient id="paint9_linear_1_2701" x1="25.5409" y1="20.2266" x2="25.228" y2="21.6001" gradientUnits="userSpaceOnUse">
<stop offset="0.03125" stop-color="#279AFF"/>
<stop offset="0.796875" stop-color="#006DD2"/>
<stop offset="1" stop-color="#0A549A"/>
</linearGradient>
<linearGradient id="paint10_linear_1_2701" x1="6.84908" y1="22.7597" x2="6.6543" y2="23.3314" gradientUnits="userSpaceOnUse">
<stop offset="0.03125" stop-color="#279AFF"/>
<stop offset="0.796875" stop-color="#006DD2"/>
<stop offset="1" stop-color="#0A549A"/>
</linearGradient>
<linearGradient id="paint11_linear_1_2701" x1="6.80612" y1="22.1113" x2="6.63382" y2="22.6418" gradientUnits="userSpaceOnUse">
<stop offset="0.03125" stop-color="#279AFF"/>
<stop offset="0.796875" stop-color="#006DD2"/>
<stop offset="1" stop-color="#0A549A"/>
</linearGradient>
<linearGradient id="paint12_linear_1_2701" x1="9.42938" y1="19.8516" x2="9.24754" y2="20.4277" gradientUnits="userSpaceOnUse">
<stop offset="0.03125" stop-color="#279AFF"/>
<stop offset="0.796875" stop-color="#006DD2"/>
<stop offset="1" stop-color="#0A549A"/>
</linearGradient>
<linearGradient id="paint13_linear_1_2701" x1="16.1184" y1="19.8594" x2="15.5031" y2="20.8606" gradientUnits="userSpaceOnUse">
<stop offset="0.03125" stop-color="#279AFF"/>
<stop offset="0.796875" stop-color="#006DD2"/>
<stop offset="1" stop-color="#0A549A"/>
</linearGradient>
<linearGradient id="paint14_linear_1_2701" x1="11.9105" y1="19.8555" x2="11.286" y2="20.8629" gradientUnits="userSpaceOnUse">
<stop offset="0.03125" stop-color="#279AFF"/>
<stop offset="0.796875" stop-color="#006DD2"/>
<stop offset="1" stop-color="#0A549A"/>
</linearGradient>
<linearGradient id="paint15_linear_1_2701" x1="5.60716" y1="19.9434" x2="5.24555" y2="20.5108" gradientUnits="userSpaceOnUse">
<stop offset="0.03125" stop-color="#279AFF"/>
<stop offset="0.796875" stop-color="#006DD2"/>
<stop offset="1" stop-color="#0A549A"/>
</linearGradient>
</defs>
</svg>
