<svg width="40" height="20" viewBox="0 0 40 20" fill="none" xmlns="http://www.w3.org/2000/svg">
<g clip-path="url(#clip0_1_2761)">
<mask id="mask0_1_2761" style="mask-type:luminance" maskUnits="userSpaceOnUse" x="0" y="0" width="40" height="20">
<path d="M39.1094 0H0.109375V20H39.1094V0Z" fill="white"/>
</mask>
<g mask="url(#mask0_1_2761)">
<path opacity="0.955" fill-rule="evenodd" clip-rule="evenodd" d="M39.0443 7.53443C39.0443 7.71221 39.0443 7.88999 39.0443 8.06777C37.7846 8.11201 36.528 8.06755 35.2743 7.93443C34.4231 6.12335 33.0365 5.47891 31.1143 6.0011C29.5334 6.72866 28.7101 7.99533 28.6443 9.8011C28.9171 12.7726 30.4771 14.0838 33.3243 13.7344C34.4079 13.401 35.0579 12.6677 35.2743 11.5344C36.531 11.5344 37.7876 11.5344 39.0443 11.5344C39.0443 11.8011 39.0443 12.0678 39.0443 12.3344C38.2921 15.1274 36.5156 16.794 33.7143 17.3344C30.7581 17.8202 28.2665 16.9535 26.2393 14.7344C24.456 11.8638 24.2827 8.88599 25.7193 5.8011C27.6835 3.0068 30.3485 1.87346 33.7143 2.4011C36.5742 2.95716 38.3508 4.66826 39.0443 7.53443Z" fill="url(#paint0_linear_1_2761)"/>
<path opacity="0.963" fill-rule="evenodd" clip-rule="evenodd" d="M0.0449219 17.2676C0.0449219 17.1343 0.0449219 17.0009 0.0449219 16.8676C2.298 12.1564 4.48633 7.40085 6.60992 2.60093C7.23154 2.42729 7.85987 2.42729 8.49492 2.60093C10.7405 7.42932 12.9505 12.2738 15.125 17.1343C13.7817 17.312 12.4383 17.312 11.095 17.1343C10.8871 16.5523 10.6271 15.9968 10.315 15.4676C8.49492 15.3787 6.67492 15.3787 4.85492 15.4676C4.55159 16.0453 4.24825 16.6232 3.94492 17.2009C2.64565 17.2676 1.34564 17.2897 0.0449219 17.2676ZM7.45492 8.60093C8.07151 9.64771 8.59151 10.7588 9.01492 11.9343C8.0655 12.0672 7.11217 12.1117 6.15492 12.0676C6.58739 10.9135 7.02073 9.75789 7.45492 8.60093Z" fill="url(#paint1_linear_1_2761)"/>
<path opacity="0.959" fill-rule="evenodd" clip-rule="evenodd" d="M11.2266 2.46732C13.9136 2.4451 16.6003 2.46732 19.2866 2.53398C22.1189 3.2968 23.4839 5.18569 23.3816 8.20065C23.2542 9.79564 22.5826 11.0846 21.3666 12.0673C22.3633 13.7563 23.3599 15.4451 24.3566 17.134C22.8102 17.31 21.2718 17.31 19.7416 17.134C18.9573 15.818 18.199 14.4847 17.4666 13.134C17.0063 13.0407 16.5513 12.9518 16.1016 12.8673C15.6387 11.7844 15.1404 10.7178 14.6066 9.66732C16.0005 9.5914 17.3872 9.48029 18.7666 9.33398C19.6908 8.50605 19.8425 7.55049 19.2216 6.46732C19.0163 6.26182 18.7779 6.10628 18.5066 6.00065C16.5984 5.97836 14.6917 5.91169 12.7866 5.80065C12.2297 4.70286 11.7097 3.59176 11.2266 2.46732Z" fill="url(#paint2_linear_1_2761)"/>
</g>
</g>
<defs>
<linearGradient id="paint0_linear_1_2761" x1="34.8683" y1="2.27539" x2="29.4807" y2="17.6947" gradientUnits="userSpaceOnUse">
<stop offset="0.03125" stop-color="#279AFF"/>
<stop offset="0.796875" stop-color="#006DD2"/>
<stop offset="1" stop-color="#0A549A"/>
</linearGradient>
<linearGradient id="paint1_linear_1_2761" x1="10.717" y1="2.4707" x2="5.78911" y2="17.7444" gradientUnits="userSpaceOnUse">
<stop offset="0.03125" stop-color="#279AFF"/>
<stop offset="0.796875" stop-color="#006DD2"/>
<stop offset="1" stop-color="#0A549A"/>
</linearGradient>
<linearGradient id="paint2_linear_1_2761" x1="20.5186" y1="2.45899" x2="15.023" y2="17.288" gradientUnits="userSpaceOnUse">
<stop offset="0.03125" stop-color="#279AFF"/>
<stop offset="0.796875" stop-color="#006DD2"/>
<stop offset="1" stop-color="#0A549A"/>
</linearGradient>
<clipPath id="clip0_1_2761">
<rect width="39" height="20" fill="white" transform="translate(0.109375)"/>
</clipPath>
</defs>
</svg>
